<svg xmlns="http://www.w3.org/2000/svg" xmlns:xlink="http://www.w3.org/1999/xlink" width="350" zoomAndPan="magnify" viewBox="0 0 262.5 262.500001" height="350" preserveAspectRatio="xMidYMid meet" version="1.0"><defs><clipPath id="42d3eb404c"><path d="M 112.085938 60 L 160.835938 60 L 160.835938 82 L 112.085938 82 Z M 112.085938 60 " clip-rule="nonzero"/></clipPath><clipPath id="ad2029f0b1"><path d="M 127 78 L 147 78 L 147 91.886719 L 127 91.886719 Z M 127 78 " clip-rule="nonzero"/></clipPath><clipPath id="d992cc9356"><path d="M 112.085938 55 L 160.835938 55 L 160.835938 81 L 112.085938 81 Z M 112.085938 55 " clip-rule="nonzero"/></clipPath></defs><g clip-path="url(#42d3eb404c)"><path fill="#eae8e5" d="M 132.523438 71.132812 C 132.523438 76.738281 129.246094 81.277344 122.6875 81.277344 C 116.132812 81.277344 112.851562 76.738281 112.851562 71.132812 C 112.851562 65.53125 117.257812 60.988281 122.6875 60.988281 C 128.121094 60.988281 132.523438 65.53125 132.523438 71.132812 Z M 151.214844 60.988281 C 146.644531 60.988281 142.886719 64.953125 142.410156 70.039062 C 142.378906 70.398438 143.015625 71.09375 143.015625 71.460938 C 143.015625 72.847656 142.542969 73.839844 142.902344 75.042969 C 144 78.707031 146.769531 81.277344 151.214844 81.277344 C 157.113281 81.277344 160.066406 76.738281 160.066406 71.132812 C 160.066406 65.53125 156.101562 60.988281 151.214844 60.988281 Z M 151.214844 60.988281 " fill-opacity="1" fill-rule="nonzero"/></g><g clip-path="url(#ad2029f0b1)"><path fill="#c95c3f" d="M 141.050781 86.511719 C 140.6875 86.511719 140.394531 86.222656 140.394531 85.859375 C 140.394531 85.496094 140.6875 85.203125 141.050781 85.203125 C 141.183594 85.203125 144.328125 85.160156 144.328125 82.585938 C 144.328125 79.914062 140.339844 79.3125 140.300781 79.308594 C 139.941406 79.257812 139.691406 78.925781 139.742188 78.566406 C 139.796875 78.210938 140.128906 77.964844 140.484375 78.011719 C 140.695312 78.042969 145.640625 78.789062 145.640625 82.585938 C 145.640625 85.691406 142.636719 86.511719 141.050781 86.511719 Z M 139.148438 91.746094 C 146.125 91.050781 146.910156 86.800781 146.941406 86.621094 C 147 86.265625 146.761719 85.933594 146.410156 85.871094 C 146.050781 85.8125 145.714844 86.046875 145.648438 86.398438 C 145.625 86.542969 144.9375 89.851562 139.015625 90.445312 C 130.621094 91.285156 129.28125 86.566406 129.226562 86.355469 C 129.136719 86.003906 128.78125 85.789062 128.433594 85.878906 C 128.082031 85.964844 127.867188 86.320312 127.953125 86.671875 C 128.011719 86.898438 129.328125 91.851562 137.089844 91.851562 C 137.730469 91.851562 138.414062 91.820312 139.148438 91.746094 Z M 139.148438 91.746094 " fill-opacity="1" fill-rule="nonzero"/></g><g clip-path="url(#d992cc9356)"><path fill="#000000" d="M 146.4375 56.890625 C 146.226562 56.597656 146.289062 56.195312 146.578125 55.980469 C 146.667969 55.914062 148.828125 54.378906 151.820312 55.710938 C 152.148438 55.859375 152.296875 56.246094 152.148438 56.574219 C 152.003906 56.902344 151.613281 57.054688 151.285156 56.90625 C 149.011719 55.894531 147.417969 56.992188 147.347656 57.039062 C 147.234375 57.121094 147.101562 57.160156 146.96875 57.160156 C 146.765625 57.160156 146.5625 57.066406 146.4375 56.890625 Z M 122.90625 57.449219 C 125.226562 56.5625 126.753906 57.738281 126.828125 57.796875 C 126.949219 57.894531 127.09375 57.941406 127.238281 57.941406 C 127.429688 57.941406 127.617188 57.859375 127.746094 57.703125 C 127.976562 57.421875 127.933594 57.011719 127.65625 56.78125 C 127.566406 56.710938 125.496094 55.058594 122.4375 56.226562 C 122.097656 56.355469 121.929688 56.734375 122.058594 57.070312 C 122.1875 57.410156 122.570312 57.578125 122.90625 57.449219 Z M 122.6875 60.335938 C 116.902344 60.335938 112.199219 65.179688 112.199219 71.132812 C 112.199219 71.496094 112.492188 71.789062 112.851562 71.789062 C 112.855469 71.789062 112.855469 71.789062 112.859375 71.789062 C 112.929688 75.785156 114.273438 78.707031 118.304688 80.441406 C 118.855469 80.558594 119.441406 80.625 120.066406 80.625 C 125.3125 80.625 127.933594 76.269531 127.933594 71.789062 C 127.933594 67.308594 124.410156 62.953125 120.066406 62.953125 C 118.949219 62.953125 117.890625 63.25 116.925781 63.757812 C 118.503906 62.4375 120.507812 61.644531 122.6875 61.644531 C 127.75 61.644531 131.867188 65.902344 131.867188 71.132812 C 131.867188 71.496094 132.164062 71.789062 132.523438 71.789062 C 132.886719 71.789062 133.179688 71.496094 133.179688 71.132812 C 133.179688 65.179688 128.472656 60.335938 122.6875 60.335938 Z M 151.210938 60.335938 C 146.335938 60.335938 142.273438 64.480469 141.757812 69.980469 C 141.726562 70.339844 141.992188 70.660156 142.351562 70.691406 C 142.363281 70.691406 142.375 70.6875 142.386719 70.6875 C 142.371094 70.949219 142.359375 71.207031 142.359375 71.460938 C 142.359375 75.628906 143.539062 78.660156 147.265625 80.441406 C 147.761719 80.558594 148.289062 80.625 148.851562 80.625 C 153.574219 80.625 155.933594 76.269531 155.933594 71.789062 C 155.933594 67.308594 152.761719 62.953125 148.851562 62.953125 C 147.875 62.953125 146.949219 63.238281 146.105469 63.714844 C 147.511719 62.417969 149.285156 61.644531 151.210938 61.644531 C 155.734375 61.644531 159.410156 65.902344 159.410156 71.132812 C 159.410156 71.496094 159.703125 71.789062 160.066406 71.789062 C 160.425781 71.789062 160.722656 71.496094 160.722656 71.132812 C 160.722656 65.179688 156.457031 60.335938 151.210938 60.335938 Z M 151.210938 60.335938 " fill-opacity="1" fill-rule="nonzero"/></g></svg>