<svg xmlns="http://www.w3.org/2000/svg" xmlns:xlink="http://www.w3.org/1999/xlink" width="350" zoomAndPan="magnify" viewBox="0 0 262.5 262.500001" height="350" preserveAspectRatio="xMidYMid meet" version="1.0"><defs><clipPath id="b875beb334"><path d="M 111.335938 56 L 160.085938 56 L 160.085938 79 L 111.335938 79 Z M 111.335938 56 " clip-rule="nonzero"/></clipPath></defs><path fill="#eae8e5" d="M 130.34375 63.9375 C 131.25 65.460938 131.78125 67.25 131.78125 69.164062 C 131.78125 74.738281 128.5 79.253906 121.9375 79.253906 C 120.144531 79.253906 118.542969 78.875 117.238281 78.273438 C 116.042969 76.804688 114.023438 74.328125 114.023438 70.28125 C 114.023438 69.773438 115.621094 69.679688 115.691406 69.195312 C 119.0625 69.554688 124.003906 67.191406 130.34375 63.9375 Z M 145.730469 66.046875 C 145.03125 67.308594 143.46875 67.414062 143.324219 68.972656 C 143.289062 69.332031 143.78125 72.171875 144.140625 73.367188 C 144.960938 76.085938 144.691406 77.871094 147.375 78.769531 C 148.289062 79.074219 149.351562 79.253906 150.480469 79.253906 C 156.386719 79.253906 159.339844 74.738281 159.339844 69.164062 C 159.339844 68.71875 159.304688 68.285156 159.253906 67.855469 C 151.539062 68.339844 147.734375 67.207031 145.730469 66.046875 Z M 145.730469 66.046875 " fill-opacity="1" fill-rule="nonzero"/><g clip-path="url(#b875beb334)"><path fill="#000000" d="M 130.851562 63.441406 C 131.0625 63.730469 130.996094 64.140625 130.703125 64.347656 C 128.976562 65.582031 127.011719 66.457031 125.023438 67.085938 C 125.464844 68.085938 125.726562 69.1875 125.726562 70.355469 C 125.726562 74.746094 123.140625 78.304688 117.96875 78.304688 C 117.71875 78.304688 117.480469 78.289062 117.238281 78.273438 C 113.816406 76.652344 112.097656 73.1875 112.097656 69.164062 C 112.097656 68.953125 112.105469 68.742188 112.121094 68.53125 C 112.027344 68.527344 111.960938 68.519531 111.933594 68.519531 C 111.574219 68.488281 111.304688 68.171875 111.335938 67.816406 C 111.367188 67.457031 111.679688 67.1875 112.046875 67.222656 C 112.15625 67.230469 123.203125 68.097656 129.9375 63.292969 C 130.230469 63.082031 130.640625 63.148438 130.851562 63.441406 Z M 159.296875 67.222656 C 159.199219 67.230469 149.300781 68.09375 143.273438 63.3125 C 142.988281 63.089844 142.578125 63.132812 142.351562 63.414062 C 142.125 63.695312 142.171875 64.105469 142.453125 64.328125 C 142.519531 64.382812 142.589844 64.425781 142.65625 64.476562 C 142.144531 65.574219 141.796875 66.785156 141.671875 68.078125 C 141.640625 68.433594 141.621094 69.125 141.621094 69.492188 C 141.621094 70.867188 141.804688 71.855469 142.164062 73.054688 C 142.980469 75.753906 144.71875 77.855469 147.375 78.765625 C 151.496094 78.382812 153.5625 74.988281 153.5625 70.851562 C 153.5625 69.980469 153.433594 69.140625 153.203125 68.355469 C 154.765625 68.546875 156.167969 68.601562 157.242188 68.601562 C 158.492188 68.601562 159.308594 68.527344 159.421875 68.519531 C 159.78125 68.484375 160.046875 68.167969 160.011719 67.808594 C 159.976562 67.453125 159.648438 67.183594 159.296875 67.222656 Z M 126.429688 60.222656 C 126.09375 60.222656 125.808594 59.964844 125.777344 59.628906 C 125.746094 59.269531 126.015625 58.953125 126.375 58.921875 C 130.085938 58.609375 132.355469 56.339844 132.378906 56.316406 C 132.632812 56.058594 133.046875 56.054688 133.308594 56.304688 C 133.566406 56.554688 133.574219 56.964844 133.324219 57.222656 C 133.21875 57.328125 130.707031 59.863281 126.488281 60.21875 C 126.46875 60.222656 126.449219 60.222656 126.429688 60.222656 Z M 147.164062 60.222656 C 147.140625 60.222656 147.117188 60.222656 147.09375 60.21875 C 143.699219 59.851562 141.695312 57.273438 141.613281 57.164062 C 141.394531 56.875 141.453125 56.46875 141.742188 56.25 C 142.027344 56.035156 142.441406 56.089844 142.660156 56.375 C 142.675781 56.398438 144.417969 58.621094 147.234375 58.925781 C 147.59375 58.964844 147.855469 59.285156 147.816406 59.640625 C 147.78125 59.976562 147.496094 60.222656 147.164062 60.222656 Z M 147.164062 60.222656 " fill-opacity="1" fill-rule="nonzero"/></g><path fill="#c95c3f" d="M 140.25 83.722656 C 139.886719 83.722656 139.59375 83.429688 139.59375 83.070312 C 139.59375 82.710938 139.886719 82.417969 140.25 82.417969 C 140.382812 82.417969 143.53125 82.375 143.53125 79.816406 C 143.53125 77.15625 139.542969 76.5625 139.5 76.554688 C 139.140625 76.503906 138.894531 76.175781 138.945312 75.820312 C 138.996094 75.460938 139.328125 75.214844 139.6875 75.265625 C 139.898438 75.296875 144.84375 76.039062 144.84375 79.816406 C 144.84375 82.90625 141.839844 83.722656 140.25 83.722656 Z M 140.5625 90.949219 C 140.902344 90.824219 141.078125 90.449219 140.957031 90.113281 C 140.914062 90.003906 139.929688 87.390625 137.15625 86.425781 C 134.882812 85.632812 132.148438 86.183594 129.023438 88.058594 C 128.714844 88.246094 128.613281 88.648438 128.800781 88.953125 C 128.988281 89.261719 129.394531 89.359375 129.703125 89.171875 C 132.46875 87.511719 134.824219 86.996094 136.703125 87.648438 C 138.878906 88.398438 139.707031 90.515625 139.722656 90.558594 C 139.820312 90.824219 140.070312 90.988281 140.339844 90.988281 C 140.414062 90.988281 140.488281 90.972656 140.5625 90.949219 Z M 140.5625 90.949219 " fill-opacity="1" fill-rule="nonzero"/></svg>