<svg xmlns="http://www.w3.org/2000/svg" xmlns:xlink="http://www.w3.org/1999/xlink" width="350" zoomAndPan="magnify" viewBox="0 0 262.5 262.500001" height="350" preserveAspectRatio="xMidYMid meet" version="1.0"><defs><clipPath id="554831315b"><path d="M 110.695312 61 L 159.445312 61 L 159.445312 77 L 110.695312 77 Z M 110.695312 61 " clip-rule="nonzero"/></clipPath><clipPath id="08220b6b1f"><path d="M 129 71 L 145 71 L 145 90.488281 L 129 90.488281 Z M 129 71 " clip-rule="nonzero"/></clipPath><clipPath id="2b652afe07"><path d="M 110.695312 59 L 159.445312 59 L 159.445312 77 L 110.695312 77 Z M 110.695312 59 " clip-rule="nonzero"/></clipPath></defs><g clip-path="url(#554831315b)"><path fill="#eae8e5" d="M 130.976562 66.664062 C 130.757812 72.113281 127.390625 76.4375 120.875 76.4375 C 114.132812 76.4375 110.761719 71.808594 110.761719 66.09375 C 110.761719 64.460938 111.128906 62.917969 111.789062 61.546875 Z M 141.789062 66.664062 C 141.976562 72.113281 144.894531 76.4375 150.542969 76.4375 C 156.386719 76.4375 159.308594 71.808594 159.308594 66.09375 C 159.308594 64.460938 158.988281 62.917969 158.417969 61.546875 Z M 141.789062 66.664062 " fill-opacity="1" fill-rule="nonzero"/></g><g clip-path="url(#08220b6b1f)"><path fill="#c95c3f" d="M 139.386719 80.660156 C 139.015625 80.660156 138.714844 80.363281 138.714844 79.992188 C 138.714844 79.625 139.015625 79.328125 139.386719 79.328125 C 139.523438 79.324219 142.757812 79.28125 142.757812 76.65625 C 142.757812 73.929688 138.660156 73.316406 138.617188 73.3125 C 138.25 73.261719 137.992188 72.921875 138.046875 72.558594 C 138.097656 72.191406 138.441406 71.941406 138.808594 71.992188 C 139.023438 72.019531 144.109375 72.785156 144.109375 76.65625 C 144.109375 79.824219 141.019531 80.660156 139.386719 80.660156 Z M 131.101562 90.445312 C 132.695312 90.183594 135.710938 88.730469 135.710938 85.117188 C 135.710938 79.777344 131.648438 79.777344 130.316406 79.777344 C 129.941406 79.777344 129.640625 80.074219 129.640625 80.445312 C 129.640625 80.8125 129.941406 81.109375 130.316406 81.109375 C 131.730469 81.109375 134.359375 81.109375 134.359375 85.117188 C 134.359375 88.492188 131.019531 89.105469 130.878906 89.128906 C 130.511719 89.191406 130.261719 89.535156 130.324219 89.898438 C 130.378906 90.222656 130.664062 90.457031 130.988281 90.457031 C 131.027344 90.457031 131.0625 90.453125 131.101562 90.445312 Z M 141.082031 85.277344 C 141.171875 84.921875 140.953125 84.558594 140.59375 84.46875 C 137.765625 83.769531 134.988281 84.4375 134.871094 84.46875 C 134.511719 84.558594 134.289062 84.917969 134.382812 85.277344 C 134.472656 85.636719 134.839844 85.851562 135.199219 85.761719 C 135.222656 85.757812 137.773438 85.148438 140.265625 85.761719 C 140.320312 85.777344 140.375 85.785156 140.429688 85.785156 C 140.730469 85.785156 141.007812 85.582031 141.082031 85.277344 Z M 141.082031 85.277344 " fill-opacity="1" fill-rule="nonzero"/></g><g clip-path="url(#2b652afe07)"><path fill="#000000" d="M 131.644531 66.589844 C 131.566406 66.890625 131.292969 67.09375 130.988281 67.09375 C 130.9375 67.09375 130.878906 67.085938 130.824219 67.074219 C 130.78125 67.0625 128.386719 66.472656 124.414062 65.515625 C 124.589844 66.21875 124.691406 66.957031 124.691406 67.71875 C 124.691406 71.898438 122.617188 75.386719 118.480469 76.222656 C 113.335938 75.25 110.761719 71.085938 110.761719 66.09375 C 110.761719 64.804688 111 63.574219 111.417969 62.4375 C 111.371094 62.425781 111.328125 62.414062 111.28125 62.402344 C 110.917969 62.320312 110.695312 61.960938 110.777344 61.601562 C 110.863281 61.242188 111.226562 61.023438 111.589844 61.105469 C 122.925781 63.746094 131.070312 65.757812 131.152344 65.777344 C 131.515625 65.867188 131.734375 66.230469 131.644531 66.589844 Z M 159.375 61.578125 C 159.277344 61.222656 158.902344 61.011719 158.546875 61.109375 C 148.722656 63.75 141.660156 65.765625 141.589844 65.785156 C 141.234375 65.886719 141.027344 66.257812 141.128906 66.613281 C 141.214844 66.902344 141.484375 67.09375 141.777344 67.09375 C 141.789062 67.09375 141.800781 67.089844 141.816406 67.089844 C 142.109375 71.832031 144.519531 75.632812 149.046875 76.316406 C 152.738281 74.753906 154.589844 71.074219 154.589844 66.78125 C 154.589844 65.699219 154.417969 64.667969 154.125 63.691406 C 155.625 63.28125 157.21875 62.851562 158.902344 62.398438 C 159.261719 62.300781 159.472656 61.933594 159.375 61.578125 Z M 146.074219 60.371094 C 146.417969 60.234375 146.585938 59.847656 146.449219 59.503906 C 146.3125 59.160156 145.914062 58.996094 145.574219 59.132812 C 142.210938 60.464844 140.777344 61.195312 140.71875 61.226562 C 140.386719 61.394531 140.257812 61.796875 140.429688 62.125 C 140.546875 62.351562 140.785156 62.484375 141.027344 62.484375 C 141.132812 62.484375 141.238281 62.460938 141.335938 62.410156 C 141.351562 62.402344 142.785156 61.675781 146.074219 60.371094 Z M 133.996094 61.226562 C 133.9375 61.195312 132.503906 60.464844 129.140625 59.132812 C 128.796875 58.996094 128.402344 59.160156 128.265625 59.503906 C 128.125 59.847656 128.292969 60.234375 128.640625 60.371094 C 131.929688 61.675781 133.363281 62.402344 133.375 62.410156 C 133.476562 62.460938 133.582031 62.484375 133.6875 62.484375 C 133.929688 62.484375 134.164062 62.351562 134.285156 62.125 C 134.457031 61.796875 134.328125 61.394531 133.996094 61.226562 Z M 133.996094 61.226562 " fill-opacity="1" fill-rule="nonzero"/></g></svg>