<svg xmlns="http://www.w3.org/2000/svg" xmlns:xlink="http://www.w3.org/1999/xlink" width="350" zoomAndPan="magnify" viewBox="0 0 262.5 262.500001" height="350" preserveAspectRatio="xMidYMid meet" version="1.0"><defs><clipPath id="28ac6ec263"><path d="M 116.21875 59 L 160 59 L 160 85 L 116.21875 85 Z M 116.21875 59 " clip-rule="nonzero"/></clipPath><clipPath id="1e009ba4f8"><path d="M 116.21875 52.761719 L 160.46875 52.761719 L 160.46875 91.761719 L 116.21875 91.761719 Z M 116.21875 52.761719 " clip-rule="nonzero"/></clipPath><clipPath id="b112c73d34"><path d="M 127 74 L 147 74 L 147 91.761719 L 127 91.761719 Z M 127 74 " clip-rule="nonzero"/></clipPath></defs><g clip-path="url(#28ac6ec263)"><path fill="#eae8e5" d="M 134.753906 68.300781 C 134.753906 73.351562 131.765625 77.449219 125.785156 77.449219 C 119.804688 77.449219 116.816406 73.351562 116.816406 68.300781 C 116.816406 63.246094 120.832031 59.152344 125.785156 59.152344 C 130.738281 59.152344 134.753906 63.246094 134.753906 68.300781 Z M 151.796875 59.152344 C 147.632812 59.152344 144.203125 62.726562 143.769531 67.3125 C 143.742188 67.636719 143.726562 68.261719 143.726562 68.59375 C 143.726562 69.84375 143.890625 70.742188 144.21875 71.828125 C 145.21875 75.128906 147.746094 77.449219 151.796875 77.449219 C 157.179688 77.449219 159.871094 73.351562 159.871094 68.300781 C 159.871094 63.246094 156.253906 59.152344 151.796875 59.152344 Z M 137.171875 83.308594 C 139.640625 84.039062 141.179688 84.160156 142.152344 84.058594 C 140.960938 82.226562 138.882812 80.730469 136.042969 80.566406 C 134.601562 80.484375 133.375 80.589844 132.324219 80.816406 C 132.496094 81.316406 133.421875 82.195312 137.171875 83.308594 Z M 137.171875 83.308594 " fill-opacity="1" fill-rule="nonzero"/></g><g clip-path="url(#1e009ba4f8)"><path fill="#000000" d="M 135.351562 68.300781 C 135.351562 68.625 135.085938 68.890625 134.753906 68.890625 C 134.746094 68.890625 134.738281 68.886719 134.730469 68.886719 C 134.609375 71.433594 133.710938 73.699219 132.019531 75.257812 C 130.953125 75.898438 129.636719 76.269531 128.058594 76.269531 C 123.210938 76.269531 120.789062 72.824219 120.789062 68.578125 C 120.789062 64.328125 124.042969 60.886719 128.058594 60.886719 C 129.023438 60.886719 129.9375 61.085938 130.78125 61.449219 C 129.382812 60.382812 127.660156 59.742188 125.785156 59.742188 C 121.167969 59.742188 117.414062 63.582031 117.414062 68.300781 C 117.414062 68.625 117.148438 68.890625 116.816406 68.890625 C 116.484375 68.890625 116.21875 68.625 116.21875 68.300781 C 116.21875 62.929688 120.511719 58.5625 125.785156 58.5625 C 131.0625 58.5625 135.351562 62.929688 135.351562 68.300781 Z M 151.796875 58.5625 C 147.351562 58.5625 143.644531 62.300781 143.175781 67.257812 C 143.144531 67.582031 143.386719 67.871094 143.714844 67.902344 C 143.722656 67.902344 143.730469 67.898438 143.738281 67.898438 C 143.730469 68.15625 143.726562 68.417969 143.726562 68.59375 C 143.726562 69.84375 143.890625 70.742188 144.21875 71.828125 C 144.628906 73.175781 145.296875 74.359375 146.21875 75.289062 C 147.167969 75.910156 148.339844 76.269531 149.738281 76.269531 C 154.101562 76.269531 156.28125 72.824219 156.28125 68.578125 C 156.28125 64.328125 153.351562 60.886719 149.738281 60.886719 C 148.886719 60.886719 148.074219 61.082031 147.328125 61.433594 C 148.578125 60.367188 150.128906 59.742188 151.796875 59.742188 C 155.917969 59.742188 159.273438 63.582031 159.273438 68.300781 C 159.273438 68.625 159.539062 68.890625 159.871094 68.890625 C 160.199219 68.890625 160.46875 68.625 160.46875 68.300781 C 160.46875 62.929688 156.578125 58.5625 151.796875 58.5625 Z M 131.429688 56.597656 C 131.46875 56.597656 131.507812 56.59375 131.542969 56.585938 C 134.476562 56.027344 135.285156 53.777344 135.320312 53.683594 C 135.425781 53.375 135.257812 53.042969 134.949219 52.9375 C 134.636719 52.832031 134.300781 52.992188 134.1875 53.296875 C 134.164062 53.367188 133.546875 55.003906 131.316406 55.425781 C 130.992188 55.488281 130.78125 55.796875 130.84375 56.117188 C 130.898438 56.402344 131.148438 56.597656 131.429688 56.597656 Z M 147.796875 56.585938 C 147.832031 56.59375 147.871094 56.597656 147.910156 56.597656 C 148.191406 56.597656 148.441406 56.402344 148.496094 56.117188 C 148.558594 55.796875 148.34375 55.488281 148.023438 55.425781 C 145.796875 55.003906 145.179688 53.375 145.152344 53.296875 C 145.042969 52.992188 144.707031 52.828125 144.394531 52.933594 C 144.082031 53.039062 143.914062 53.375 144.019531 53.683594 C 144.054688 53.777344 144.863281 56.027344 147.796875 56.585938 Z M 137.171875 83.308594 C 133.421875 82.195312 132.496094 81.316406 132.324219 80.816406 C 128.410156 81.667969 127.089844 84.316406 127.722656 86.121094 C 129.398438 88.621094 131.355469 86.355469 134.78125 87.4375 C 136.691406 88.042969 137.769531 91.570312 139.375 91.613281 C 139.527344 91.613281 139.683594 91.597656 139.847656 91.574219 C 140.3125 91.5 140.835938 91.332031 141.441406 91.039062 C 143.734375 89.933594 143.839844 86.660156 142.152344 84.058594 C 141.179688 84.160156 139.640625 84.039062 137.171875 83.308594 Z M 137.171875 83.308594 " fill-opacity="1" fill-rule="nonzero"/></g><g clip-path="url(#b112c73d34)"><path fill="#c95c3f" d="M 142.527344 82.171875 C 142.199219 82.171875 141.929688 81.90625 141.929688 81.582031 C 141.929688 81.253906 142.199219 80.992188 142.527344 80.992188 C 142.648438 80.988281 145.519531 80.949219 145.519531 78.628906 C 145.519531 76.21875 141.882812 75.675781 141.847656 75.671875 C 141.519531 75.625 141.292969 75.328125 141.339844 75.003906 C 141.386719 74.683594 141.691406 74.460938 142.015625 74.503906 C 142.207031 74.53125 146.714844 75.207031 146.714844 78.628906 C 146.714844 81.429688 143.976562 82.171875 142.527344 82.171875 Z M 139.367188 91.613281 C 137.742188 84.140625 129.804688 84.679688 127.589844 84.984375 C 127.558594 85.382812 127.597656 85.769531 127.722656 86.121094 C 128.957031 89.628906 131.164062 87.792969 134.589844 88.875 C 136.5 89.476562 137.234375 91.644531 139.367188 91.613281 Z M 139.367188 91.613281 " fill-opacity="1" fill-rule="nonzero"/></g></svg>