<svg xmlns="http://www.w3.org/2000/svg" xmlns:xlink="http://www.w3.org/1999/xlink" width="350" zoomAndPan="magnify" viewBox="0 0 262.5 262.500001" height="350" preserveAspectRatio="xMidYMid meet" version="1.0"><defs><clipPath id="d888e472d1"><path d="M 111 59 L 159.933594 59 L 159.933594 90 L 111 90 Z M 111 59 " clip-rule="nonzero"/></clipPath><clipPath id="52f85a6d7b"><path d="M 110.433594 53 L 159.933594 53 L 159.933594 96 L 110.433594 96 Z M 110.433594 53 " clip-rule="nonzero"/></clipPath></defs><g clip-path="url(#d888e472d1)"><path fill="#eae8e5" d="M 131.179688 69.863281 C 131.179688 73.484375 129.835938 76.667969 127.15625 78.519531 C 122.484375 73.140625 115.605469 76.136719 113.632812 77.167969 C 111.976562 75.292969 111.144531 72.714844 111.144531 69.863281 C 111.144531 64.140625 115.628906 59.503906 121.160156 59.503906 C 126.695312 59.503906 131.179688 64.140625 131.179688 69.863281 Z M 150.207031 59.503906 C 145.558594 59.503906 141.730469 63.550781 141.246094 68.746094 C 141.210938 69.113281 141.195312 69.820312 141.195312 70.195312 C 141.195312 71.609375 141.378906 72.625 141.746094 73.855469 C 142.148438 75.199219 142.773438 76.394531 143.617188 77.382812 C 144.632812 76.726562 151.3125 72.746094 155.808594 78.355469 C 158.082031 76.484375 159.222656 73.378906 159.222656 69.863281 C 159.222656 64.140625 155.1875 59.503906 150.207031 59.503906 Z M 134.707031 86.191406 C 132.394531 85.417969 131.441406 82.839844 128.703125 82.984375 C 128.707031 83 128.679688 87.195312 134.007812 89.195312 C 138.253906 90.789062 140.890625 88.472656 141.589844 87.847656 C 140.097656 86.226562 137.929688 87.265625 134.707031 86.191406 Z M 134.707031 86.191406 " fill-opacity="1" fill-rule="nonzero"/></g><g clip-path="url(#52f85a6d7b)"><path fill="#000000" d="M 120.519531 55.503906 C 120.386719 55.160156 120.5625 54.773438 120.90625 54.640625 C 124.023438 53.449219 126.128906 55.136719 126.21875 55.207031 C 126.503906 55.441406 126.546875 55.863281 126.3125 56.148438 C 126.179688 56.308594 125.988281 56.390625 125.792969 56.390625 C 125.648438 56.390625 125.5 56.34375 125.375 56.242188 C 125.308594 56.191406 123.75 54.980469 121.382812 55.890625 C 121.035156 56.019531 120.652344 55.847656 120.519531 55.503906 Z M 121.160156 58.835938 C 115.269531 58.835938 110.476562 63.78125 110.476562 69.863281 C 110.476562 70.230469 110.777344 70.53125 111.144531 70.53125 C 111.152344 70.53125 111.160156 70.527344 111.171875 70.523438 C 111.292969 73.109375 112.121094 75.429688 113.652344 77.15625 C 115.253906 76.324219 119.957031 74.261719 124.160156 76.214844 C 125.449219 74.648438 126.097656 72.523438 126.097656 70.175781 C 126.097656 65.367188 122.464844 61.46875 117.980469 61.46875 C 117.34375 61.46875 116.726562 61.558594 116.132812 61.707031 C 117.585938 60.742188 119.308594 60.171875 121.160156 60.171875 C 126.316406 60.171875 130.511719 64.519531 130.511719 69.863281 C 130.511719 70.230469 130.808594 70.53125 131.175781 70.53125 C 131.546875 70.53125 131.84375 70.230469 131.84375 69.863281 C 131.84375 63.78125 127.050781 58.835938 121.160156 58.835938 Z M 145.886719 55.597656 C 146.019531 55.597656 146.15625 55.554688 146.273438 55.472656 C 146.34375 55.421875 147.964844 54.300781 150.28125 55.335938 C 150.617188 55.484375 151.011719 55.332031 151.164062 54.996094 C 151.3125 54.660156 151.164062 54.265625 150.824219 54.113281 C 147.78125 52.753906 145.582031 54.324219 145.488281 54.390625 C 145.191406 54.609375 145.128906 55.023438 145.34375 55.320312 C 145.472656 55.5 145.679688 55.597656 145.886719 55.597656 Z M 150.207031 58.835938 C 145.242188 58.835938 141.105469 63.070312 140.582031 68.683594 C 140.546875 69.050781 140.816406 69.375 141.183594 69.410156 C 141.191406 69.410156 141.199219 69.40625 141.210938 69.410156 C 141.199219 69.699219 141.195312 69.992188 141.195312 70.195312 C 141.195312 71.609375 141.378906 72.625 141.746094 73.855469 C 142.148438 75.199219 142.777344 76.394531 143.625 77.378906 C 144.433594 76.855469 148.675781 74.328125 152.632812 75.917969 C 153.65625 74.382812 154.171875 72.378906 154.171875 70.175781 C 154.171875 65.367188 150.902344 61.46875 146.867188 61.46875 C 146.542969 61.46875 146.226562 61.503906 145.914062 61.550781 C 147.171875 60.675781 148.640625 60.171875 150.207031 60.171875 C 154.8125 60.171875 158.554688 64.519531 158.554688 69.863281 C 158.554688 70.230469 158.855469 70.53125 159.222656 70.53125 C 159.59375 70.53125 159.890625 70.230469 159.890625 69.863281 C 159.890625 63.78125 155.546875 58.835938 150.207031 58.835938 Z M 142.53125 89.574219 C 142.171875 88.503906 141.457031 87.703125 141.589844 87.847656 C 140.890625 88.472656 138.761719 89.832031 134.515625 88.238281 C 129.238281 86.257812 128.714844 83.066406 128.703125 82.992188 C 128.605469 82.996094 128.511719 82.996094 128.40625 83.007812 C 127.855469 83.074219 127.230469 83.25 126.503906 83.558594 C 121.828125 85.566406 124.417969 94.914062 132.511719 95.589844 C 140.527344 96.257812 143.398438 92.1875 142.53125 89.574219 Z M 142.53125 89.574219 " fill-opacity="1" fill-rule="nonzero"/></g><path fill="#c95c3f" d="M 139.859375 85.566406 C 139.488281 85.566406 139.191406 85.265625 139.191406 84.898438 C 139.191406 84.527344 139.488281 84.226562 139.859375 84.226562 C 139.992188 84.226562 143.195312 84.179688 143.195312 81.554688 C 143.195312 78.824219 139.136719 78.214844 139.097656 78.207031 C 138.730469 78.15625 138.476562 77.816406 138.53125 77.453125 C 138.582031 77.085938 138.921875 76.835938 139.285156 76.882812 C 139.5 76.914062 144.53125 77.679688 144.53125 81.554688 C 144.53125 84.726562 141.476562 85.566406 139.859375 85.566406 Z M 124.492188 85.683594 C 123.183594 89.152344 126.140625 95.054688 132.511719 95.589844 C 133.496094 95.671875 134.402344 95.679688 135.234375 95.628906 C 133.28125 86.398438 124.53125 85.6875 124.492188 85.683594 Z M 124.492188 85.683594 " fill-opacity="1" fill-rule="nonzero"/></svg>