<svg xmlns="http://www.w3.org/2000/svg" xmlns:xlink="http://www.w3.org/1999/xlink" width="350" zoomAndPan="magnify" viewBox="0 0 262.5 262.500001" height="350" preserveAspectRatio="xMidYMid meet" version="1.0"><defs><clipPath id="7ed0f74d37"><path d="M 110.695312 53 L 159.445312 53 L 159.445312 96.957031 L 110.695312 96.957031 Z M 110.695312 53 " clip-rule="nonzero"/></clipPath><clipPath id="55334a2bb8"><path d="M 130 76 L 145 76 L 145 96.957031 L 130 96.957031 Z M 130 76 " clip-rule="nonzero"/></clipPath></defs><path fill="#eae8e5" d="M 131.117188 69.675781 C 131.117188 75.328125 127.820312 79.910156 121.234375 79.910156 C 114.644531 79.910156 111.351562 75.328125 111.351562 69.675781 C 111.351562 64.019531 115.777344 59.4375 121.234375 59.4375 C 126.691406 59.4375 131.117188 64.019531 131.117188 69.675781 Z M 149.890625 59.4375 C 145.304688 59.4375 141.527344 63.433594 141.046875 68.570312 C 141.015625 68.933594 140.996094 69.632812 140.996094 70.003906 C 140.996094 71.402344 141.179688 72.40625 141.542969 73.621094 C 142.644531 77.316406 145.429688 79.910156 149.890625 79.910156 C 155.820312 79.910156 158.785156 75.328125 158.785156 69.675781 C 158.785156 64.019531 154.804688 59.4375 149.890625 59.4375 Z M 138.824219 87.882812 C 137.980469 86.546875 136.660156 85.683594 135.167969 85.683594 C 133.804688 85.683594 132.585938 86.40625 131.742188 87.550781 C 133.332031 88.015625 136.214844 88.375 138.824219 87.882812 Z M 138.824219 87.882812 " fill-opacity="1" fill-rule="nonzero"/><g clip-path="url(#7ed0f74d37)"><path fill="#000000" d="M 125.804688 56.359375 C 125.660156 56.359375 125.511719 56.3125 125.390625 56.210938 C 125.320312 56.15625 123.78125 54.964844 121.453125 55.859375 C 121.113281 55.992188 120.730469 55.820312 120.601562 55.480469 C 120.472656 55.140625 120.640625 54.757812 120.980469 54.628906 C 124.054688 53.449219 126.136719 55.117188 126.222656 55.1875 C 126.503906 55.417969 126.546875 55.835938 126.316406 56.117188 C 126.183594 56.277344 125.996094 56.359375 125.804688 56.359375 Z M 131.773438 69.675781 C 131.773438 63.664062 127.046875 58.773438 121.234375 58.773438 C 115.421875 58.773438 110.695312 63.664062 110.695312 69.675781 C 110.695312 70.039062 110.988281 70.335938 111.351562 70.335938 C 111.714844 70.335938 112.011719 70.039062 112.011719 69.675781 C 112.011719 64.394531 116.148438 60.097656 121.234375 60.097656 C 126.320312 60.097656 130.457031 64.394531 130.457031 69.675781 C 130.457031 70.039062 130.753906 70.335938 131.117188 70.335938 C 131.480469 70.335938 131.773438 70.039062 131.773438 69.675781 Z M 159.445312 69.675781 C 159.445312 63.664062 155.160156 58.773438 149.890625 58.773438 C 144.992188 58.773438 140.910156 62.960938 140.390625 68.507812 C 140.359375 68.871094 140.625 69.195312 140.988281 69.226562 C 141.34375 69.261719 141.671875 68.996094 141.703125 68.632812 C 142.15625 63.765625 145.675781 60.097656 149.890625 60.097656 C 154.433594 60.097656 158.125 64.394531 158.125 69.675781 C 158.125 70.039062 158.421875 70.335938 158.785156 70.335938 C 159.148438 70.335938 159.445312 70.039062 159.445312 69.675781 Z M 121.105469 63.359375 C 117.699219 63.359375 114.9375 66.324219 114.9375 69.984375 C 114.9375 73.644531 116.992188 76.609375 121.105469 76.609375 C 125.214844 76.609375 127.269531 73.644531 127.269531 69.984375 C 127.269531 66.324219 124.507812 63.359375 121.105469 63.359375 Z M 149.601562 63.359375 C 146.738281 63.359375 144.382812 65.945312 144.082031 69.269531 C 144.0625 69.503906 144.050781 69.957031 144.050781 70.195312 C 144.050781 71.101562 144.164062 71.75 144.390625 72.539062 C 145.078125 74.929688 146.816406 76.609375 149.601562 76.609375 C 153.300781 76.609375 155.148438 73.644531 155.148438 69.984375 C 155.148438 66.324219 152.664062 63.359375 149.601562 63.359375 Z M 146.007812 55.449219 C 146.078125 55.402344 147.679688 54.292969 149.964844 55.3125 C 150.292969 55.460938 150.683594 55.3125 150.832031 54.980469 C 150.980469 54.644531 150.832031 54.253906 150.5 54.105469 C 147.496094 52.761719 145.324219 54.3125 145.234375 54.378906 C 144.941406 54.59375 144.878906 55.003906 145.089844 55.296875 C 145.21875 55.476562 145.421875 55.570312 145.625 55.570312 C 145.757812 55.570312 145.894531 55.53125 146.007812 55.449219 Z M 131.742188 87.550781 C 131.007812 88.546875 130.558594 89.855469 130.558594 91.296875 C 130.558594 94.398438 132.621094 96.914062 135.167969 96.914062 C 137.714844 96.914062 139.78125 94.398438 139.78125 91.296875 C 139.78125 90.011719 139.421875 88.832031 138.824219 87.882812 C 136.214844 88.375 133.332031 88.015625 131.742188 87.550781 Z M 131.742188 87.550781 " fill-opacity="1" fill-rule="nonzero"/></g><g clip-path="url(#55334a2bb8)"><path fill="#c95c3f" d="M 139.679688 85.195312 C 139.316406 85.195312 139.019531 84.902344 139.019531 84.535156 C 139.019531 84.171875 139.316406 83.875 139.679688 83.875 C 139.8125 83.875 142.972656 83.828125 142.972656 81.234375 C 142.972656 78.535156 138.96875 77.929688 138.929688 77.925781 C 138.566406 77.871094 138.316406 77.539062 138.367188 77.175781 C 138.421875 76.816406 138.753906 76.566406 139.113281 76.617188 C 139.324219 76.644531 144.292969 77.402344 144.292969 81.234375 C 144.292969 84.367188 141.273438 85.195312 139.679688 85.195312 Z M 130.640625 90.246094 C 130.589844 90.585938 130.558594 90.9375 130.558594 91.296875 C 130.558594 94.398438 132.621094 96.914062 135.167969 96.914062 C 135.925781 96.914062 136.636719 96.6875 137.269531 96.292969 C 136.027344 93.546875 132.734375 90.90625 130.640625 90.246094 Z M 130.640625 90.246094 " fill-opacity="1" fill-rule="nonzero"/></g></svg>