<svg xmlns="http://www.w3.org/2000/svg" xmlns:xlink="http://www.w3.org/1999/xlink" width="350" zoomAndPan="magnify" viewBox="0 0 262.5 262.500001" height="350" preserveAspectRatio="xMidYMid meet" version="1.0"><defs><clipPath id="5cad381f66"><path d="M 110.617188 54 L 159.367188 54 L 159.367188 94 L 110.617188 94 Z M 110.617188 54 " clip-rule="nonzero"/></clipPath></defs><g clip-path="url(#5cad381f66)"><path fill="#000000" d="M 132.421875 93.507812 C 123.285156 92.75 120.367188 82.207031 125.640625 79.949219 C 126.460938 79.597656 127.164062 79.402344 127.785156 79.328125 C 127.902344 79.3125 128.011719 79.3125 128.125 79.304688 C 128.136719 79.390625 128.722656 82.988281 134.679688 85.222656 C 139.46875 87.015625 141.875 85.488281 142.664062 84.78125 C 142.519531 84.621094 143.324219 85.53125 143.722656 86.726562 C 144.707031 89.675781 141.460938 94.261719 132.421875 93.507812 Z M 147.949219 56.925781 C 148.027344 56.871094 149.855469 55.601562 152.46875 56.769531 C 152.851562 56.9375 153.296875 56.765625 153.464844 56.386719 C 153.636719 56.007812 153.464844 55.5625 153.082031 55.394531 C 149.648438 53.859375 147.167969 55.628906 147.0625 55.707031 C 146.730469 55.949219 146.65625 56.417969 146.898438 56.753906 C 147.046875 56.957031 147.277344 57.0625 147.511719 57.0625 C 147.664062 57.0625 147.816406 57.019531 147.949219 56.925781 Z M 125.421875 57.6875 C 125.6875 57.363281 125.640625 56.890625 125.316406 56.625 C 125.21875 56.542969 122.839844 54.640625 119.324219 55.988281 C 118.933594 56.136719 118.738281 56.570312 118.886719 56.960938 C 119.035156 57.347656 119.472656 57.542969 119.859375 57.394531 C 122.527344 56.375 124.285156 57.730469 124.367188 57.792969 C 124.503906 57.90625 124.671875 57.960938 124.839844 57.960938 C 125.058594 57.960938 125.273438 57.867188 125.421875 57.6875 Z M 147.949219 56.925781 C 148.027344 56.871094 149.855469 55.601562 152.46875 56.769531 C 152.851562 56.9375 153.296875 56.765625 153.464844 56.386719 C 153.636719 56.007812 153.464844 55.5625 153.082031 55.394531 C 149.648438 53.859375 147.167969 55.628906 147.0625 55.707031 C 146.730469 55.949219 146.65625 56.417969 146.898438 56.753906 C 147.046875 56.957031 147.277344 57.0625 147.511719 57.0625 C 147.664062 57.0625 147.816406 57.019531 147.949219 56.925781 Z M 129.660156 70.71875 C 130.046875 70.570312 130.242188 70.132812 130.09375 69.746094 C 130.046875 69.625 128.914062 66.738281 125.410156 65.484375 C 121.699219 64.15625 116.875 65.164062 111.074219 68.476562 C 110.710938 68.679688 110.585938 69.140625 110.792969 69.503906 C 111 69.863281 111.460938 69.988281 111.820312 69.78125 C 117.125 66.753906 121.636719 65.753906 124.867188 66.894531 C 127.722656 67.898438 128.648438 70.1875 128.6875 70.285156 C 128.804688 70.585938 129.089844 70.769531 129.390625 70.769531 C 129.480469 70.769531 129.570312 70.75 129.660156 70.71875 Z M 146.179688 70.550781 C 146.21875 70.507812 150.355469 66.476562 154.035156 67.011719 C 155.550781 67.234375 156.816406 68.242188 157.792969 70.011719 C 157.992188 70.375 158.449219 70.507812 158.816406 70.304688 C 159.179688 70.101562 159.3125 69.644531 159.109375 69.28125 C 157.890625 67.078125 156.257812 65.8125 154.25 65.519531 C 149.832031 64.878906 145.308594 69.289062 145.121094 69.476562 C 144.824219 69.769531 144.820312 70.246094 145.113281 70.542969 C 145.261719 70.691406 145.453125 70.765625 145.648438 70.765625 C 145.839844 70.765625 146.03125 70.695312 146.179688 70.550781 Z M 146.179688 70.550781 " fill-opacity="1" fill-rule="nonzero"/></g><path fill="#c95c3f" d="M 140.707031 82.207031 C 140.292969 82.207031 139.957031 81.871094 139.957031 81.453125 C 139.957031 81.039062 140.292969 80.699219 140.707031 80.699219 C 140.859375 80.699219 144.476562 80.648438 144.476562 77.6875 C 144.476562 74.609375 139.894531 73.917969 139.847656 73.914062 C 139.4375 73.851562 139.152344 73.472656 139.210938 73.058594 C 139.269531 72.648438 139.652344 72.363281 140.0625 72.421875 C 140.304688 72.453125 145.984375 73.316406 145.984375 77.6875 C 145.984375 81.261719 142.53125 82.207031 140.707031 82.207031 Z M 123.371094 82.339844 C 121.890625 86.25 125.230469 92.910156 132.421875 93.507812 C 133.53125 93.601562 134.554688 93.613281 135.492188 93.554688 C 133.285156 83.148438 123.414062 82.34375 123.371094 82.339844 Z M 118.664062 71.203125 C 121.796875 69.945312 123.574219 71.074219 123.660156 71.128906 C 124.003906 71.363281 124.46875 71.273438 124.703125 70.933594 C 124.941406 70.59375 124.855469 70.125 124.511719 69.886719 C 124.414062 69.816406 122.046875 68.222656 118.101562 69.804688 C 117.714844 69.960938 117.527344 70.398438 117.683594 70.785156 C 117.800781 71.082031 118.085938 71.257812 118.382812 71.257812 C 118.476562 71.257812 118.570312 71.242188 118.664062 71.203125 Z M 151.320312 71.195312 C 153.96875 70.011719 154.832031 70.90625 154.878906 70.957031 C 155.121094 71.28125 155.578125 71.355469 155.914062 71.125 C 156.253906 70.886719 156.339844 70.417969 156.101562 70.074219 C 155.957031 69.867188 154.578125 68.089844 150.703125 69.816406 C 150.324219 69.988281 150.152344 70.433594 150.324219 70.8125 C 150.449219 71.09375 150.722656 71.257812 151.011719 71.257812 C 151.113281 71.257812 151.21875 71.238281 151.320312 71.195312 Z M 151.320312 71.195312 " fill-opacity="1" fill-rule="nonzero"/><path fill="#eae8e5" d="M 142.664062 84.78125 C 141.875 85.488281 139.46875 87.015625 134.679688 85.222656 C 128.667969 82.964844 128.125 79.316406 128.121094 79.300781 C 131.210938 79.136719 132.191406 81.933594 134.800781 82.800781 C 138.433594 84.015625 140.976562 82.953125 142.664062 84.78125 Z M 142.664062 84.78125 C 141.875 85.488281 139.46875 87.015625 134.679688 85.222656 C 128.667969 82.964844 128.125 79.316406 128.121094 79.300781 C 131.210938 79.136719 132.191406 81.933594 134.800781 82.800781 C 138.433594 84.015625 140.976562 82.953125 142.664062 84.78125 Z M 142.664062 84.78125 " fill-opacity="1" fill-rule="nonzero"/></svg>