<svg xmlns="http://www.w3.org/2000/svg" xmlns:xlink="http://www.w3.org/1999/xlink" width="350" zoomAndPan="magnify" viewBox="0 0 262.5 262.500001" height="350" preserveAspectRatio="xMidYMid meet" version="1.0"><defs><clipPath id="d0e9716d03"><path d="M 207 241 L 230 241 L 230 251.921875 L 207 251.921875 Z M 207 241 " clip-rule="nonzero"/></clipPath></defs><path fill="#9f2a22" d="M 216.707031 197.667969 C 215.925781 195.3125 214.675781 193.039062 212.792969 191.382812 C 212.445312 191.078125 212.027344 190.753906 211.5625 190.457031 C 211.496094 190.394531 211.417969 190.34375 211.335938 190.316406 C 209.949219 189.472656 208.222656 188.917969 206.890625 189.816406 C 204.992188 191.09375 207.199219 193.542969 208.679688 193.976562 C 210.039062 194.375 211.457031 193.71875 211.925781 192.636719 C 212.242188 192.925781 212.535156 193.238281 212.808594 193.5625 C 215.921875 197.238281 216.816406 202.949219 216.515625 207.601562 C 216.453125 208.574219 217.96875 208.570312 218.03125 207.601562 C 218.246094 204.277344 217.761719 200.824219 216.707031 197.667969 Z M 218.84375 208.996094 C 218.90625 209.964844 220.421875 209.96875 220.359375 208.996094 C 220.058594 204.34375 220.953125 198.628906 224.0625 194.957031 C 224.339844 194.632812 224.632812 194.320312 224.949219 194.027344 C 225.417969 195.109375 226.835938 195.769531 228.195312 195.371094 C 229.675781 194.9375 231.882812 192.488281 229.984375 191.207031 C 228.652344 190.308594 226.925781 190.867188 225.535156 191.707031 C 225.457031 191.738281 225.378906 191.785156 225.308594 191.851562 C 224.847656 192.148438 224.429688 192.472656 224.082031 192.777344 C 222.199219 194.433594 220.949219 196.707031 220.167969 199.058594 C 219.113281 202.21875 218.628906 205.671875 218.84375 208.996094 Z M 218.84375 208.996094 " fill-opacity="1" fill-rule="nonzero"/><g clip-path="url(#d0e9716d03)"><path fill="#c13e27" d="M 213.082031 241.773438 C 213.082031 241.773438 212.984375 251.925781 210.058594 251.925781 C 207.132812 251.925781 207.863281 241.773438 207.863281 241.773438 Z M 224.503906 241.773438 C 224.503906 241.773438 224.605469 251.925781 227.527344 251.925781 C 230.453125 251.925781 229.722656 241.773438 229.722656 241.773438 Z M 224.503906 241.773438 " fill-opacity="1" fill-rule="nonzero"/></g><path fill="#e25026" d="M 242.667969 223.601562 C 242.863281 224.117188 243.046875 224.648438 243.214844 225.191406 C 247.792969 239.914062 239.828125 242.449219 233.554688 243.128906 C 227.285156 243.804688 218.792969 243.804688 218.792969 243.804688 C 218.792969 243.804688 210.300781 243.804688 204.03125 243.128906 C 197.761719 242.449219 189.796875 239.914062 194.371094 225.191406 C 194.539062 224.648438 194.722656 224.117188 194.921875 223.601562 C 187.289062 220.457031 185.449219 215.671875 187.378906 214.566406 C 189.046875 213.609375 195.039062 217.617188 197.148438 219.09375 C 198.148438 217.472656 199.289062 216.011719 200.511719 214.710938 C 200.007812 214.363281 199.546875 213.960938 199.152344 213.507812 C 198.113281 212.316406 196.972656 210.183594 197.441406 206.789062 C 197.796875 204.230469 198.9375 202.175781 200.746094 200.847656 C 202.648438 199.449219 204.804688 199.15625 206.28125 199.15625 C 206.640625 199.15625 207.007812 199.171875 207.367188 199.207031 C 209.882812 199.453125 212.015625 200.550781 213.367188 202.296875 C 214.179688 203.339844 214.683594 204.585938 214.882812 205.980469 C 216.503906 205.523438 217.867188 205.3125 218.792969 205.3125 C 219.722656 205.3125 221.082031 205.523438 222.707031 205.980469 C 222.902344 204.585938 223.410156 203.339844 224.21875 202.296875 C 225.570312 200.550781 227.703125 199.453125 230.21875 199.207031 C 230.578125 199.171875 230.945312 199.15625 231.308594 199.15625 C 232.78125 199.15625 234.941406 199.449219 236.84375 200.847656 C 238.648438 202.175781 239.789062 204.230469 240.144531 206.789062 C 240.617188 210.183594 239.472656 212.316406 238.433594 213.507812 C 238.039062 213.960938 237.582031 214.359375 237.078125 214.710938 C 238.300781 216.011719 239.4375 217.472656 240.4375 219.09375 C 242.546875 217.617188 248.539062 213.609375 250.207031 214.566406 C 252.136719 215.671875 250.296875 220.457031 242.667969 223.601562 Z M 242.667969 223.601562 C 242.863281 224.117188 243.046875 224.648438 243.214844 225.191406 C 247.792969 239.914062 239.828125 242.449219 233.554688 243.128906 C 227.285156 243.804688 218.792969 243.804688 218.792969 243.804688 C 218.792969 243.804688 210.300781 243.804688 204.03125 243.128906 C 197.761719 242.449219 189.796875 239.914062 194.371094 225.191406 C 194.539062 224.648438 194.722656 224.117188 194.921875 223.601562 C 187.289062 220.457031 185.449219 215.671875 187.378906 214.566406 C 189.046875 213.609375 195.039062 217.617188 197.148438 219.09375 C 198.148438 217.472656 199.289062 216.011719 200.511719 214.710938 C 200.007812 214.363281 199.546875 213.960938 199.152344 213.507812 C 198.113281 212.316406 196.972656 210.183594 197.441406 206.789062 C 197.796875 204.230469 198.9375 202.175781 200.746094 200.847656 C 202.648438 199.449219 204.804688 199.15625 206.28125 199.15625 C 206.640625 199.15625 207.007812 199.171875 207.367188 199.207031 C 209.882812 199.453125 212.015625 200.550781 213.367188 202.296875 C 214.179688 203.339844 214.683594 204.585938 214.882812 205.980469 C 216.503906 205.523438 217.867188 205.3125 218.792969 205.3125 C 219.722656 205.3125 221.082031 205.523438 222.707031 205.980469 C 222.902344 204.585938 223.410156 203.339844 224.21875 202.296875 C 225.570312 200.550781 227.703125 199.453125 230.21875 199.207031 C 230.578125 199.171875 230.945312 199.15625 231.308594 199.15625 C 232.78125 199.15625 234.941406 199.449219 236.84375 200.847656 C 238.648438 202.175781 239.789062 204.230469 240.144531 206.789062 C 240.617188 210.183594 239.472656 212.316406 238.433594 213.507812 C 238.039062 213.960938 237.582031 214.359375 237.078125 214.710938 C 238.300781 216.011719 239.4375 217.472656 240.4375 219.09375 C 242.546875 217.617188 248.539062 213.609375 250.207031 214.566406 C 252.136719 215.671875 250.296875 220.457031 242.667969 223.601562 Z M 242.667969 223.601562 " fill-opacity="1" fill-rule="nonzero"/><path fill="#ffffff" d="M 205.550781 215.136719 C 201.925781 215.171875 197.714844 212.714844 198.515625 206.9375 C 199.273438 201.464844 203.648438 199.929688 207.261719 200.285156 C 211.316406 200.679688 214.609375 203.589844 213.761719 208.964844 C 212.980469 213.925781 208.71875 215.101562 205.550781 215.136719 Z M 223.824219 208.964844 C 222.980469 203.589844 226.269531 200.679688 230.324219 200.285156 C 233.9375 199.929688 238.316406 201.464844 239.074219 206.9375 C 239.875 212.714844 235.660156 215.171875 232.035156 215.136719 C 228.867188 215.101562 224.605469 213.925781 223.824219 208.964844 Z M 223.824219 208.964844 " fill-opacity="1" fill-rule="nonzero"/><path fill="#0e0f1a" d="M 205.691406 213.089844 C 205.515625 213.070312 205.34375 213.046875 205.179688 213.015625 C 203.039062 212.625 200.613281 211.394531 201.101562 207.191406 C 201.609375 202.8125 204.546875 202.078125 206.933594 202.3125 C 209.613281 202.574219 211.671875 205.007812 211.070312 208.910156 C 210.519531 212.511719 207.773438 213.292969 205.691406 213.089844 Z M 226.515625 208.910156 C 225.914062 205.007812 227.976562 202.574219 230.652344 202.3125 C 233.039062 202.078125 235.976562 202.8125 236.484375 207.191406 C 236.972656 211.394531 234.546875 212.625 232.40625 213.015625 C 232.242188 213.046875 232.070312 213.070312 231.894531 213.089844 C 229.8125 213.292969 227.066406 212.511719 226.515625 208.910156 Z M 214.667969 214.277344 C 212.921875 215.257812 213.351562 221.308594 218.683594 221.308594 C 224.015625 221.308594 224.9375 214.933594 222.699219 214.277344 C 220.460938 213.621094 219.78125 215.246094 218.773438 215.214844 C 217.71875 215.183594 216.777344 213.09375 214.667969 214.277344 Z M 214.667969 214.277344 " fill-opacity="1" fill-rule="nonzero"/><path fill="#9f2a22" d="M 196.117188 218.882812 C 196.398438 218.402344 197.148438 218.835938 196.863281 219.320312 C 196.148438 220.535156 195.605469 221.835938 195.238281 223.199219 C 195.089844 223.734375 194.253906 223.507812 194.402344 222.96875 C 194.785156 221.539062 195.367188 220.160156 196.117188 218.882812 Z M 240.328125 219.167969 C 241.15625 220.449219 241.882812 221.863281 242.34375 223.320312 C 242.511719 223.847656 243.347656 223.621094 243.179688 223.089844 C 242.695312 221.5625 241.945312 220.074219 241.078125 218.730469 C 240.777344 218.265625 240.027344 218.695312 240.328125 219.167969 Z M 240.328125 219.167969 " fill-opacity="1" fill-rule="nonzero"/><path fill="#9f2a22" d="M 239.25 232.734375 C 237.414062 232.996094 236.289062 232.113281 236.183594 230.964844 C 236.089844 229.941406 236.453125 228.679688 238.511719 228.457031 C 240.484375 228.242188 241.046875 229.28125 241.214844 230.199219 C 241.226562 230.269531 241.238281 230.34375 241.246094 230.421875 C 241.324219 231.3125 240.941406 232.492188 239.25 232.734375 Z M 244.066406 236.472656 C 242.707031 235.625 240.949219 235.496094 239.382812 235.652344 C 236.148438 235.972656 233.609375 238.457031 234.246094 242.355469 C 234.285156 242.59375 234.335938 242.8125 234.398438 243.027344 C 238.308594 242.5 242.621094 241.101562 244.066406 236.472656 Z M 232.320312 236.359375 C 233.335938 235.597656 231.472656 233.90625 230.457031 235.007812 C 229.4375 236.105469 229.949219 238.136719 232.320312 236.359375 Z M 209.617188 217.640625 C 208.855469 216.625 207.160156 218.488281 208.261719 219.503906 C 209.363281 220.519531 211.398438 220.011719 209.617188 217.640625 Z M 196.929688 233.484375 C 199.078125 231.050781 199.355469 224.855469 195.359375 224.113281 C 195.136719 224.070312 195.050781 223.800781 194.90625 223.644531 C 194.714844 224.148438 194.535156 224.664062 194.371094 225.191406 C 193.082031 229.335938 192.789062 232.511719 193.171875 234.957031 C 194.359375 235.117188 195.660156 234.914062 196.929688 233.484375 Z M 202.097656 237.742188 C 200.433594 238.550781 199.089844 238.054688 198.640625 236.992188 C 198.234375 236.046875 198.195312 234.734375 200.085938 233.894531 C 201.898438 233.085938 202.753906 233.90625 203.195312 234.730469 C 203.230469 234.792969 203.261719 234.859375 203.289062 234.929688 C 203.640625 235.753906 203.636719 236.992188 202.097656 237.742188 Z M 202.097656 237.742188 " fill-opacity="0.4" fill-rule="nonzero"/></svg>