<svg xmlns="http://www.w3.org/2000/svg" xmlns:xlink="http://www.w3.org/1999/xlink" width="350" zoomAndPan="magnify" viewBox="0 0 262.5 262.500001" height="350" preserveAspectRatio="xMidYMid meet" version="1.0"><path fill="#cd7e64" d="M 199.402344 216.695312 C 199.402344 216.695312 189.378906 220.191406 186.300781 212.71875 C 183.226562 205.246094 186.539062 198.011719 188.433594 197.773438 C 190.328125 197.539062 192.300781 204.460938 193.851562 206.269531 C 195.398438 208.078125 199.402344 207.292969 199.402344 207.292969 Z M 213.191406 202.003906 C 213.191406 202.003906 209.3125 200.75 208.839844 198.421875 C 208.367188 196.089844 210.015625 189.082031 208.246094 188.371094 C 206.472656 187.660156 200.050781 192.378906 199.097656 200.402344 C 198.144531 208.421875 208.609375 210.21875 208.609375 210.21875 Z M 238.300781 216.695312 C 238.300781 216.695312 248.324219 220.191406 251.398438 212.71875 C 254.476562 205.246094 251.164062 198.011719 249.269531 197.773438 C 247.375 197.539062 245.402344 204.460938 243.851562 206.269531 C 242.300781 208.078125 238.300781 207.292969 238.300781 207.292969 Z M 229.09375 210.21875 C 229.09375 210.21875 239.558594 208.421875 238.605469 200.402344 C 237.652344 192.378906 231.226562 187.660156 229.457031 188.371094 C 227.6875 189.082031 229.335938 196.089844 228.863281 198.421875 C 228.390625 200.75 224.511719 202.003906 224.511719 202.003906 Z M 229.09375 210.21875 " fill-opacity="1" fill-rule="nonzero"/><path fill="#f1a987" d="M 240.738281 222.480469 C 239.792969 229.527344 237.796875 237.011719 234.863281 242.515625 C 237.71875 244.707031 239.914062 247.878906 234.316406 245.800781 C 235.632812 249.847656 232.800781 248.972656 230.101562 245.800781 C 227.507812 250.503906 226.632812 247.113281 226.519531 244.484375 C 226.410156 241.859375 225.332031 237.15625 220.769531 237.15625 C 220.320312 237.15625 219.765625 237.15625 219.304688 237.15625 C 219.304688 237.15625 218.910156 237.15625 218.398438 237.15625 C 217.9375 237.15625 217.382812 237.15625 216.933594 237.15625 C 212.371094 237.15625 211.292969 241.859375 211.179688 244.484375 C 211.070312 247.113281 210.195312 250.503906 207.601562 245.800781 C 204.902344 248.972656 202.070312 249.847656 203.386719 245.800781 C 197.789062 247.878906 199.984375 244.707031 202.839844 242.515625 C 199.921875 237.042969 197.933594 229.617188 196.980469 222.605469 C 196.164062 222.339844 195.324219 221.914062 194.566406 221.246094 C 193.167969 220.007812 192.414062 218.246094 192.332031 216.007812 C 192.195312 212.421875 193.507812 210.28125 194.632812 209.117188 C 195.257812 208.472656 195.988281 207.964844 196.785156 207.605469 C 197.144531 205.472656 197.734375 203.800781 198.558594 202.804688 C 201.035156 199.816406 206.605469 198.296875 211.390625 197.550781 C 212.664062 192.808594 216.660156 191.453125 219.941406 191.800781 C 222.074219 192.027344 223.914062 193.003906 225.117188 194.550781 C 225.792969 195.414062 226.253906 196.4375 226.5 197.582031 C 231.242188 198.335938 236.699219 199.855469 239.144531 202.804688 C 239.949219 203.777344 240.53125 205.394531 240.894531 207.460938 C 241.65625 207.726562 242.433594 208.136719 243.132812 208.753906 C 244.535156 209.992188 245.289062 211.757812 245.371094 213.992188 C 245.507812 217.582031 244.191406 219.722656 243.066406 220.886719 C 242.398438 221.582031 241.605469 222.117188 240.738281 222.480469 Z M 240.738281 222.480469 C 239.792969 229.527344 237.796875 237.011719 234.863281 242.515625 C 237.71875 244.707031 239.914062 247.878906 234.316406 245.800781 C 235.632812 249.847656 232.800781 248.972656 230.101562 245.800781 C 227.507812 250.503906 226.632812 247.113281 226.519531 244.484375 C 226.410156 241.859375 225.332031 237.15625 220.769531 237.15625 C 220.320312 237.15625 219.765625 237.15625 219.304688 237.15625 C 219.304688 237.15625 218.910156 237.15625 218.398438 237.15625 C 217.9375 237.15625 217.382812 237.15625 216.933594 237.15625 C 212.371094 237.15625 211.292969 241.859375 211.179688 244.484375 C 211.070312 247.113281 210.195312 250.503906 207.601562 245.800781 C 204.902344 248.972656 202.070312 249.847656 203.386719 245.800781 C 197.789062 247.878906 199.984375 244.707031 202.839844 242.515625 C 199.921875 237.042969 197.933594 229.617188 196.980469 222.605469 C 196.164062 222.339844 195.324219 221.914062 194.566406 221.246094 C 193.167969 220.007812 192.414062 218.246094 192.332031 216.007812 C 192.195312 212.421875 193.507812 210.28125 194.632812 209.117188 C 195.257812 208.472656 195.988281 207.964844 196.785156 207.605469 C 197.144531 205.472656 197.734375 203.800781 198.558594 202.804688 C 201.035156 199.816406 206.605469 198.296875 211.390625 197.550781 C 212.664062 192.808594 216.660156 191.453125 219.941406 191.800781 C 222.074219 192.027344 223.914062 193.003906 225.117188 194.550781 C 225.792969 195.414062 226.253906 196.4375 226.5 197.582031 C 231.242188 198.335938 236.699219 199.855469 239.144531 202.804688 C 239.949219 203.777344 240.53125 205.394531 240.894531 207.460938 C 241.65625 207.726562 242.433594 208.136719 243.132812 208.753906 C 244.535156 209.992188 245.289062 211.757812 245.371094 213.992188 C 245.507812 217.582031 244.191406 219.722656 243.066406 220.886719 C 242.398438 221.582031 241.605469 222.117188 240.738281 222.480469 Z M 240.738281 222.480469 " fill-opacity="1" fill-rule="nonzero"/><path fill="#0e0f1a" d="M 205.265625 214.988281 C 205.265625 219.53125 203.128906 220.605469 201.074219 220.800781 C 199.046875 220.992188 196.125 220.03125 195.984375 215.796875 C 195.847656 211.566406 198.046875 209.179688 200.59375 209.179688 C 202.859375 209.179688 205.265625 210.257812 205.265625 214.988281 Z M 237.109375 220.824219 C 239.65625 220.824219 241.855469 218.4375 241.714844 214.203125 C 241.578125 209.972656 238.65625 209.011719 236.628906 209.203125 C 234.574219 209.398438 232.4375 210.472656 232.4375 215.011719 C 232.4375 219.746094 234.84375 220.824219 237.109375 220.824219 Z M 218.285156 206.027344 C 218.101562 206.007812 217.925781 205.980469 217.753906 205.945312 C 215.523438 205.5 212.996094 204.105469 213.503906 199.351562 C 214.035156 194.394531 217.09375 193.566406 219.582031 193.832031 C 222.371094 194.128906 224.515625 196.882812 223.890625 201.296875 C 223.3125 205.371094 220.453125 206.253906 218.285156 206.027344 Z M 224.894531 216.171875 C 226.167969 217.246094 225.265625 221.394531 219.265625 221.738281 C 213.046875 222.089844 210.925781 217.117188 212.976562 216.0625 C 215.027344 215.003906 216.582031 217.40625 218.847656 217.40625 C 221.265625 217.40625 223.511719 215 224.894531 216.171875 Z M 224.894531 216.171875 " fill-opacity="1" fill-rule="nonzero"/><path fill="#ffffff" d="M 199.714844 207.886719 C 196.136719 207.886719 193.042969 210.800781 193.238281 215.976562 C 193.429688 221.148438 197.539062 222.324219 200.390625 222.089844 C 203.28125 221.851562 206.289062 220.539062 206.289062 214.988281 C 206.289062 209.203125 202.90625 207.886719 199.714844 207.886719 Z M 201.074219 220.125 C 199.285156 220.292969 196.703125 219.445312 196.582031 215.707031 C 196.460938 211.964844 198.402344 209.859375 200.648438 209.859375 C 202.652344 209.859375 204.777344 210.8125 204.777344 214.992188 C 204.777344 219 202.890625 219.953125 201.074219 220.125 Z M 244.464844 214.027344 C 244.273438 208.855469 240.164062 207.679688 237.3125 207.914062 C 234.421875 208.152344 231.414062 209.464844 231.414062 215.015625 C 231.414062 220.800781 234.796875 222.117188 237.988281 222.117188 C 241.566406 222.117188 244.660156 219.203125 244.464844 214.027344 Z M 237.160156 220.144531 C 235.160156 220.144531 233.035156 219.191406 233.035156 215.011719 C 233.035156 211 234.921875 210.050781 236.738281 209.878906 C 238.527344 209.710938 241.109375 210.558594 241.230469 214.296875 C 241.351562 218.035156 239.410156 220.144531 237.160156 220.144531 Z M 219.84375 192.699219 C 216.601562 192.355469 212.675781 193.851562 211.996094 199.183594 C 211.277344 204.816406 215.058594 207.210938 218.304688 207.171875 C 221.148438 207.140625 224.972656 205.992188 225.671875 201.160156 C 226.433594 195.921875 223.480469 193.085938 219.84375 192.699219 Z M 223.261719 201.109375 C 222.765625 204.613281 220.300781 205.375 218.433594 205.179688 C 218.277344 205.160156 218.121094 205.136719 217.976562 205.109375 C 216.054688 204.726562 213.878906 203.527344 214.316406 199.433594 C 214.773438 195.164062 217.40625 194.449219 219.550781 194.675781 C 221.949219 194.933594 223.796875 197.304688 223.261719 201.109375 Z M 224.277344 215.863281 C 224.277344 215.863281 223.738281 215.664062 222.535156 216.269531 C 223.078125 217.890625 223.863281 218.566406 224.277344 215.863281 Z M 213.894531 215.792969 C 213.894531 215.792969 214.484375 215.617188 215.691406 216.226562 C 215.148438 217.84375 214.308594 218.496094 213.894531 215.792969 Z M 213.894531 215.792969 " fill-opacity="1" fill-rule="nonzero"/><path fill="#b25c44" d="M 207.582031 236.394531 C 207.285156 236.449219 206.8125 236.121094 206.425781 235.796875 C 206.363281 236.496094 206.199219 237.613281 205.808594 237.515625 C 205.398438 237.417969 204.984375 236.503906 204.789062 236.007812 C 204.523438 236.375 204.152344 236.796875 203.824219 236.816406 C 203.355469 236.84375 203.496094 235.285156 203.566406 234.699219 C 203.476562 234.558594 203.402344 234.410156 203.34375 234.257812 C 203.046875 233.5 202.9375 232.636719 202.765625 231.84375 C 202.722656 231.628906 202.917969 231.421875 203.121094 231.398438 C 203.351562 231.371094 203.523438 231.535156 203.570312 231.75 C 203.644531 232.113281 203.726562 232.472656 203.804688 232.835938 C 203.890625 233.242188 203.964844 233.65625 204.125 234.039062 C 204.402344 234.691406 205.050781 235.167969 205.761719 234.871094 C 206.53125 234.546875 206.714844 233.71875 206.746094 232.964844 C 206.785156 232.019531 206.742188 231.0625 206.734375 230.113281 C 206.726562 229.136719 206.71875 228.164062 206.710938 227.191406 C 206.710938 226.972656 206.828125 226.769531 207.066406 226.742188 C 207.265625 226.71875 207.511719 226.878906 207.511719 227.097656 C 207.523438 228.382812 207.53125 229.671875 207.542969 230.960938 C 207.546875 231.511719 207.554688 232.066406 207.554688 232.617188 C 207.550781 233.144531 207.527344 233.660156 207.367188 234.164062 C 207.355469 234.199219 207.34375 234.234375 207.328125 234.273438 C 207.535156 234.824219 208.046875 236.3125 207.582031 236.394531 Z M 230.121094 236.394531 C 230.417969 236.449219 230.890625 236.121094 231.277344 235.796875 C 231.339844 236.496094 231.503906 237.613281 231.894531 237.515625 C 232.304688 237.417969 232.71875 236.503906 232.914062 236.007812 C 233.179688 236.375 233.550781 236.796875 233.878906 236.816406 C 234.347656 236.84375 234.207031 235.285156 234.136719 234.699219 C 234.222656 234.558594 234.296875 234.410156 234.359375 234.257812 C 234.65625 233.5 234.765625 232.636719 234.933594 231.84375 C 234.980469 231.628906 234.78125 231.421875 234.582031 231.398438 C 234.351562 231.371094 234.179688 231.535156 234.132812 231.75 C 234.058594 232.113281 233.976562 232.472656 233.898438 232.835938 C 233.808594 233.242188 233.738281 233.65625 233.574219 234.039062 C 233.300781 234.691406 232.652344 235.167969 231.9375 234.871094 C 231.171875 234.546875 230.988281 233.71875 230.957031 232.964844 C 230.917969 232.019531 230.960938 231.0625 230.96875 230.113281 C 230.976562 229.136719 230.984375 228.164062 230.992188 227.191406 C 230.992188 226.972656 230.871094 226.769531 230.636719 226.742188 C 230.4375 226.71875 230.191406 226.878906 230.1875 227.097656 C 230.179688 228.382812 230.171875 229.671875 230.160156 230.960938 C 230.15625 231.511719 230.148438 232.066406 230.148438 232.617188 C 230.152344 233.144531 230.175781 233.660156 230.335938 234.164062 C 230.347656 234.199219 230.359375 234.234375 230.375 234.273438 C 230.167969 234.824219 229.65625 236.3125 230.121094 236.394531 Z M 220.367188 222.921875 C 220.871094 222.78125 221.082031 223.554688 220.582031 223.699219 C 219.457031 224.019531 218.273438 224.050781 217.128906 223.800781 C 216.917969 223.753906 216.792969 223.507812 216.847656 223.304688 C 216.910156 223.089844 217.132812 222.976562 217.34375 223.023438 C 218.347656 223.242188 219.382812 223.203125 220.367188 222.921875 Z M 220.367188 222.921875 C 220.871094 222.78125 221.082031 223.554688 220.582031 223.699219 C 219.457031 224.019531 218.273438 224.050781 217.128906 223.800781 C 216.917969 223.753906 216.792969 223.507812 216.847656 223.304688 C 216.910156 223.089844 217.132812 222.976562 217.34375 223.023438 C 218.347656 223.242188 219.382812 223.203125 220.367188 222.921875 Z M 193.25 207.003906 C 193.710938 206.761719 194.117188 207.457031 193.65625 207.695312 C 191.476562 208.832031 189.945312 210.972656 189.5625 213.394531 C 189.527344 213.609375 189.257812 213.726562 189.066406 213.675781 C 188.839844 213.613281 188.75 213.394531 188.785156 213.179688 C 189.199219 210.574219 190.90625 208.222656 193.25 207.003906 Z M 190.808594 202.496094 C 189.019531 202.535156 187.3125 203.554688 186.457031 205.121094 C 186.207031 205.574219 186.902344 205.980469 187.152344 205.527344 C 187.875 204.207031 189.296875 203.332031 190.808594 203.300781 C 191.324219 203.289062 191.328125 202.484375 190.808594 202.496094 Z M 207.644531 195.792969 C 206.746094 195.566406 205.796875 195.597656 204.882812 195.738281 C 203.941406 195.882812 202.992188 196.175781 202.179688 196.679688 C 201.738281 196.953125 202.144531 197.648438 202.585938 197.375 C 203.324219 196.917969 204.171875 196.664062 205.023438 196.527344 C 205.808594 196.398438 206.652344 196.371094 207.429688 196.566406 C 207.933594 196.695312 208.148438 195.917969 207.644531 195.792969 Z M 207.949219 192.183594 C 207 191.746094 205.957031 191.535156 204.90625 191.605469 C 204.6875 191.621094 204.503906 191.78125 204.503906 192.007812 C 204.503906 192.214844 204.6875 192.425781 204.90625 192.410156 C 205.8125 192.347656 206.71875 192.496094 207.542969 192.878906 C 207.742188 192.96875 207.976562 192.933594 208.09375 192.734375 C 208.195312 192.5625 208.148438 192.277344 207.949219 192.183594 Z M 244.019531 207.695312 C 246.199219 208.832031 247.730469 210.972656 248.117188 213.394531 C 248.152344 213.609375 248.417969 213.726562 248.613281 213.675781 C 248.84375 213.609375 248.929688 213.394531 248.894531 213.179688 C 248.480469 210.574219 246.769531 208.222656 244.425781 207.003906 C 243.96875 206.761719 243.558594 207.457031 244.019531 207.695312 Z M 246.871094 203.300781 C 248.382812 203.332031 249.800781 204.207031 250.523438 205.527344 C 250.773438 205.980469 251.46875 205.574219 251.222656 205.121094 C 250.363281 203.554688 248.660156 202.535156 246.871094 202.496094 C 246.351562 202.484375 246.351562 203.289062 246.871094 203.300781 Z M 230.246094 196.566406 C 231.023438 196.371094 231.867188 196.398438 232.65625 196.527344 C 233.507812 196.664062 234.355469 196.917969 235.089844 197.375 C 235.53125 197.648438 235.9375 196.953125 235.496094 196.679688 C 234.683594 196.175781 233.734375 195.882812 232.792969 195.738281 C 231.882812 195.597656 230.933594 195.566406 230.03125 195.792969 C 229.527344 195.917969 229.742188 196.695312 230.246094 196.566406 Z M 230.132812 192.878906 C 230.960938 192.496094 231.863281 192.347656 232.773438 192.410156 C 232.988281 192.425781 233.175781 192.214844 233.175781 192.007812 C 233.175781 191.777344 232.988281 191.621094 232.773438 191.605469 C 231.722656 191.535156 230.679688 191.746094 229.726562 192.183594 C 229.53125 192.277344 229.480469 192.558594 229.582031 192.734375 C 229.703125 192.9375 229.9375 192.96875 230.132812 192.878906 Z M 230.132812 192.878906 " fill-opacity="1" fill-rule="nonzero"/><path fill="#cd7e64" d="M 234.863281 242.515625 C 237.71875 244.707031 239.914062 247.878906 234.316406 245.800781 C 235.632812 249.847656 232.800781 248.972656 230.101562 245.800781 C 227.507812 250.503906 226.632812 247.113281 226.519531 244.484375 C 226.515625 244.332031 226.503906 244.171875 226.492188 244.007812 C 230.609375 244.9375 234.863281 242.515625 234.863281 242.515625 Z M 202.835938 242.515625 C 199.984375 244.707031 197.789062 247.878906 203.386719 245.800781 C 202.070312 249.847656 204.898438 248.972656 207.601562 245.800781 C 210.191406 250.503906 211.070312 247.113281 211.179688 244.484375 C 211.1875 244.332031 211.195312 244.171875 211.210938 244.007812 C 207.089844 244.9375 202.835938 242.515625 202.835938 242.515625 Z M 193.964844 211.738281 L 206.179688 216.699219 C 206.179688 216.699219 208.023438 210.527344 202.761719 208.191406 C 199.371094 206.6875 195.199219 208.59375 193.964844 211.738281 Z M 244.035156 211.671875 L 231.507812 216.699219 C 231.507812 216.699219 229.621094 210.484375 234.9375 208.28125 C 238.667969 206.734375 243.035156 208.332031 244.035156 211.671875 Z M 244.035156 211.671875 " fill-opacity="1" fill-rule="nonzero"/><path fill="#a8644e" d="M 240.015625 226.902344 C 239.324219 230.480469 238.371094 234.042969 237.179688 237.28125 C 235.550781 236.265625 234.480469 233.546875 236.152344 230.246094 C 237.277344 228.015625 238.488281 227.328125 240.015625 226.902344 Z M 237.503906 226.402344 C 238.03125 225.347656 236.621094 223.519531 235.3125 225.355469 C 234 227.191406 236.480469 228.449219 237.503906 226.402344 Z M 198.558594 202.804688 C 198.386719 203.015625 198.222656 203.253906 198.070312 203.519531 C 198.320312 203.929688 198.65625 204.3125 199.035156 204.695312 C 200.820312 206.503906 204.460938 206.820312 207.03125 204.171875 C 209.15625 201.980469 208.832031 199.773438 207.90625 198.222656 C 204.136719 199.101562 200.445312 200.527344 198.558594 202.804688 Z M 207.824219 208.207031 C 206.917969 208 206.144531 209.40625 207.359375 209.859375 C 208.417969 210.253906 208.953125 208.46875 207.824219 208.207031 Z M 211.910156 200.726562 C 210.617188 201.136719 209.378906 202.28125 208.902344 204.222656 C 208.132812 207.375 212.539062 208.292969 214.628906 206.105469 C 213.109375 205.09375 211.964844 203.339844 211.910156 200.726562 Z M 229.863281 202.339844 C 230.210938 201.160156 228.429688 199.546875 227.425781 201.667969 C 226.421875 203.785156 229.195312 204.621094 229.863281 202.339844 Z M 213.292969 238.617188 C 212.433594 238.136719 211.332031 238.207031 210.382812 239.539062 C 209.222656 241.160156 210.042969 242.640625 211.3125 243.140625 C 211.507812 241.570312 212.261719 239.636719 213.292969 238.617188 Z M 213.292969 238.617188 " fill-opacity="0.298" fill-rule="nonzero"/></svg>