<svg xmlns="http://www.w3.org/2000/svg" xmlns:xlink="http://www.w3.org/1999/xlink" width="350" zoomAndPan="magnify" viewBox="0 0 262.5 262.500001" height="350" preserveAspectRatio="xMidYMid meet" version="1.0"><defs><clipPath id="a5cd70edff"><path d="M 212 226 L 234 226 L 234 251.859375 L 212 251.859375 Z M 212 226 " clip-rule="nonzero"/></clipPath><clipPath id="92791eba12"><path d="M 194.648438 188.859375 L 242.648438 188.859375 L 242.648438 244 L 194.648438 244 Z M 194.648438 188.859375 " clip-rule="nonzero"/></clipPath><clipPath id="ea676958f7"><path d="M 194.648438 215 L 242 215 L 242 244 L 194.648438 244 Z M 194.648438 215 " clip-rule="nonzero"/></clipPath><clipPath id="4988379bbe"><path d="M 200 203 L 242.648438 203 L 242.648438 237 L 200 237 Z M 200 203 " clip-rule="nonzero"/></clipPath></defs><g clip-path="url(#a5cd70edff)"><path fill="#1d949a" d="M 218.441406 228.5625 C 218.441406 228.5625 217.449219 231.789062 217.820312 238.074219 C 218.1875 244.367188 220.140625 246.714844 220.546875 247.890625 C 220.949219 249.070312 220.242188 251.671875 219.515625 251.550781 C 218.546875 251.390625 218.332031 249.324219 218.332031 249.324219 C 218.332031 249.324219 216.933594 251.855469 216.054688 251.660156 C 215.109375 251.449219 215.644531 249.066406 215.644531 249.066406 C 215.644531 249.066406 213.476562 250.546875 213.109375 250.117188 C 212.746094 249.691406 214.375 247.8125 214.375 247.8125 C 209.519531 237.808594 214.375 226.957031 214.375 226.957031 Z M 226.910156 228.5625 C 226.910156 228.5625 227.902344 231.789062 227.53125 238.074219 C 227.164062 244.367188 225.210938 246.714844 224.804688 247.890625 C 224.398438 249.070312 225.109375 251.671875 225.835938 251.550781 C 226.800781 251.390625 227.019531 249.324219 227.019531 249.324219 C 227.019531 249.324219 228.417969 251.855469 229.296875 251.660156 C 230.242188 251.449219 229.707031 249.066406 229.707031 249.066406 C 229.707031 249.066406 231.875 250.546875 232.242188 250.117188 C 232.605469 249.691406 230.976562 247.8125 230.976562 247.8125 C 235.832031 237.808594 230.976562 226.957031 230.976562 226.957031 Z M 226.910156 228.5625 " fill-opacity="1" fill-rule="nonzero"/></g><g clip-path="url(#92791eba12)"><path fill="#2dbcb7" d="M 242.332031 237.609375 C 242.332031 237.609375 242.335938 237.613281 242.335938 237.613281 C 241.847656 241.085938 240.585938 242.945312 240.089844 242.984375 C 239.6875 243.011719 239.789062 241.554688 239.789062 241.554688 C 239.789062 241.554688 238.785156 243.746094 238.332031 243.59375 C 237.875 243.441406 238.023438 241.199219 238.023438 241.199219 C 238.023438 241.199219 237.386719 242.488281 236.8125 242.3125 C 236.417969 242.191406 237.082031 236.75 237.082031 236.75 C 237.210938 234.660156 237.53125 232.300781 237.117188 230.582031 C 236.441406 227.765625 234.40625 226.152344 233.9375 225.808594 C 230.699219 228.347656 226.054688 228.863281 222.671875 228.863281 C 219.410156 228.863281 214.980469 228.386719 211.765625 226.082031 C 210.550781 227.320312 205.195312 230.128906 200.824219 227.855469 C 198.195312 226.492188 196.640625 224.179688 196.011719 222.019531 C 195.609375 220.90625 194.65625 216.511719 195.082031 216.496094 C 195.449219 216.484375 196.203125 217.234375 196.398438 217.4375 C 196.410156 217.421875 196.421875 217.40625 196.4375 217.394531 C 196.386719 216.972656 196.214844 215.285156 196.691406 215.230469 C 197.238281 215.171875 198.085938 216.792969 198.085938 216.792969 C 198.085938 216.792969 198.421875 215.414062 198.816406 215.414062 C 199.210938 215.414062 200.644531 219.269531 200.652344 219.289062 C 201.601562 220.898438 202.511719 222.855469 203.898438 223.792969 C 206.070312 225.257812 208.636719 224.351562 209.574219 223.929688 C 208.1875 222.039062 207.390625 219.441406 207.617188 215.894531 C 208.140625 207.699219 213.765625 204.652344 218.277344 203.589844 C 217.726562 203.054688 216.972656 202.421875 216.050781 201.871094 C 213.945312 200.609375 212.730469 199.714844 213.257812 198.820312 C 213.785156 197.925781 217.183594 198.25 220.179688 202.644531 C 219.246094 199.308594 218.234375 197.683594 217.386719 196.421875 C 216.535156 195.160156 217.628906 193.414062 219.933594 195.039062 C 222.132812 196.589844 222.601562 201.542969 222.328125 203.066406 C 222.351562 203.066406 222.371094 203.066406 222.390625 203.066406 C 223.523438 200.894531 223.9375 199.25 223.78125 195.039062 C 223.617188 190.695312 224.871094 188.859375 225.964844 188.859375 C 227.097656 188.859375 228.261719 191.679688 227.003906 197.617188 C 226.238281 200.828125 224.832031 202.644531 224.832031 202.644531 C 224.832031 202.644531 228.3125 199.144531 229.242188 196.300781 C 230.171875 193.453125 233.25 193.984375 232.238281 197.722656 C 231.574219 200.167969 229.03125 202.367188 227.109375 203.601562 C 231.613281 204.675781 237.203125 207.730469 237.722656 215.894531 C 237.933594 219.164062 237.269531 221.621094 236.082031 223.46875 C 238.054688 224.546875 241.164062 227.253906 242.054688 231.394531 C 242.5625 233.757812 242.625 235.902344 242.332031 237.609375 Z M 242.332031 237.609375 C 242.332031 237.609375 242.335938 237.613281 242.335938 237.613281 C 241.847656 241.085938 240.585938 242.945312 240.089844 242.984375 C 239.6875 243.011719 239.789062 241.554688 239.789062 241.554688 C 239.789062 241.554688 238.785156 243.746094 238.332031 243.59375 C 237.875 243.441406 238.023438 241.199219 238.023438 241.199219 C 238.023438 241.199219 237.386719 242.488281 236.8125 242.3125 C 236.417969 242.191406 237.082031 236.75 237.082031 236.75 C 237.210938 234.660156 237.53125 232.300781 237.117188 230.582031 C 236.441406 227.765625 234.40625 226.152344 233.9375 225.808594 C 230.699219 228.347656 226.054688 228.863281 222.671875 228.863281 C 219.410156 228.863281 214.980469 228.386719 211.765625 226.082031 C 210.550781 227.320312 205.195312 230.128906 200.824219 227.855469 C 198.195312 226.492188 196.640625 224.179688 196.011719 222.019531 C 195.609375 220.90625 194.65625 216.511719 195.082031 216.496094 C 195.449219 216.484375 196.203125 217.234375 196.398438 217.4375 C 196.410156 217.421875 196.421875 217.40625 196.4375 217.394531 C 196.386719 216.972656 196.214844 215.285156 196.691406 215.230469 C 197.238281 215.171875 198.085938 216.792969 198.085938 216.792969 C 198.085938 216.792969 198.421875 215.414062 198.816406 215.414062 C 199.210938 215.414062 200.644531 219.269531 200.652344 219.289062 C 201.601562 220.898438 202.511719 222.855469 203.898438 223.792969 C 206.070312 225.257812 208.636719 224.351562 209.574219 223.929688 C 208.1875 222.039062 207.390625 219.441406 207.617188 215.894531 C 208.140625 207.699219 213.765625 204.652344 218.277344 203.589844 C 217.726562 203.054688 216.972656 202.421875 216.050781 201.871094 C 213.945312 200.609375 212.730469 199.714844 213.257812 198.820312 C 213.785156 197.925781 217.183594 198.25 220.179688 202.644531 C 219.246094 199.308594 218.234375 197.683594 217.386719 196.421875 C 216.535156 195.160156 217.628906 193.414062 219.933594 195.039062 C 222.132812 196.589844 222.601562 201.542969 222.328125 203.066406 C 222.351562 203.066406 222.371094 203.066406 222.390625 203.066406 C 223.523438 200.894531 223.9375 199.25 223.78125 195.039062 C 223.617188 190.695312 224.871094 188.859375 225.964844 188.859375 C 227.097656 188.859375 228.261719 191.679688 227.003906 197.617188 C 226.238281 200.828125 224.832031 202.644531 224.832031 202.644531 C 224.832031 202.644531 228.3125 199.144531 229.242188 196.300781 C 230.171875 193.453125 233.25 193.984375 232.238281 197.722656 C 231.574219 200.167969 229.03125 202.367188 227.109375 203.601562 C 231.613281 204.675781 237.203125 207.730469 237.722656 215.894531 C 237.933594 219.164062 237.269531 221.621094 236.082031 223.46875 C 238.054688 224.546875 241.164062 227.253906 242.054688 231.394531 C 242.5625 233.757812 242.625 235.902344 242.332031 237.609375 Z M 208.621094 207.644531 C 207.117188 207.644531 205.71875 208.238281 204.6875 209.3125 C 203.824219 210.214844 202.8125 211.867188 202.914062 214.628906 C 203.003906 216.992188 204.070312 218.285156 204.949219 218.953125 C 205.917969 219.6875 207.222656 220.09375 208.613281 220.09375 C 208.808594 220.09375 209.003906 220.085938 209.195312 220.070312 C 210.710938 219.945312 211.867188 219.480469 212.734375 218.65625 C 213.839844 217.605469 214.398438 215.992188 214.398438 213.859375 C 214.398438 209.851562 212.347656 207.644531 208.621094 207.644531 Z M 242.546875 213.109375 C 242.460938 210.746094 241.390625 209.453125 240.511719 208.785156 C 239.542969 208.050781 238.242188 207.644531 236.847656 207.644531 C 236.652344 207.644531 236.457031 207.652344 236.265625 207.667969 C 234.75 207.792969 233.59375 208.257812 232.730469 209.082031 C 231.625 210.132812 231.0625 211.75 231.0625 213.878906 C 231.0625 217.886719 233.117188 220.09375 236.839844 220.09375 C 238.347656 220.09375 239.742188 219.5 240.773438 218.425781 C 241.640625 217.523438 242.648438 215.871094 242.546875 213.109375 Z M 242.546875 213.109375 " fill-opacity="1" fill-rule="nonzero"/></g><path fill="#0e0f1a" d="M 212.78125 213.859375 C 212.78125 217.234375 211.203125 218.035156 209.6875 218.179688 C 208.191406 218.324219 206.039062 217.609375 205.9375 214.460938 C 205.835938 211.316406 207.457031 209.542969 209.332031 209.542969 C 211.003906 209.542969 212.78125 210.34375 212.78125 213.859375 Z M 236.257812 218.195312 C 238.132812 218.195312 239.757812 216.421875 239.65625 213.277344 C 239.554688 210.128906 237.398438 209.414062 235.902344 209.558594 C 234.390625 209.703125 232.8125 210.503906 232.8125 213.878906 C 232.8125 217.394531 234.585938 218.195312 236.257812 218.195312 Z M 218.449219 216.238281 C 216.671875 216.945312 218.84375 221.300781 222.535156 221.300781 C 227.324219 221.300781 228.890625 216.589844 226.613281 216.117188 C 224.335938 215.644531 220.59375 215.386719 218.449219 216.238281 Z M 218.449219 216.238281 " fill-opacity="1" fill-rule="nonzero"/><path fill="#ffffff" d="M 208.621094 208.578125 C 205.984375 208.578125 203.703125 210.746094 203.847656 214.59375 C 203.988281 218.4375 207.019531 219.3125 209.121094 219.136719 C 211.25 218.960938 213.46875 217.984375 213.46875 213.859375 C 213.46875 209.558594 210.972656 208.578125 208.621094 208.578125 Z M 209.625 217.675781 C 208.304688 217.804688 206.402344 217.171875 206.3125 214.390625 C 206.222656 211.613281 207.65625 210.046875 209.3125 210.046875 C 210.789062 210.046875 212.355469 210.753906 212.355469 213.863281 C 212.355469 216.84375 210.964844 217.546875 209.625 217.675781 Z M 241.617188 213.144531 C 241.472656 209.300781 238.445312 208.425781 236.34375 208.601562 C 234.210938 208.777344 231.996094 209.753906 231.996094 213.878906 C 231.996094 218.179688 234.488281 219.160156 236.839844 219.160156 C 239.476562 219.160156 241.757812 216.992188 241.617188 213.144531 Z M 236.230469 217.691406 C 234.753906 217.691406 233.1875 216.984375 233.1875 213.875 C 233.1875 210.894531 234.582031 210.191406 235.917969 210.0625 C 237.238281 209.9375 239.140625 210.566406 239.230469 213.347656 C 239.320312 216.125 237.886719 217.691406 236.230469 217.691406 Z M 225.066406 215.859375 C 225.066406 215.859375 225.402344 217.621094 225.917969 217.722656 C 226.433594 217.824219 226.988281 216.234375 226.988281 216.234375 C 226.988281 216.234375 226.324219 215.90625 225.066406 215.859375 Z M 225.066406 215.859375 " fill-opacity="1" fill-rule="nonzero"/><g clip-path="url(#ea676958f7)"><path fill="#1d949a" d="M 241.644531 240.539062 C 241.089844 242.121094 240.421875 242.957031 240.089844 242.984375 C 239.6875 243.011719 239.789062 241.554688 239.789062 241.554688 C 239.789062 241.554688 238.785156 243.746094 238.332031 243.59375 C 237.875 243.441406 238.023438 241.199219 238.023438 241.199219 C 238.023438 241.199219 237.386719 242.488281 236.8125 242.3125 C 236.585938 242.242188 236.710938 240.390625 236.859375 238.84375 Z M 198.816406 215.414062 C 198.421875 215.414062 198.085938 216.792969 198.085938 216.792969 C 198.085938 216.792969 197.238281 215.171875 196.691406 215.230469 C 196.214844 215.285156 196.386719 216.972656 196.4375 217.394531 C 196.421875 217.40625 196.410156 217.421875 196.398438 217.4375 C 196.203125 217.234375 195.449219 216.484375 195.082031 216.496094 C 194.820312 216.507812 195.078125 218.160156 195.410156 219.699219 L 200.039062 217.726562 C 199.59375 216.652344 199.039062 215.414062 198.816406 215.414062 Z M 198.816406 215.414062 " fill-opacity="1" fill-rule="nonzero"/></g><g clip-path="url(#4988379bbe)"><path fill="#175c71" d="M 234.308594 207.484375 C 234.195312 207.679688 234.0625 207.863281 233.917969 208.035156 C 233.101562 209.011719 231.046875 209.8125 229.136719 207.972656 C 227.625 206.523438 227.476562 204.980469 228.035156 203.847656 C 230.1875 204.476562 232.484375 205.585938 234.308594 207.484375 Z M 227.371094 209.921875 C 227.902344 209.457031 228.574219 209.433594 229.210938 210.164062 C 229.816406 210.855469 229.601562 211.445312 229.175781 211.804688 C 228.695312 212.207031 228.0625 212.316406 227.347656 211.617188 C 226.75 211.03125 227.007812 210.242188 227.371094 209.921875 Z M 210.871094 221.269531 C 210.773438 220.859375 210.945312 220.496094 211.507812 220.363281 C 212.035156 220.234375 212.285156 220.511719 212.355469 220.835938 C 212.4375 221.199219 212.316406 221.566406 211.753906 221.75 C 211.28125 221.90625 210.9375 221.550781 210.871094 221.269531 Z M 222.671875 228.863281 C 222.828125 228.863281 222.988281 228.863281 223.148438 228.859375 C 223.324219 227.304688 222.148438 225.652344 219.589844 224.960938 C 216.757812 224.199219 215.539062 225.941406 215.261719 227.328125 C 215.230469 227.480469 215.207031 227.632812 215.191406 227.792969 C 217.726562 228.644531 220.464844 228.863281 222.671875 228.863281 Z M 242.054688 231.394531 C 241.953125 230.917969 241.816406 230.460938 241.660156 230.023438 C 239.988281 230.75 239.394531 232.667969 239.726562 234.0625 C 239.953125 235.007812 241.007812 236.167969 242.496094 235.988281 C 242.546875 234.617188 242.414062 233.058594 242.054688 231.394531 Z M 203.898438 223.792969 C 203.015625 223.195312 202.328125 222.1875 201.699219 221.117188 C 201.46875 221.175781 201.257812 221.308594 201.0625 221.523438 C 200.484375 222.152344 200.109375 223.519531 201.160156 224.453125 C 202.269531 225.433594 203.707031 225.121094 204.421875 224.308594 C 204.464844 224.261719 204.503906 224.207031 204.535156 224.148438 C 204.320312 224.046875 204.109375 223.933594 203.898438 223.792969 Z M 203.898438 223.792969 " fill-opacity="0.2" fill-rule="nonzero"/></g><path fill="#175c71" d="M 232.414062 231.601562 C 230.765625 231.75 229.09375 232.007812 227.511719 232.511719 C 227.496094 232.292969 227.480469 232.082031 227.460938 231.882812 C 229.019531 231.402344 230.648438 231.144531 232.273438 230.992188 C 232.320312 231.191406 232.371094 231.394531 232.414062 231.601562 Z M 232.980469 235.070312 C 231.175781 235.144531 229.371094 235.390625 227.613281 235.769531 C 227.609375 235.976562 227.605469 236.1875 227.601562 236.402344 C 229.378906 236.003906 231.199219 235.777344 233.007812 235.699219 C 233.019531 235.695312 233.03125 235.695312 233.039062 235.695312 C 233.023438 235.484375 233.003906 235.277344 232.980469 235.070312 Z M 227.335938 240.175781 C 227.308594 240.386719 227.277344 240.59375 227.246094 240.796875 C 229.148438 240.800781 231.054688 240.863281 232.953125 240.984375 C 232.980469 240.777344 233 240.570312 233.019531 240.363281 C 231.128906 240.242188 229.230469 240.179688 227.335938 240.175781 Z M 226.394531 244.3125 C 226.320312 244.53125 226.242188 244.742188 226.167969 244.941406 C 227.839844 244.910156 229.515625 244.960938 231.1875 245.097656 C 231.46875 245.121094 231.75 245.148438 232.035156 245.175781 C 232.101562 244.976562 232.164062 244.773438 232.222656 244.574219 C 230.285156 244.375 228.339844 244.285156 226.394531 244.3125 Z M 217.847656 232.363281 C 216.320312 231.730469 214.6875 231.363281 213.039062 231.144531 C 212.992188 231.339844 212.949219 231.542969 212.902344 231.75 C 214.585938 231.96875 216.257812 232.34375 217.804688 233.015625 C 217.816406 232.789062 217.832031 232.570312 217.847656 232.363281 Z M 217.761719 236.753906 C 217.753906 236.535156 217.75 236.316406 217.746094 236.105469 C 215.988281 235.625 214.175781 235.320312 212.359375 235.167969 C 212.339844 235.367188 212.320312 235.574219 212.304688 235.78125 C 213.652344 235.898438 214.996094 236.105469 216.308594 236.394531 C 216.796875 236.5 217.28125 236.621094 217.761719 236.753906 Z M 218.105469 240.804688 C 218.074219 240.601562 218.042969 240.394531 218.015625 240.179688 C 216.117188 240.15625 214.21875 240.195312 212.324219 240.285156 C 212.339844 240.492188 212.363281 240.699219 212.386719 240.90625 C 214.292969 240.816406 216.199219 240.78125 218.105469 240.804688 Z M 218.785156 244.964844 C 218.925781 244.96875 219.0625 244.980469 219.203125 244.984375 C 219.125 244.785156 219.046875 244.574219 218.96875 244.351562 C 217.011719 244.269531 215.046875 244.304688 213.09375 244.453125 C 213.152344 244.65625 213.214844 244.859375 213.277344 245.0625 C 215.109375 244.929688 216.949219 244.894531 218.785156 244.964844 Z M 223.753906 222.203125 C 223.113281 222.398438 222.453125 222.382812 221.816406 222.160156 C 221.65625 222.101562 221.476562 222.226562 221.433594 222.378906 C 221.390625 222.550781 221.496094 222.707031 221.65625 222.761719 C 222.382812 223.015625 223.1875 223.027344 223.925781 222.800781 C 224.085938 222.753906 224.183594 222.578125 224.140625 222.414062 C 224.09375 222.253906 223.917969 222.152344 223.753906 222.203125 Z M 223.753906 222.203125 " fill-opacity="1" fill-rule="nonzero"/></svg>