<svg xmlns="http://www.w3.org/2000/svg" xmlns:xlink="http://www.w3.org/1999/xlink" width="350" zoomAndPan="magnify" viewBox="0 0 262.5 262.500001" height="350" preserveAspectRatio="xMidYMid meet" version="1.0"><defs><clipPath id="50ee625e7c"><path d="M 192 189 L 246 189 L 246 251.980469 L 192 251.980469 Z M 192 189 " clip-rule="nonzero"/></clipPath></defs><g clip-path="url(#50ee625e7c)"><path fill="#266753" d="M 213.484375 234.128906 C 205.410156 241.414062 213.765625 247.972656 213.53125 250.496094 C 213.402344 251.890625 202.78125 251.917969 202.6875 250.632812 C 202.59375 249.347656 204.375 248.339844 208.226562 248.523438 C 202.308594 241.917969 208.414062 232.835938 208.414062 232.835938 C 208.414062 232.835938 220.148438 228.117188 213.484375 234.128906 Z M 224.167969 234.128906 C 232.246094 241.414062 223.886719 247.972656 224.121094 250.496094 C 224.25 251.890625 234.875 251.917969 234.96875 250.632812 C 235.0625 249.347656 233.277344 248.339844 229.425781 248.523438 C 235.34375 241.917969 229.238281 232.835938 229.238281 232.835938 C 229.238281 232.835938 217.503906 228.117188 224.167969 234.128906 Z M 229.394531 204.964844 C 229.394531 204.964844 233.113281 203.273438 236.398438 196.941406 C 239.683594 190.605469 242.445312 189.035156 244.128906 189.726562 C 246.375 190.652344 245.371094 196.4375 240.757812 203.023438 C 236.140625 209.613281 232.65625 211.097656 232.65625 211.097656 Z M 205 211.097656 C 205 211.097656 201.511719 209.613281 196.898438 203.023438 C 192.28125 196.4375 191.277344 190.652344 193.523438 189.726562 C 195.210938 189.035156 197.96875 190.605469 201.253906 196.941406 C 204.539062 203.273438 208.257812 204.964844 208.257812 204.964844 Z M 205 211.097656 " fill-opacity="1" fill-rule="nonzero"/></g><path fill="#338168" d="M 238.605469 230.410156 C 240.789062 237 232.621094 237.632812 231.167969 233.828125 C 231.703125 238.402344 224.535156 238.910156 223.535156 234.546875 C 223.003906 237.316406 220.21875 238.019531 218.886719 238.019531 C 217.554688 238.019531 214.976562 237.421875 214.238281 234.546875 C 213.234375 238.910156 206.066406 238.402344 206.601562 233.828125 C 205.152344 237.632812 196.980469 237 199.164062 230.410156 C 192.578125 232.828125 190.40625 223.5 195.574219 221.082031 C 189.257812 220.261719 191.488281 210.421875 196.839844 211.824219 C 192.15625 208.457031 196.527344 201.242188 201.386719 203.382812 C 197.195312 198.683594 205.054688 193.175781 207.902344 196.414062 C 206.113281 191.226562 214.472656 189.265625 215.433594 193.46875 C 214.871094 190.382812 217.054688 189.136719 218.886719 189.136719 C 220.714844 189.136719 222.898438 190.382812 222.335938 193.46875 C 223.300781 189.265625 231.65625 191.226562 229.867188 196.414062 C 232.71875 193.175781 240.574219 198.683594 236.382812 203.382812 C 241.242188 201.242188 245.613281 208.457031 240.929688 211.824219 C 246.28125 210.421875 248.511719 220.261719 242.199219 221.082031 C 247.363281 223.5 245.191406 232.828125 238.605469 230.410156 Z M 238.605469 230.410156 C 240.789062 237 232.621094 237.632812 231.167969 233.828125 C 231.703125 238.402344 224.535156 238.910156 223.535156 234.546875 C 223.003906 237.316406 220.21875 238.019531 218.886719 238.019531 C 217.554688 238.019531 214.976562 237.421875 214.238281 234.546875 C 213.234375 238.910156 206.066406 238.402344 206.601562 233.828125 C 205.152344 237.632812 196.980469 237 199.164062 230.410156 C 192.578125 232.828125 190.40625 223.5 195.574219 221.082031 C 189.257812 220.261719 191.488281 210.421875 196.839844 211.824219 C 192.15625 208.457031 196.527344 201.242188 201.386719 203.382812 C 197.195312 198.683594 205.054688 193.175781 207.902344 196.414062 C 206.113281 191.226562 214.472656 189.265625 215.433594 193.46875 C 214.871094 190.382812 217.054688 189.136719 218.886719 189.136719 C 220.714844 189.136719 222.898438 190.382812 222.335938 193.46875 C 223.300781 189.265625 231.65625 191.226562 229.867188 196.414062 C 232.71875 193.175781 240.574219 198.683594 236.382812 203.382812 C 241.242188 201.242188 245.613281 208.457031 240.929688 211.824219 C 246.28125 210.421875 248.511719 220.261719 242.199219 221.082031 C 247.363281 223.5 245.191406 232.828125 238.605469 230.410156 Z M 238.605469 230.410156 " fill-opacity="1" fill-rule="nonzero"/><path fill="#ffffff" d="M 222.171875 210.855469 C 222.171875 216.65625 225.175781 218.027344 228.066406 218.277344 C 230.914062 218.523438 235.019531 217.292969 235.214844 211.886719 C 235.40625 206.484375 232.316406 203.4375 228.742188 203.4375 C 225.550781 203.4375 222.171875 204.8125 222.171875 210.855469 Z M 202.429688 210.855469 C 202.429688 216.65625 205.574219 218.027344 208.597656 218.277344 C 211.578125 218.523438 215.875 217.292969 216.074219 211.886719 C 216.277344 206.484375 213.042969 203.4375 209.304688 203.4375 C 205.96875 203.4375 202.429688 204.8125 202.429688 210.855469 Z M 202.429688 210.855469 " fill-opacity="1" fill-rule="nonzero"/><path fill="#0e0f1a" d="M 227.632812 205.972656 C 229.777344 205.972656 231.628906 207.980469 231.511719 211.542969 C 231.398438 215.105469 228.9375 215.914062 227.226562 215.753906 C 225.496094 215.589844 223.695312 214.683594 223.695312 210.863281 C 223.695312 206.878906 225.722656 205.972656 227.632812 205.972656 Z M 210.019531 215.996094 C 207.878906 215.996094 206.023438 213.988281 206.140625 210.425781 C 206.257812 206.863281 208.71875 206.054688 210.425781 206.214844 C 212.15625 206.378906 213.957031 207.285156 213.957031 211.105469 C 213.957031 215.089844 211.929688 215.996094 210.019531 215.996094 Z M 210.019531 215.996094 " fill-opacity="1" fill-rule="nonzero"/><path fill="#174441" d="M 206.210938 237.796875 C 207.546875 238.203125 208.875 238.625 210.210938 239.027344 C 210.125 239.351562 210.0625 239.667969 210.019531 239.980469 C 208.667969 239.574219 207.324219 239.144531 205.976562 238.734375 C 206.046875 238.414062 206.125 238.101562 206.210938 237.796875 Z M 210.003906 241.757812 C 208.550781 241.75 207.097656 241.742188 205.644531 241.734375 C 205.648438 242.050781 205.664062 242.375 205.691406 242.699219 C 207.183594 242.707031 208.671875 242.714844 210.164062 242.722656 C 210.09375 242.40625 210.039062 242.085938 210.003906 241.757812 Z M 211.128906 245.417969 C 209.550781 245.558594 207.964844 245.566406 206.378906 245.582031 C 206.507812 245.90625 206.660156 246.226562 206.832031 246.546875 C 208.421875 246.527344 210.015625 246.507812 211.601562 246.335938 C 211.441406 246.039062 211.28125 245.734375 211.128906 245.417969 Z M 231.441406 237.785156 C 230.105469 238.191406 228.777344 238.613281 227.441406 239.015625 C 227.527344 239.335938 227.589844 239.65625 227.632812 239.96875 C 228.980469 239.5625 230.324219 239.132812 231.675781 238.722656 C 231.605469 238.402344 231.523438 238.089844 231.441406 237.785156 Z M 232.007812 241.730469 C 230.554688 241.742188 229.101562 241.75 227.648438 241.757812 C 227.613281 242.085938 227.5625 242.40625 227.492188 242.722656 C 228.980469 242.714844 230.472656 242.707031 231.960938 242.699219 C 231.992188 242.375 232.007812 242.050781 232.007812 241.730469 Z M 231.273438 245.585938 C 229.6875 245.566406 228.101562 245.558594 226.523438 245.421875 C 226.371094 245.738281 226.210938 246.042969 226.050781 246.339844 C 227.636719 246.507812 229.230469 246.53125 230.824219 246.546875 C 230.996094 246.226562 231.144531 245.90625 231.273438 245.585938 Z M 213.382812 220.195312 C 213.636719 220.339844 213.773438 220.875 213.847656 221.351562 C 214.335938 220.882812 215.160156 220.171875 215.382812 220.484375 C 215.617188 220.816406 215.34375 221.738281 215.175781 222.222656 C 215.601562 222.121094 216.140625 222.046875 216.390625 222.234375 C 216.75 222.507812 215.667969 223.558594 215.246094 223.941406 C 215.21875 224.097656 215.179688 224.25 215.128906 224.402344 C 214.867188 225.136719 213.769531 226.96875 213.390625 227.652344 C 213.289062 227.835938 213.015625 227.867188 212.851562 227.757812 C 212.667969 227.632812 212.648438 227.402344 212.746094 227.222656 C 212.921875 226.910156 213.726562 225.460938 213.898438 225.148438 C 214.089844 224.796875 214.296875 224.453125 214.421875 224.070312 C 214.628906 223.421875 214.457031 222.671875 213.75 222.441406 C 212.988281 222.199219 212.328125 222.6875 211.835938 223.214844 C 211.210938 223.882812 210.640625 224.605469 210.046875 225.300781 C 209.441406 226.015625 209.789062 225.59375 209.183594 226.308594 C 209.046875 226.46875 208.832031 226.539062 208.644531 226.410156 C 208.484375 226.304688 208.402344 226.035156 208.539062 225.875 C 209.34375 224.929688 209.1875 225.125 209.992188 224.179688 C 210.335938 223.773438 210.679688 223.367188 211.027344 222.964844 C 211.359375 222.585938 211.703125 222.222656 212.136719 221.957031 C 212.167969 221.9375 212.199219 221.917969 212.230469 221.902344 C 212.429688 221.367188 212.992188 219.964844 213.382812 220.195312 Z M 225.421875 221.902344 C 225.453125 221.917969 225.488281 221.9375 225.519531 221.957031 C 225.953125 222.222656 226.296875 222.585938 226.625 222.964844 C 226.976562 223.367188 227.316406 223.773438 227.660156 224.179688 C 228.464844 225.125 228.3125 224.929688 229.113281 225.875 C 229.25 226.035156 229.171875 226.304688 229.011719 226.410156 C 228.820312 226.539062 228.609375 226.46875 228.472656 226.308594 C 227.863281 225.59375 228.214844 226.015625 227.605469 225.300781 C 227.015625 224.605469 226.445312 223.882812 225.820312 223.214844 C 225.324219 222.6875 224.664062 222.199219 223.902344 222.441406 C 223.195312 222.671875 223.023438 223.421875 223.230469 224.070312 C 223.355469 224.453125 223.5625 224.796875 223.753906 225.148438 C 223.925781 225.460938 224.734375 226.910156 224.90625 227.222656 C 225.007812 227.402344 224.988281 227.632812 224.800781 227.757812 C 224.640625 227.867188 224.363281 227.835938 224.261719 227.652344 C 223.886719 226.96875 222.789062 225.136719 222.527344 224.402344 C 222.472656 224.25 222.433594 224.097656 222.410156 223.941406 C 221.988281 223.558594 220.902344 222.507812 221.265625 222.234375 C 221.515625 222.046875 222.050781 222.121094 222.476562 222.222656 C 222.308594 221.738281 222.035156 220.816406 222.269531 220.484375 C 222.496094 220.171875 223.316406 220.882812 223.804688 221.355469 C 223.878906 220.875 224.019531 220.339844 224.269531 220.195312 C 224.664062 219.964844 225.226562 221.367188 225.421875 221.902344 Z M 220.75 217.019531 C 220.386719 217.734375 219.648438 218.238281 218.835938 218.242188 C 218.019531 218.246094 217.277344 217.757812 216.90625 217.042969 C 216.679688 216.601562 216.007812 216.992188 216.238281 217.433594 C 216.726562 218.382812 217.761719 219.019531 218.835938 219.015625 C 219.90625 219.007812 220.9375 218.363281 221.417969 217.410156 C 221.640625 216.96875 220.972656 216.574219 220.75 217.019531 Z M 236.382812 203.382812 C 236.941406 203.136719 237.492188 203.015625 238.023438 202.996094 C 239.476562 200.742188 243.175781 194.726562 241.945312 193.871094 C 241.097656 193.277344 239.015625 196.339844 237.347656 199.15625 C 237.816406 200.460938 237.652344 201.957031 236.382812 203.382812 Z M 201.386719 203.382812 C 200.25 202.105469 200 200.769531 200.296875 199.566406 C 198.59375 196.652344 196.347656 193.25 195.457031 193.871094 C 194.226562 194.726562 197.929688 200.746094 199.378906 203 C 200.023438 202.964844 200.699219 203.078125 201.386719 203.382812 Z M 201.386719 203.382812 " fill-opacity="1" fill-rule="nonzero"/><path fill="#174441" d="M 199.984375 225.175781 C 200.882812 226.230469 200.707031 227.945312 198.96875 229.308594 C 197.234375 230.667969 195.824219 229.777344 195.183594 228.871094 C 194.539062 227.953125 194.214844 226.703125 196.023438 225.183594 C 197.910156 223.59375 199.1875 224.234375 199.984375 225.175781 Z M 205.1875 231.671875 C 204.703125 232.359375 203.660156 232.699219 202.59375 231.894531 C 201.527344 231.089844 201.84375 229.945312 202.28125 229.433594 C 202.722656 228.917969 203.6875 228.441406 204.859375 229.265625 C 206.082031 230.125 205.621094 231.0625 205.1875 231.671875 Z M 204.640625 224.792969 C 204.378906 225.160156 203.824219 225.34375 203.253906 224.914062 C 202.683594 224.484375 202.855469 223.871094 203.085938 223.597656 C 203.324219 223.320312 203.839844 223.070312 204.464844 223.507812 C 205.117188 223.96875 204.871094 224.46875 204.640625 224.792969 Z M 234.519531 200.273438 C 234.039062 200.949219 233.007812 201.289062 231.957031 200.492188 C 230.902344 199.695312 231.214844 198.5625 231.644531 198.058594 C 232.082031 197.546875 233.035156 197.078125 234.195312 197.894531 C 235.402344 198.742188 234.949219 199.667969 234.519531 200.273438 Z M 226.984375 200.34375 C 226.664062 200.789062 225.984375 201.011719 225.289062 200.488281 C 224.59375 199.960938 224.800781 199.214844 225.085938 198.878906 C 225.371094 198.542969 226.003906 198.234375 226.769531 198.769531 C 227.566406 199.332031 227.265625 199.945312 226.984375 200.34375 Z M 239.5 210.421875 C 239.183594 210.867188 238.503906 211.09375 237.808594 210.566406 C 237.109375 210.039062 237.316406 209.292969 237.601562 208.960938 C 237.890625 208.621094 238.523438 208.3125 239.285156 208.851562 C 240.085938 209.410156 239.785156 210.023438 239.5 210.421875 Z M 218.167969 199.863281 C 217.273438 201.125 215.351562 201.757812 213.382812 200.273438 C 211.414062 198.785156 211.996094 196.671875 212.804688 195.730469 C 213.621094 194.773438 215.402344 193.898438 217.5625 195.421875 C 219.816406 197.007812 218.96875 198.734375 218.167969 199.863281 Z M 218.167969 199.863281 " fill-opacity="0.2471" fill-rule="nonzero"/><path fill="#266753" d="M 223.527344 216.0625 C 223.527344 216.0625 228.621094 211.488281 234.328125 215.367188 C 233.402344 218.304688 226.660156 220.292969 223.527344 216.0625 Z M 214.730469 216.0625 C 214.730469 216.0625 209.652344 211.6875 203.5 215.546875 C 204.425781 218.484375 211.597656 220.292969 214.730469 216.0625 Z M 214.730469 216.0625 " fill-opacity="1" fill-rule="nonzero"/></svg>