<svg xmlns="http://www.w3.org/2000/svg" xmlns:xlink="http://www.w3.org/1999/xlink" width="350" zoomAndPan="magnify" viewBox="0 0 262.5 262.500001" height="350" preserveAspectRatio="xMidYMid meet" version="1.0"><defs><clipPath id="d628563feb"><path d="M 193 201 L 249 201 L 249 252.691406 L 193 252.691406 Z M 193 201 " clip-rule="nonzero"/></clipPath><clipPath id="85037478df"><path d="M 194 204 L 249 204 L 249 252.691406 L 194 252.691406 Z M 194 204 " clip-rule="nonzero"/></clipPath></defs><g clip-path="url(#d628563feb)"><path fill="#f89b38" d="M 248.828125 231.140625 C 247.585938 250.09375 232.117188 252.644531 221.308594 252.644531 C 210.5 252.644531 194.746094 250.300781 193.519531 231.140625 C 192.136719 209.585938 210.890625 201.519531 221.242188 201.480469 C 221.242188 201.480469 221.242188 201.476562 221.242188 201.476562 C 221.257812 201.476562 221.269531 201.476562 221.28125 201.476562 C 221.296875 201.476562 221.308594 201.476562 221.320312 201.476562 C 221.320312 201.476562 221.320312 201.480469 221.320312 201.480469 C 231.675781 201.519531 250.238281 209.585938 248.828125 231.140625 Z M 248.828125 231.140625 C 247.585938 250.09375 232.117188 252.644531 221.308594 252.644531 C 210.5 252.644531 194.746094 250.300781 193.519531 231.140625 C 192.136719 209.585938 210.890625 201.519531 221.242188 201.480469 C 221.242188 201.480469 221.242188 201.476562 221.242188 201.476562 C 221.257812 201.476562 221.269531 201.476562 221.28125 201.476562 C 221.296875 201.476562 221.308594 201.476562 221.320312 201.476562 C 221.320312 201.476562 221.320312 201.480469 221.320312 201.480469 C 231.675781 201.519531 250.238281 209.585938 248.828125 231.140625 Z M 248.828125 231.140625 " fill-opacity="1" fill-rule="nonzero"/></g><g clip-path="url(#85037478df)"><path fill="#bc5e28" d="M 244.09375 228.558594 C 242.457031 226.808594 245.214844 224.015625 246.566406 226.636719 C 247.507812 228.460938 245.8125 230.402344 244.09375 228.558594 Z M 201.472656 209.5625 C 197.976562 212.851562 195.199219 217.246094 194.035156 222.910156 C 196.011719 223.578125 198.773438 223.660156 201.769531 221.152344 C 206.414062 217.269531 203.953125 211.921875 201.472656 209.5625 Z M 228.550781 248.203125 C 224.503906 248.246094 222.851562 250.519531 223.003906 252.621094 C 226.15625 252.539062 229.597656 252.199219 232.914062 251.296875 C 232.699219 249.621094 231.167969 248.175781 228.550781 248.203125 Z M 242.160156 237.035156 C 240.484375 240.746094 242.054688 243.945312 243.160156 245.546875 C 246.0625 242.523438 248.140625 238.257812 248.734375 232.257812 C 248.699219 232.253906 244.550781 231.730469 242.160156 237.035156 Z M 204.148438 222.3125 C 201.304688 225.78125 206.863281 227.949219 208.324219 224.609375 C 209.859375 221.101562 206.125 219.898438 204.148438 222.3125 Z M 215.308594 206.488281 C 213.800781 207.988281 211.160156 206.59375 213.082031 204.820312 C 214.421875 203.589844 217.304688 204.503906 215.308594 206.488281 Z M 236.261719 212.90625 C 235.179688 211.746094 237.003906 209.898438 237.898438 211.632812 C 238.523438 212.839844 237.398438 214.125 236.261719 212.90625 Z M 196.894531 226.722656 C 195.679688 227.195312 194.929688 225.195312 196.507812 225.050781 C 197.601562 224.949219 198.171875 226.226562 196.894531 226.722656 Z M 196.894531 226.722656 " fill-opacity="0.298" fill-rule="nonzero"/></g><path fill="#ffffff" d="M 226.941406 229.4375 C 223.109375 229.480469 218.652344 226.648438 219.496094 219.984375 C 220.300781 213.671875 224.929688 211.902344 228.753906 212.3125 C 233.042969 212.769531 236.527344 216.125 235.632812 222.324219 C 234.808594 228.042969 230.296875 229.398438 226.941406 229.4375 Z M 226.941406 229.4375 C 223.109375 229.480469 218.652344 226.648438 219.496094 219.984375 C 220.300781 213.671875 224.929688 211.902344 228.753906 212.3125 C 233.042969 212.769531 236.527344 216.125 235.632812 222.324219 C 234.808594 228.042969 230.296875 229.398438 226.941406 229.4375 Z M 226.941406 229.4375 " fill-opacity="1" fill-rule="nonzero"/><path fill="#0e0f1a" d="M 225.03125 226.863281 C 222.71875 226.863281 220.082031 224.570312 220.503906 220.234375 C 220.964844 215.523438 223.929688 214.511719 226.46875 214.648438 C 229.40625 214.808594 231.527344 217.765625 230.84375 222.261719 C 230.210938 226.402344 227.109375 226.863281 225.03125 226.863281 Z M 225.03125 226.863281 " fill-opacity="1" fill-rule="nonzero"/><path fill="#d27628" d="M 230.984375 203.332031 C 230.933594 208.238281 227.488281 209.234375 224.300781 209.023438 C 221.117188 208.816406 217.226562 207.222656 218.160156 204.660156 C 219.253906 202.25 219.339844 200.566406 219.300781 199.796875 C 219 196.605469 217.453125 192.855469 218.542969 191.3125 C 219.65625 189.726562 231.105469 193.640625 230.984375 203.332031 Z M 210.027344 208.0625 C 208.726562 207.03125 207.496094 205.652344 207.496094 205.652344 L 207.496094 205.648438 C 205.230469 203.136719 203.867188 198.34375 201.808594 197.828125 C 199.929688 197.359375 193.820312 207.800781 200.242188 215.058594 C 201.632812 217 206.667969 219.746094 210.027344 214.6875 C 213.113281 210.042969 210.027344 208.0625 210.027344 208.0625 Z M 243.496094 212.320312 C 246.699219 205.441406 241.777344 197.417969 240.125 197.828125 C 238.195312 198.3125 236.875 202.550781 234.851562 205.148438 C 238.03125 206.863281 241.066406 209.226562 243.496094 212.320312 Z M 219.683594 218.878906 L 235.664062 218.878906 C 235.664062 218.878906 235.199219 212.15625 227.769531 212.15625 C 220.382812 212.15625 219.683594 218.878906 219.683594 218.878906 Z M 219.683594 218.878906 " fill-opacity="1" fill-rule="nonzero"/><path fill="#bc5e28" d="M 216.589844 233.695312 C 216.585938 233.179688 217.386719 233.179688 217.390625 233.695312 C 217.40625 234.867188 217.492188 236.035156 217.53125 237.207031 C 217.574219 238.476562 217.589844 239.753906 217.503906 241.023438 C 217.429688 242.09375 217.308594 243.214844 216.867188 244.207031 C 216.710938 244.558594 216.496094 244.902344 216.1875 245.148438 C 215.621094 245.605469 214.855469 245.734375 214.152344 245.582031 C 213.40625 245.417969 212.808594 244.910156 212.507812 244.210938 C 212.167969 243.421875 212.210938 242.554688 212.070312 241.71875 C 212.03125 241.507812 212.121094 241.289062 212.347656 241.226562 C 212.542969 241.175781 212.804688 241.292969 212.839844 241.507812 C 212.980469 242.335938 212.898438 243.308594 213.324219 244.0625 C 213.652344 244.648438 214.34375 244.933594 215 244.824219 C 215.144531 244.800781 215.292969 244.757812 215.429688 244.691406 C 215.496094 244.65625 215.5625 244.613281 215.625 244.574219 C 215.71875 244.519531 215.628906 244.582031 215.671875 244.542969 C 215.734375 244.488281 215.792969 244.429688 215.847656 244.371094 C 215.863281 244.351562 215.921875 244.269531 215.878906 244.328125 C 215.90625 244.296875 215.929688 244.261719 215.949219 244.226562 C 216.175781 243.882812 216.273438 243.582031 216.386719 243.167969 C 216.65625 242.140625 216.722656 241.0625 216.75 240.003906 C 216.808594 237.894531 216.621094 235.796875 216.589844 233.695312 Z M 238.945312 232.257812 C 238.972656 234.367188 239.164062 236.46875 239.097656 238.582031 C 239.066406 239.636719 239 240.710938 238.722656 241.730469 C 238.609375 242.148438 238.5 242.460938 238.269531 242.8125 C 238.246094 242.847656 238.222656 242.882812 238.195312 242.917969 C 238.234375 242.867188 238.183594 242.933594 238.167969 242.949219 C 238.109375 243.015625 238.046875 243.085938 237.976562 243.140625 C 237.808594 243.277344 237.558594 243.378906 237.328125 243.410156 C 236.660156 243.507812 235.976562 243.1875 235.65625 242.59375 C 235.253906 241.84375 235.332031 240.890625 235.195312 240.070312 C 235.15625 239.855469 234.894531 239.738281 234.703125 239.789062 C 234.476562 239.851562 234.386719 240.070312 234.421875 240.28125 C 234.558594 241.097656 234.519531 241.949219 234.839844 242.726562 C 235.132812 243.429688 235.710938 243.953125 236.457031 244.144531 C 237.15625 244.320312 237.921875 244.203125 238.492188 243.75 C 238.804688 243.496094 239.03125 243.148438 239.195312 242.785156 C 239.644531 241.785156 239.773438 240.660156 239.851562 239.582031 C 239.941406 238.320312 239.925781 237.050781 239.882812 235.789062 C 239.84375 234.613281 239.761719 233.433594 239.746094 232.257812 C 239.738281 231.742188 238.9375 231.742188 238.945312 232.257812 Z M 193.609375 232.261719 L 193.609375 232.257812 C 193.609375 232.257812 187.238281 235.050781 189.632812 242.257812 C 191.449219 247.734375 196.878906 247.691406 200.070312 246.425781 C 197.097656 243.71875 194.582031 238.339844 193.609375 232.261719 Z M 208.285156 207.691406 C 208.289062 207.175781 209.089844 207.175781 209.085938 207.691406 C 209.082031 208.71875 208.851562 209.722656 208.410156 210.648438 C 207.710938 212.113281 206.492188 213.3125 205.09375 214.117188 C 203.921875 214.789062 202.488281 215.292969 201.117188 215.140625 C 200.902344 215.113281 200.71875 214.976562 200.71875 214.738281 C 200.71875 214.539062 200.902344 214.316406 201.117188 214.339844 C 201.789062 214.414062 202.394531 214.320312 203.035156 214.136719 C 205.890625 213.308594 208.269531 210.746094 208.285156 207.691406 Z M 205.671875 205.410156 C 205.296875 206.117188 204.667969 206.71875 203.96875 207.175781 C 202.992188 207.820312 201.851562 208.152344 200.679688 208.078125 C 199.832031 208.023438 199.011719 207.742188 198.265625 207.347656 C 197.808594 207.105469 197.402344 207.796875 197.859375 208.039062 C 199.261719 208.777344 200.839844 209.097656 202.402344 208.730469 C 203.554688 208.453125 204.628906 207.824219 205.464844 206.984375 C 205.808594 206.640625 206.132812 206.25 206.363281 205.816406 C 206.605469 205.363281 205.914062 204.957031 205.671875 205.410156 Z M 199.222656 201.34375 C 199.890625 202.023438 200.867188 202.410156 201.828125 202.3125 C 202.789062 202.214844 203.640625 201.695312 204.195312 200.90625 C 204.320312 200.730469 204.226562 200.464844 204.050781 200.359375 C 203.851562 200.242188 203.628906 200.328125 203.503906 200.503906 C 202.632812 201.742188 200.832031 201.839844 199.789062 200.777344 C 199.425781 200.40625 198.859375 200.972656 199.222656 201.34375 Z M 219.578125 203.785156 C 220.980469 204.808594 222.753906 205.320312 224.472656 205.410156 C 225.949219 205.488281 227.507812 205.210938 228.820312 204.511719 C 229.519531 204.136719 230.15625 203.605469 230.546875 202.90625 C 230.800781 202.457031 230.109375 202.054688 229.855469 202.503906 C 229.222656 203.628906 227.886719 204.167969 226.6875 204.433594 C 225.261719 204.75 223.769531 204.65625 222.371094 204.246094 C 221.515625 203.996094 220.703125 203.621094 219.984375 203.09375 C 219.808594 202.964844 219.535156 203.0625 219.433594 203.238281 C 219.316406 203.441406 219.402344 203.65625 219.578125 203.785156 Z M 219.898438 199.460938 C 221.46875 200.199219 223.226562 200.496094 224.929688 200.046875 C 226.0625 199.742188 227.199219 199.117188 227.941406 198.191406 C 228.207031 197.859375 228.488281 197.4375 228.46875 196.992188 C 228.449219 196.476562 227.648438 196.472656 227.667969 196.992188 C 227.671875 197.019531 227.667969 197.042969 227.667969 197.070312 C 227.664062 197.136719 227.695312 196.980469 227.667969 197.066406 C 227.65625 197.09375 227.648438 197.128906 227.640625 197.160156 C 227.632812 197.1875 227.585938 197.300781 227.628906 197.203125 C 227.558594 197.355469 227.46875 197.5 227.371094 197.632812 C 227.332031 197.683594 227.40625 197.589844 227.363281 197.640625 C 227.351562 197.65625 227.339844 197.671875 227.328125 197.683594 C 227.292969 197.726562 227.257812 197.765625 227.222656 197.804688 C 227.148438 197.886719 227.070312 197.96875 226.988281 198.042969 C 226.808594 198.214844 226.640625 198.347656 226.445312 198.484375 C 225.425781 199.179688 224.199219 199.511719 222.96875 199.460938 C 222.042969 199.421875 221.136719 199.160156 220.300781 198.769531 C 219.835938 198.550781 219.429688 199.238281 219.898438 199.460938 Z M 219.320312 195.632812 C 220.007812 195.769531 220.710938 195.578125 221.335938 195.289062 C 221.996094 194.984375 222.625 194.5 223 193.867188 C 223.214844 193.503906 223.335938 193.089844 223.324219 192.667969 C 223.308594 192.152344 222.507812 192.152344 222.523438 192.667969 C 222.527344 192.71875 222.527344 192.773438 222.523438 192.824219 C 222.523438 192.851562 222.519531 192.875 222.515625 192.902344 C 222.523438 192.859375 222.523438 192.863281 222.515625 192.910156 C 222.5 192.996094 222.476562 193.085938 222.449219 193.171875 C 222.40625 193.300781 222.335938 193.433594 222.226562 193.59375 C 222.210938 193.617188 222.195312 193.640625 222.179688 193.660156 C 222.199219 193.632812 222.195312 193.636719 222.167969 193.675781 C 222.140625 193.707031 222.113281 193.738281 222.089844 193.769531 C 222.015625 193.851562 221.9375 193.929688 221.855469 194.003906 C 221.703125 194.144531 221.617188 194.207031 221.433594 194.324219 C 221.074219 194.554688 220.789062 194.683594 220.394531 194.789062 C 220.207031 194.839844 220.058594 194.863281 219.945312 194.875 C 219.867188 194.878906 219.789062 194.882812 219.707031 194.878906 C 219.664062 194.878906 219.621094 194.875 219.578125 194.871094 C 219.6875 194.878906 219.554688 194.863281 219.53125 194.859375 C 219.320312 194.820312 219.097656 194.921875 219.039062 195.140625 C 218.984375 195.335938 219.105469 195.589844 219.320312 195.632812 Z M 236.09375 204.851562 C 236.160156 204.808594 236.230469 204.773438 236.300781 204.738281 C 236.359375 204.707031 236.28125 204.746094 236.273438 204.75 C 236.296875 204.738281 236.320312 204.730469 236.347656 204.722656 C 236.394531 204.707031 236.441406 204.6875 236.488281 204.675781 C 236.578125 204.648438 236.671875 204.632812 236.761719 204.613281 C 236.789062 204.609375 236.816406 204.605469 236.839844 204.601562 C 236.90625 204.59375 236.738281 204.613281 236.84375 204.601562 C 236.90625 204.597656 236.96875 204.589844 237.027344 204.585938 C 237.277344 204.570312 237.53125 204.578125 237.78125 204.605469 C 237.804688 204.609375 237.832031 204.613281 237.859375 204.613281 C 237.984375 204.628906 237.8125 204.609375 237.890625 204.621094 C 237.953125 204.628906 238.011719 204.636719 238.074219 204.648438 C 238.226562 204.675781 238.378906 204.710938 238.53125 204.753906 C 239.824219 205.097656 240.980469 205.898438 241.828125 206.960938 C 242.464844 207.757812 242.90625 208.695312 243.203125 209.667969 C 243.351562 210.160156 244.125 209.953125 243.972656 209.457031 C 243.429688 207.675781 242.417969 206.0625 240.882812 204.980469 C 239.820312 204.238281 238.492188 203.75 237.183594 203.78125 C 236.679688 203.789062 236.117188 203.875 235.691406 204.160156 C 235.265625 204.449219 235.664062 205.140625 236.09375 204.851562 Z M 238.429688 200.683594 C 239.8125 199.863281 241.644531 200.867188 242.34375 202.144531 C 242.589844 202.59375 243.28125 202.191406 243.035156 201.738281 C 242.125 200.078125 239.78125 198.949219 238.027344 199.992188 C 237.585938 200.253906 237.988281 200.945312 238.429688 200.683594 Z M 238.429688 200.683594 " fill-opacity="1" fill-rule="nonzero"/></svg>