<svg xmlns="http://www.w3.org/2000/svg" xmlns:xlink="http://www.w3.org/1999/xlink" width="350" zoomAndPan="magnify" viewBox="0 0 262.5 262.500001" height="350" preserveAspectRatio="xMidYMid meet" version="1.0"><path fill="#1b1a1c" d="M 163.945312 26.09375 C 185.160156 49.988281 171.316406 73.222656 172.15625 91.640625 C 172.839844 106.664062 186.53125 108.710938 182.421875 125.78125 C 178.316406 142.851562 160.367188 136.582031 151.625 147.632812 C 141.359375 160.605469 123.722656 164.019531 111.929688 154.460938 C 90.027344 136.707031 71.898438 151.410156 64.703125 129.878906 C 61.28125 119.636719 66.070312 113.492188 77.023438 98.46875 C 88.011719 83.398438 71.257812 66.445312 80.445312 42.480469 C 89.339844 19.265625 107.582031 14.359375 118.773438 13.117188 C 131.105469 11.753906 150.140625 10.546875 163.945312 26.09375 Z M 163.945312 26.09375 C 185.160156 49.988281 171.316406 73.222656 172.15625 91.640625 C 172.839844 106.664062 186.53125 108.710938 182.421875 125.78125 C 178.316406 142.851562 160.367188 136.582031 151.625 147.632812 C 141.359375 160.605469 123.722656 164.019531 111.929688 154.460938 C 90.027344 136.707031 71.898438 151.410156 64.703125 129.878906 C 61.28125 119.636719 66.070312 113.492188 77.023438 98.46875 C 88.011719 83.398438 71.257812 66.445312 80.445312 42.480469 C 89.339844 19.265625 107.582031 14.359375 118.773438 13.117188 C 131.105469 11.753906 150.140625 10.546875 163.945312 26.09375 Z M 163.945312 26.09375 " fill-opacity="1" fill-rule="nonzero"/><path fill="#ff9f6c" d="M 166.683594 67.058594 C 166.683594 67.058594 171.472656 80.035156 163.261719 90.957031 C 155.046875 101.882812 131.089844 99.835938 131.089844 99.835938 C 131.089844 99.835938 131.089844 103.25 131.089844 108.710938 C 122.878906 115.539062 108.503906 111.441406 107.820312 108.710938 C 109.191406 93.007812 104.398438 85.496094 104.398438 85.496094 C 104.398438 85.496094 94.816406 93.007812 89.339844 84.8125 C 83.113281 75.496094 93.449219 70.472656 93.449219 70.472656 C 93.449219 70.472656 97.554688 68.425781 101.660156 71.839844 C 107.136719 67.058594 114.664062 47.941406 116.035156 34.285156 C 118.085938 39.746094 117.402344 47.257812 117.402344 47.257812 L 158.46875 46.574219 C 158.46875 46.574219 159.835938 40.429688 157.785156 33.601562 C 163.945312 41.113281 167.367188 50.671875 166.683594 67.058594 Z M 166.683594 67.058594 C 166.683594 67.058594 171.472656 80.035156 163.261719 90.957031 C 155.046875 101.882812 131.089844 99.835938 131.089844 99.835938 C 131.089844 99.835938 131.089844 103.25 131.089844 108.710938 C 122.878906 115.539062 108.503906 111.441406 107.820312 108.710938 C 109.191406 93.007812 104.398438 85.496094 104.398438 85.496094 C 104.398438 85.496094 94.816406 93.007812 89.339844 84.8125 C 83.113281 75.496094 93.449219 70.472656 93.449219 70.472656 C 93.449219 70.472656 97.554688 68.425781 101.660156 71.839844 C 107.136719 67.058594 114.664062 47.941406 116.035156 34.285156 C 118.085938 39.746094 117.402344 47.257812 117.402344 47.257812 L 158.46875 46.574219 C 158.46875 46.574219 159.835938 40.429688 157.785156 33.601562 C 163.945312 41.113281 167.367188 50.671875 166.683594 67.058594 Z M 166.683594 67.058594 " fill-opacity="1" fill-rule="nonzero"/><path fill="#c95c3f" d="M 102.007812 81.988281 C 101.898438 82.050781 101.777344 82.082031 101.664062 82.082031 C 101.425781 82.082031 101.199219 81.960938 101.070312 81.742188 C 100.558594 80.867188 100.03125 80.128906 99.492188 79.511719 C 99.152344 79.734375 98.667969 80.152344 98.425781 80.800781 C 98.117188 81.628906 98.261719 82.644531 98.851562 83.824219 C 99.019531 84.164062 98.882812 84.574219 98.546875 84.742188 C 98.445312 84.789062 98.34375 84.8125 98.238281 84.8125 C 97.988281 84.8125 97.746094 84.675781 97.628906 84.4375 C 96.855469 82.894531 96.695312 81.5 97.152344 80.300781 C 97.472656 79.457031 98.039062 78.890625 98.515625 78.53125 C 97.695312 77.835938 96.847656 77.425781 95.984375 77.3125 C 94.003906 77.058594 92.578125 78.453125 92.5625 78.46875 C 92.296875 78.734375 91.863281 78.734375 91.59375 78.46875 C 91.328125 78.199219 91.328125 77.769531 91.59375 77.503906 C 91.671875 77.425781 93.515625 75.613281 96.160156 75.957031 C 98.394531 76.246094 100.445312 77.960938 102.253906 81.054688 C 102.441406 81.378906 102.332031 81.796875 102.007812 81.988281 Z M 102.007812 81.988281 C 101.898438 82.050781 101.777344 82.082031 101.664062 82.082031 C 101.425781 82.082031 101.199219 81.960938 101.070312 81.742188 C 100.558594 80.867188 100.03125 80.128906 99.492188 79.511719 C 99.152344 79.734375 98.667969 80.152344 98.425781 80.800781 C 98.117188 81.628906 98.261719 82.644531 98.851562 83.824219 C 99.019531 84.164062 98.882812 84.574219 98.546875 84.742188 C 98.445312 84.789062 98.34375 84.8125 98.238281 84.8125 C 97.988281 84.8125 97.746094 84.675781 97.628906 84.4375 C 96.855469 82.894531 96.695312 81.5 97.152344 80.300781 C 97.472656 79.457031 98.039062 78.890625 98.515625 78.53125 C 97.695312 77.835938 96.847656 77.425781 95.984375 77.3125 C 94.003906 77.058594 92.578125 78.453125 92.5625 78.46875 C 92.296875 78.734375 91.863281 78.734375 91.59375 78.46875 C 91.328125 78.199219 91.328125 77.769531 91.59375 77.503906 C 91.671875 77.425781 93.515625 75.613281 96.160156 75.957031 C 98.394531 76.246094 100.445312 77.960938 102.253906 81.054688 C 102.441406 81.378906 102.332031 81.796875 102.007812 81.988281 Z M 102.007812 81.988281 " fill-opacity="1" fill-rule="nonzero"/><path fill="#000000" d="M 131.8125 29.039062 C 131.691406 28.679688 131.886719 28.292969 132.242188 28.175781 C 132.605469 28.054688 132.992188 28.25 133.109375 28.605469 C 135.019531 34.324219 134.625 44.964844 134.527344 46.972656 L 133.15625 46.996094 C 133.234375 45.332031 133.652344 34.546875 131.8125 29.039062 Z M 148.890625 46.492188 C 148.882812 46.574219 148.890625 46.65625 148.910156 46.734375 L 150.234375 46.714844 C 150.238281 46.695312 150.246094 46.679688 150.25 46.660156 C 150.308594 46.207031 151.597656 35.433594 147.445312 27.152344 C 147.277344 26.816406 146.867188 26.675781 146.527344 26.847656 C 146.1875 27.015625 146.050781 27.425781 146.222656 27.761719 C 150.183594 35.671875 148.90625 46.382812 148.890625 46.492188 Z M 93.449219 70.472656 C 93.449219 70.472656 94.078125 70.164062 95.085938 69.988281 C 96.628906 67.425781 99.3125 61.660156 100.289062 51.421875 C 100.324219 51.046875 100.050781 50.710938 99.671875 50.675781 C 99.292969 50.640625 98.960938 50.914062 98.925781 51.289062 C 97.601562 65.1875 92.976562 70.65625 92.933594 70.707031 C 92.914062 70.730469 92.90625 70.757812 92.890625 70.78125 C 93.234375 70.582031 93.449219 70.472656 93.449219 70.472656 Z M 93.449219 70.472656 " fill-opacity="1" fill-rule="nonzero"/></svg>