<svg xmlns="http://www.w3.org/2000/svg" xmlns:xlink="http://www.w3.org/1999/xlink" width="350" zoomAndPan="magnify" viewBox="0 0 262.5 262.500001" height="350" preserveAspectRatio="xMidYMid meet" version="1.0"><path fill="#ff9f6c" d="M 92.976562 31.457031 C 106.464844 12.597656 139.515625 11.25 156.375 25.398438 C 173.238281 39.542969 165.816406 69.179688 165.816406 69.179688 C 165.816406 69.179688 170.539062 81.976562 162.445312 92.753906 C 154.351562 103.53125 130.746094 101.507812 130.746094 101.507812 C 130.746094 101.507812 130.746094 104.878906 130.746094 110.265625 C 122.652344 117 108.488281 112.960938 107.816406 110.265625 C 109.164062 94.773438 104.445312 87.363281 104.445312 87.363281 C 104.445312 87.363281 95 94.773438 89.605469 86.691406 C 83.46875 77.5 93.652344 72.546875 93.652344 72.546875 C 93.652344 72.546875 79.488281 50.320312 92.976562 31.457031 Z M 92.976562 31.457031 C 106.464844 12.597656 139.515625 11.25 156.375 25.398438 C 173.238281 39.542969 165.816406 69.179688 165.816406 69.179688 C 165.816406 69.179688 170.539062 81.976562 162.445312 92.753906 C 154.351562 103.53125 130.746094 101.507812 130.746094 101.507812 C 130.746094 101.507812 130.746094 104.878906 130.746094 110.265625 C 122.652344 117 108.488281 112.960938 107.816406 110.265625 C 109.164062 94.773438 104.445312 87.363281 104.445312 87.363281 C 104.445312 87.363281 95 94.773438 89.605469 86.691406 C 83.46875 77.5 93.652344 72.546875 93.652344 72.546875 C 93.652344 72.546875 79.488281 50.320312 92.976562 31.457031 Z M 92.976562 31.457031 " fill-opacity="1" fill-rule="nonzero"/><path fill="#c95c3f" d="M 102.085938 83.90625 C 101.980469 83.96875 101.863281 83.996094 101.746094 83.996094 C 101.515625 83.996094 101.289062 83.878906 101.164062 83.664062 C 100.65625 82.796875 100.136719 82.074219 99.609375 81.460938 C 99.273438 81.683594 98.796875 82.09375 98.558594 82.734375 C 98.253906 83.546875 98.394531 84.550781 98.976562 85.714844 C 99.144531 86.050781 99.007812 86.453125 98.675781 86.621094 C 98.578125 86.667969 98.476562 86.691406 98.375 86.691406 C 98.125 86.691406 97.890625 86.554688 97.769531 86.320312 C 97.007812 84.796875 96.851562 83.425781 97.300781 82.238281 C 97.617188 81.40625 98.175781 80.847656 98.644531 80.492188 C 97.835938 79.808594 97.003906 79.402344 96.148438 79.292969 C 94.199219 79.042969 92.792969 80.417969 92.78125 80.433594 C 92.515625 80.695312 92.089844 80.695312 91.828125 80.433594 C 91.5625 80.167969 91.5625 79.742188 91.828125 79.480469 C 91.902344 79.402344 93.71875 77.621094 96.324219 77.957031 C 98.527344 78.242188 100.546875 79.933594 102.328125 82.984375 C 102.515625 83.304688 102.40625 83.71875 102.085938 83.90625 Z M 102.085938 83.90625 C 101.980469 83.96875 101.863281 83.996094 101.746094 83.996094 C 101.515625 83.996094 101.289062 83.878906 101.164062 83.664062 C 100.65625 82.796875 100.136719 82.074219 99.609375 81.460938 C 99.273438 81.683594 98.796875 82.09375 98.558594 82.734375 C 98.253906 83.546875 98.394531 84.550781 98.976562 85.714844 C 99.144531 86.050781 99.007812 86.453125 98.675781 86.621094 C 98.578125 86.667969 98.476562 86.691406 98.375 86.691406 C 98.125 86.691406 97.890625 86.554688 97.769531 86.320312 C 97.007812 84.796875 96.851562 83.425781 97.300781 82.238281 C 97.617188 81.40625 98.175781 80.847656 98.644531 80.492188 C 97.835938 79.808594 97.003906 79.402344 96.148438 79.292969 C 94.199219 79.042969 92.792969 80.417969 92.78125 80.433594 C 92.515625 80.695312 92.089844 80.695312 91.828125 80.433594 C 91.5625 80.167969 91.5625 79.742188 91.828125 79.480469 C 91.902344 79.402344 93.71875 77.621094 96.324219 77.957031 C 98.527344 78.242188 100.546875 79.933594 102.328125 82.984375 C 102.515625 83.304688 102.40625 83.71875 102.085938 83.90625 Z M 102.085938 83.90625 " fill-opacity="1" fill-rule="nonzero"/><path fill="#1b1a1c" d="M 124.003906 15.25 C 165.816406 13.226562 166.695312 45.019531 166.695312 45.019531 C 166.695312 45.019531 124.003906 45.558594 107.816406 46.234375 C 108.488281 60.378906 104.445312 71.15625 101.070312 72.503906 C 98.375 71.15625 93.652344 72.503906 93.652344 72.503906 C 80.164062 56.335938 82.1875 17.269531 124.003906 15.25 Z M 124.003906 15.25 C 165.816406 13.226562 166.695312 45.019531 166.695312 45.019531 C 166.695312 45.019531 124.003906 45.558594 107.816406 46.234375 C 108.488281 60.378906 104.445312 71.15625 101.070312 72.503906 C 98.375 71.15625 93.652344 72.503906 93.652344 72.503906 C 80.164062 56.335938 82.1875 17.269531 124.003906 15.25 Z M 124.003906 15.25 " fill-opacity="1" fill-rule="nonzero"/></svg>