<svg xmlns="http://www.w3.org/2000/svg" xmlns:xlink="http://www.w3.org/1999/xlink" width="350" zoomAndPan="magnify" viewBox="0 0 262.5 262.500001" height="350" preserveAspectRatio="xMidYMid meet" version="1.0"><path fill="#1b1a1c" d="M 159.214844 34.542969 C 178.019531 55.757812 165.75 76.386719 166.492188 92.738281 C 167.101562 106.074219 179.230469 107.890625 175.589844 123.046875 C 171.953125 138.203125 156.042969 132.636719 148.296875 142.445312 C 139.199219 153.964844 123.570312 156.996094 113.117188 148.507812 C 93.707031 132.746094 77.640625 145.800781 71.265625 126.683594 C 68.230469 117.589844 72.476562 112.136719 82.183594 98.796875 C 91.917969 85.417969 77.074219 70.367188 85.214844 49.089844 C 93.101562 28.480469 109.265625 24.125 119.183594 23.023438 C 130.113281 21.8125 146.984375 20.738281 159.214844 34.542969 Z M 159.214844 34.542969 C 178.019531 55.757812 165.75 76.386719 166.492188 92.738281 C 167.101562 106.074219 179.230469 107.890625 175.589844 123.046875 C 171.953125 138.203125 156.042969 132.636719 148.296875 142.445312 C 139.199219 153.964844 123.570312 156.996094 113.117188 148.507812 C 93.707031 132.746094 77.640625 145.800781 71.265625 126.683594 C 68.230469 117.589844 72.476562 112.136719 82.183594 98.796875 C 91.917969 85.417969 77.074219 70.367188 85.214844 49.089844 C 93.101562 28.480469 109.265625 24.125 119.183594 23.023438 C 130.113281 21.8125 146.984375 20.738281 159.214844 34.542969 Z M 159.214844 34.542969 " fill-opacity="1" fill-rule="nonzero"/><path fill="#ff9f6c" d="M 161.640625 70.914062 C 161.640625 70.914062 165.886719 82.429688 158.609375 92.128906 C 151.328125 101.828125 130.101562 100.011719 130.101562 100.011719 C 130.101562 100.011719 130.101562 103.042969 130.101562 107.890625 C 122.820312 113.953125 110.082031 110.316406 109.476562 107.890625 C 110.691406 93.949219 106.445312 87.28125 106.445312 87.28125 C 106.445312 87.28125 97.953125 93.949219 93.101562 86.675781 C 87.582031 78.402344 96.738281 73.945312 96.738281 73.945312 C 96.738281 73.945312 100.378906 72.125 104.019531 75.15625 C 108.871094 70.914062 115.542969 53.941406 116.753906 41.816406 C 118.574219 46.664062 117.96875 53.332031 117.96875 53.332031 L 154.363281 52.726562 C 154.363281 52.726562 155.574219 47.273438 153.753906 41.210938 C 159.214844 47.878906 162.246094 56.363281 161.640625 70.914062 Z M 161.640625 70.914062 C 161.640625 70.914062 165.886719 82.429688 158.609375 92.128906 C 151.328125 101.828125 130.101562 100.011719 130.101562 100.011719 C 130.101562 100.011719 130.101562 103.042969 130.101562 107.890625 C 122.820312 113.953125 110.082031 110.316406 109.476562 107.890625 C 110.691406 93.949219 106.445312 87.28125 106.445312 87.28125 C 106.445312 87.28125 97.953125 93.949219 93.101562 86.675781 C 87.582031 78.402344 96.738281 73.945312 96.738281 73.945312 C 96.738281 73.945312 100.378906 72.125 104.019531 75.15625 C 108.871094 70.914062 115.542969 53.941406 116.753906 41.816406 C 118.574219 46.664062 117.96875 53.332031 117.96875 53.332031 L 154.363281 52.726562 C 154.363281 52.726562 155.574219 47.273438 153.753906 41.210938 C 159.214844 47.878906 162.246094 56.363281 161.640625 70.914062 Z M 161.640625 70.914062 " fill-opacity="1" fill-rule="nonzero"/><path fill="#c95c3f" d="M 104.324219 84.167969 C 104.226562 84.222656 104.121094 84.25 104.019531 84.25 C 103.808594 84.25 103.605469 84.140625 103.492188 83.949219 C 103.039062 83.171875 102.570312 82.519531 102.09375 81.96875 C 101.792969 82.167969 101.367188 82.535156 101.152344 83.113281 C 100.875 83.847656 101.003906 84.75 101.527344 85.796875 C 101.675781 86.097656 101.554688 86.460938 101.257812 86.609375 C 101.167969 86.65625 101.078125 86.675781 100.984375 86.675781 C 100.761719 86.675781 100.550781 86.550781 100.441406 86.339844 C 99.757812 84.96875 99.617188 83.734375 100.019531 82.667969 C 100.304688 81.917969 100.804688 81.414062 101.230469 81.097656 C 100.5 80.480469 99.753906 80.117188 98.984375 80.015625 C 97.234375 79.789062 95.96875 81.027344 95.953125 81.042969 C 95.71875 81.277344 95.335938 81.277344 95.097656 81.042969 C 94.859375 80.804688 94.859375 80.421875 95.097656 80.183594 C 95.164062 80.117188 96.800781 78.507812 99.140625 78.8125 C 101.121094 79.070312 102.9375 80.59375 104.542969 83.339844 C 104.710938 83.628906 104.613281 84 104.324219 84.167969 Z M 104.324219 84.167969 C 104.226562 84.222656 104.121094 84.25 104.019531 84.25 C 103.808594 84.25 103.605469 84.140625 103.492188 83.949219 C 103.039062 83.171875 102.570312 82.519531 102.09375 81.96875 C 101.792969 82.167969 101.367188 82.535156 101.152344 83.113281 C 100.875 83.847656 101.003906 84.75 101.527344 85.796875 C 101.675781 86.097656 101.554688 86.460938 101.257812 86.609375 C 101.167969 86.65625 101.078125 86.675781 100.984375 86.675781 C 100.761719 86.675781 100.550781 86.550781 100.441406 86.339844 C 99.757812 84.96875 99.617188 83.734375 100.019531 82.667969 C 100.304688 81.917969 100.804688 81.414062 101.230469 81.097656 C 100.5 80.480469 99.753906 80.117188 98.984375 80.015625 C 97.234375 79.789062 95.96875 81.027344 95.953125 81.042969 C 95.71875 81.277344 95.335938 81.277344 95.097656 81.042969 C 94.859375 80.804688 94.859375 80.421875 95.097656 80.183594 C 95.164062 80.117188 96.800781 78.507812 99.140625 78.8125 C 101.121094 79.070312 102.9375 80.59375 104.542969 83.339844 C 104.710938 83.628906 104.613281 84 104.324219 84.167969 Z M 104.324219 84.167969 " fill-opacity="1" fill-rule="nonzero"/><path fill="#000000" d="M 130.738281 37.15625 C 130.632812 36.839844 130.804688 36.496094 131.121094 36.390625 C 131.441406 36.285156 131.78125 36.457031 131.886719 36.773438 C 133.582031 41.851562 133.230469 51.296875 133.144531 53.082031 L 131.929688 53.101562 C 132 51.625 132.367188 42.050781 130.738281 37.15625 Z M 145.875 52.652344 C 145.867188 52.726562 145.875 52.800781 145.890625 52.867188 L 147.0625 52.847656 C 147.066406 52.832031 147.078125 52.820312 147.078125 52.804688 C 147.128906 52.398438 148.273438 42.835938 144.59375 35.484375 C 144.441406 35.183594 144.078125 35.0625 143.78125 35.210938 C 143.480469 35.363281 143.359375 35.726562 143.507812 36.023438 C 147.019531 43.046875 145.886719 52.558594 145.875 52.652344 Z M 96.738281 73.945312 C 96.738281 73.945312 97.296875 73.667969 98.191406 73.511719 C 99.554688 71.238281 101.9375 66.117188 102.800781 57.027344 C 102.832031 56.695312 102.589844 56.398438 102.253906 56.367188 C 101.917969 56.335938 101.625 56.582031 101.59375 56.914062 C 100.417969 69.25 96.324219 74.105469 96.28125 74.152344 C 96.265625 74.171875 96.257812 74.199219 96.242188 74.21875 C 96.546875 74.039062 96.738281 73.945312 96.738281 73.945312 Z M 96.738281 73.945312 " fill-opacity="1" fill-rule="nonzero"/></svg>