<svg xmlns="http://www.w3.org/2000/svg" xmlns:xlink="http://www.w3.org/1999/xlink" width="350" zoomAndPan="magnify" viewBox="0 0 262.5 262.500001" height="350" preserveAspectRatio="xMidYMid meet" version="1.0"><path fill="#c1701b" d="M 117.007812 102.175781 C 109.464844 103.546875 106.722656 102.175781 100.550781 99.441406 C 94.378906 96.703125 88.519531 105.753906 78.609375 100.808594 C 66.265625 94.648438 76.550781 83.015625 71.066406 76.171875 C 61.960938 64.8125 67.636719 48.800781 76.550781 41.957031 C 85.464844 35.113281 79.210938 15.632812 108.09375 8.425781 C 132.78125 2.269531 139.636719 12.53125 139.636719 12.53125 C 139.636719 12.53125 154.722656 8.425781 164.320312 17.324219 C 173.921875 26.21875 169.121094 36.484375 173.921875 41.957031 C 178.722656 47.433594 186.265625 59.75 178.035156 73.4375 C 169.808594 87.121094 182.835938 91.914062 171.179688 100.808594 C 159.523438 109.703125 156.09375 100.808594 149.234375 102.175781 C 142.378906 103.546875 137.578125 106.28125 128.664062 102.863281 C 119.75 99.441406 117.007812 102.175781 117.007812 102.175781 Z M 117.007812 102.175781 C 109.464844 103.546875 106.722656 102.175781 100.550781 99.441406 C 94.378906 96.703125 88.519531 105.753906 78.609375 100.808594 C 66.265625 94.648438 76.550781 83.015625 71.066406 76.171875 C 61.960938 64.8125 67.636719 48.800781 76.550781 41.957031 C 85.464844 35.113281 79.210938 15.632812 108.09375 8.425781 C 132.78125 2.269531 139.636719 12.53125 139.636719 12.53125 C 139.636719 12.53125 154.722656 8.425781 164.320312 17.324219 C 173.921875 26.21875 169.121094 36.484375 173.921875 41.957031 C 178.722656 47.433594 186.265625 59.75 178.035156 73.4375 C 169.808594 87.121094 182.835938 91.914062 171.179688 100.808594 C 159.523438 109.703125 156.09375 100.808594 149.234375 102.175781 C 142.378906 103.546875 137.578125 106.28125 128.664062 102.863281 C 119.75 99.441406 117.007812 102.175781 117.007812 102.175781 Z M 117.007812 102.175781 " fill-opacity="1" fill-rule="nonzero"/><path fill="#ff9f6c" d="M 166.378906 66.175781 C 166.378906 66.175781 171.179688 79.179688 162.949219 90.128906 C 154.722656 101.078125 130.722656 99.023438 130.722656 99.023438 C 130.722656 99.023438 130.722656 102.445312 130.722656 107.917969 C 122.492188 114.761719 108.09375 110.65625 107.410156 107.917969 C 108.78125 92.179688 103.980469 84.652344 103.980469 84.652344 C 103.980469 84.652344 94.378906 92.179688 88.894531 83.96875 C 85.863281 79.429688 86.753906 75.910156 88.46875 73.488281 C 92.15625 69.433594 95.75 71.382812 101.238281 70.699219 C 110.152344 69.332031 99.867188 61.117188 112.207031 57.695312 C 124.550781 54.277344 122.5625 47.972656 125.921875 35.113281 C 130.035156 19.375 140.320312 28.957031 140.320312 28.957031 C 140.320312 28.957031 151.980469 18.691406 153.351562 33.746094 C 154.84375 50.160156 156.09375 53.589844 158.835938 55.644531 C 161.578125 57.695312 166.804688 60.441406 166.59375 65.226562 C 166.460938 65.839844 166.378906 66.175781 166.378906 66.175781 Z M 166.378906 66.175781 C 166.378906 66.175781 171.179688 79.179688 162.949219 90.128906 C 154.722656 101.078125 130.722656 99.023438 130.722656 99.023438 C 130.722656 99.023438 130.722656 102.445312 130.722656 107.917969 C 122.492188 114.761719 108.09375 110.65625 107.410156 107.917969 C 108.78125 92.179688 103.980469 84.652344 103.980469 84.652344 C 103.980469 84.652344 94.378906 92.179688 88.894531 83.96875 C 85.863281 79.429688 86.753906 75.910156 88.46875 73.488281 C 92.15625 69.433594 95.75 71.382812 101.238281 70.699219 C 110.152344 69.332031 99.867188 61.117188 112.207031 57.695312 C 124.550781 54.277344 122.5625 47.972656 125.921875 35.113281 C 130.035156 19.375 140.320312 28.957031 140.320312 28.957031 C 140.320312 28.957031 151.980469 18.691406 153.351562 33.746094 C 154.84375 50.160156 156.09375 53.589844 158.835938 55.644531 C 161.578125 57.695312 166.804688 60.441406 166.59375 65.226562 C 166.460938 65.839844 166.378906 66.175781 166.378906 66.175781 Z M 166.378906 66.175781 " fill-opacity="1" fill-rule="nonzero"/><path fill="#c95c3f" d="M 101.582031 81.136719 C 101.472656 81.199219 101.355469 81.230469 101.238281 81.230469 C 101.003906 81.230469 100.773438 81.109375 100.644531 80.890625 C 100.132812 80.011719 99.601562 79.277344 99.0625 78.65625 C 98.722656 78.878906 98.238281 79.296875 97.996094 79.945312 C 97.6875 80.773438 97.828125 81.796875 98.421875 82.976562 C 98.589844 83.316406 98.453125 83.726562 98.117188 83.894531 C 98.015625 83.945312 97.914062 83.96875 97.808594 83.96875 C 97.558594 83.96875 97.316406 83.828125 97.195312 83.589844 C 96.421875 82.042969 96.261719 80.648438 96.71875 79.445312 C 97.042969 78.601562 97.605469 78.03125 98.085938 77.671875 C 97.261719 76.976562 96.414062 76.5625 95.546875 76.453125 C 93.566406 76.195312 92.136719 77.59375 92.121094 77.609375 C 91.855469 77.875 91.421875 77.875 91.152344 77.609375 C 90.886719 77.339844 90.886719 76.910156 91.152344 76.640625 C 91.230469 76.5625 93.074219 74.75 95.722656 75.09375 C 97.964844 75.382812 100.019531 77.101562 101.828125 80.203125 C 102.019531 80.527344 101.910156 80.949219 101.582031 81.136719 Z M 101.582031 81.136719 C 101.472656 81.199219 101.355469 81.230469 101.238281 81.230469 C 101.003906 81.230469 100.773438 81.109375 100.644531 80.890625 C 100.132812 80.011719 99.601562 79.277344 99.0625 78.65625 C 98.722656 78.878906 98.238281 79.296875 97.996094 79.945312 C 97.6875 80.773438 97.828125 81.796875 98.421875 82.976562 C 98.589844 83.316406 98.453125 83.726562 98.117188 83.894531 C 98.015625 83.945312 97.914062 83.96875 97.808594 83.96875 C 97.558594 83.96875 97.316406 83.828125 97.195312 83.589844 C 96.421875 82.042969 96.261719 80.648438 96.71875 79.445312 C 97.042969 78.601562 97.605469 78.03125 98.085938 77.671875 C 97.261719 76.976562 96.414062 76.5625 95.546875 76.453125 C 93.566406 76.195312 92.136719 77.59375 92.121094 77.609375 C 91.855469 77.875 91.421875 77.875 91.152344 77.609375 C 90.886719 77.339844 90.886719 76.910156 91.152344 76.640625 C 91.230469 76.5625 93.074219 74.75 95.722656 75.09375 C 97.964844 75.382812 100.019531 77.101562 101.828125 80.203125 C 102.019531 80.527344 101.910156 80.949219 101.582031 81.136719 Z M 101.582031 81.136719 " fill-opacity="1" fill-rule="nonzero"/><path fill="#9e5418" d="M 87.457031 75.335938 C 82.054688 73.316406 80.078125 69.890625 79.386719 67.3125 C 78.011719 62.179688 80.449219 56.433594 83.292969 53.269531 C 84.773438 51.621094 86.148438 50.601562 87.363281 49.699219 C 90.019531 47.726562 92.3125 46.023438 94.777344 38.34375 C 99.304688 24.25 107.910156 21.242188 108.273438 21.121094 C 108.632812 21.003906 109.019531 21.195312 109.140625 21.554688 C 109.261719 21.914062 109.066406 22.300781 108.707031 22.421875 C 108.585938 22.460938 100.371094 25.410156 96.085938 38.761719 C 93.484375 46.855469 91.027344 48.683594 88.183594 50.796875 C 86.964844 51.703125 85.703125 52.636719 84.316406 54.183594 C 81.707031 57.082031 79.46875 62.320312 80.710938 66.960938 C 81.59375 70.25 84.070312 72.652344 88.066406 74.105469 C 87.835938 74.492188 87.628906 74.902344 87.457031 75.335938 Z M 176.875 60.027344 C 176.007812 57.917969 174.699219 56.425781 173.3125 54.847656 C 170.570312 51.730469 167.464844 48.195312 167.265625 38.449219 C 166.945312 22.652344 158.890625 20.644531 158.546875 20.566406 C 158.179688 20.484375 157.816406 20.714844 157.730469 21.082031 C 157.644531 21.445312 157.875 21.8125 158.242188 21.902344 C 158.3125 21.917969 165.597656 23.835938 165.894531 38.476562 C 166.101562 48.722656 169.382812 52.457031 172.28125 55.75 C 173.589844 57.242188 174.824219 58.648438 175.605469 60.546875 C 176.824219 63.507812 176.644531 66.859375 175.136719 69.289062 C 173.699219 71.605469 171.132812 72.972656 167.707031 73.246094 C 167.738281 73.6875 167.753906 74.148438 167.761719 74.617188 C 172.691406 74.238281 175.128906 71.90625 176.304688 70.007812 C 178.039062 67.214844 178.253906 63.386719 176.875 60.027344 Z M 176.875 60.027344 " fill-opacity="1" fill-rule="nonzero"/></svg>