<svg xmlns="http://www.w3.org/2000/svg" xmlns:xlink="http://www.w3.org/1999/xlink" width="350" zoomAndPan="magnify" viewBox="0 0 262.5 262.500001" height="350" preserveAspectRatio="xMidYMid meet" version="1.0"><path fill="#1b1a1c" d="M 161.089844 76.714844 C 161.089844 76.714844 154.929688 80.695312 149.128906 82.019531 C 143.332031 83.347656 115.300781 84.433594 115.300781 84.433594 L 102.132812 81.78125 L 92.46875 77.800781 C 92.46875 77.800781 84.101562 68.410156 82.761719 55.480469 C 61.453125 56.101562 69.566406 37.285156 71.445312 32.328125 C 72.972656 28.304688 75.917969 21.714844 84.976562 20.027344 C 92.21875 18.679688 95.082031 22.628906 96.210938 25.703125 C 109.171875 16.683594 126.324219 18.71875 127.109375 18.816406 C 128.003906 16.632812 130.132812 14.339844 134.875 13.003906 C 143.695312 10.519531 149.414062 13.589844 152.148438 15.925781 C 153.898438 17.417969 157.800781 20.308594 158.59375 24.292969 C 164.351562 29.046875 168.589844 37.46875 165.5625 44.390625 C 161.816406 52.953125 169.425781 57.898438 168.945312 66.824219 C 168.351562 77.757812 161.089844 76.714844 161.089844 76.714844 Z M 161.089844 76.714844 C 161.089844 76.714844 154.929688 80.695312 149.128906 82.019531 C 143.332031 83.347656 115.300781 84.433594 115.300781 84.433594 L 102.132812 81.78125 L 92.46875 77.800781 C 92.46875 77.800781 84.101562 68.410156 82.761719 55.480469 C 61.453125 56.101562 69.566406 37.285156 71.445312 32.328125 C 72.972656 28.304688 75.917969 21.714844 84.976562 20.027344 C 92.21875 18.679688 95.082031 22.628906 96.210938 25.703125 C 109.171875 16.683594 126.324219 18.71875 127.109375 18.816406 C 128.003906 16.632812 130.132812 14.339844 134.875 13.003906 C 143.695312 10.519531 149.414062 13.589844 152.148438 15.925781 C 153.898438 17.417969 157.800781 20.308594 158.59375 24.292969 C 164.351562 29.046875 168.589844 37.46875 165.5625 44.390625 C 161.816406 52.953125 169.425781 57.898438 168.945312 66.824219 C 168.351562 77.757812 161.089844 76.714844 161.089844 76.714844 Z M 161.089844 76.714844 " fill-opacity="1" fill-rule="nonzero"/><path fill="#ff9f6c" d="M 162.058594 70.121094 C 162.058594 70.121094 166.378906 81.832031 158.96875 91.695312 C 151.558594 101.558594 129.945312 99.710938 129.945312 99.710938 C 129.945312 99.710938 129.945312 102.792969 129.945312 107.722656 C 122.539062 113.886719 109.570312 110.191406 108.953125 107.722656 C 110.1875 93.546875 105.863281 86.765625 105.863281 86.765625 C 105.863281 86.765625 97.21875 93.546875 92.28125 86.148438 C 86.664062 77.734375 93.3125 73.175781 95.984375 73.203125 C 103.179688 71.890625 102.414062 80.933594 105.476562 80.132812 C 108.535156 79.328125 109.824219 74.101562 107.085938 71.207031 C 104.347656 68.3125 103.941406 62.015625 112.484375 60.59375 C 121.179688 59.144531 117.441406 50.25 120.035156 40.722656 C 123.578125 27.695312 137.042969 35.105469 137.042969 35.105469 C 151.21875 30.277344 152.507812 36.148438 152.507812 43.226562 C 152.507812 50.300781 154.445312 56.972656 159.117188 58.902344 C 163.789062 60.832031 162.058594 70.121094 162.058594 70.121094 Z M 162.058594 70.121094 C 162.058594 70.121094 166.378906 81.832031 158.96875 91.695312 C 151.558594 101.558594 129.945312 99.710938 129.945312 99.710938 C 129.945312 99.710938 129.945312 102.792969 129.945312 107.722656 C 122.539062 113.886719 109.570312 110.191406 108.953125 107.722656 C 110.1875 93.546875 105.863281 86.765625 105.863281 86.765625 C 105.863281 86.765625 97.21875 93.546875 92.28125 86.148438 C 86.664062 77.734375 93.3125 73.175781 95.984375 73.203125 C 103.179688 71.890625 102.414062 80.933594 105.476562 80.132812 C 108.535156 79.328125 109.824219 74.101562 107.085938 71.207031 C 104.347656 68.3125 103.941406 62.015625 112.484375 60.59375 C 121.179688 59.144531 117.441406 50.25 120.035156 40.722656 C 123.578125 27.695312 137.042969 35.105469 137.042969 35.105469 C 151.21875 30.277344 152.507812 36.148438 152.507812 43.226562 C 152.507812 50.300781 154.445312 56.972656 159.117188 58.902344 C 163.789062 60.832031 162.058594 70.121094 162.058594 70.121094 Z M 162.058594 70.121094 " fill-opacity="1" fill-rule="nonzero"/><path fill="#c95c3f" d="M 103.707031 83.597656 C 103.609375 83.65625 103.5 83.683594 103.394531 83.683594 C 103.183594 83.683594 102.976562 83.574219 102.863281 83.375 C 102.398438 82.585938 101.921875 81.921875 101.4375 81.359375 C 101.132812 81.566406 100.695312 81.9375 100.476562 82.527344 C 100.199219 83.273438 100.328125 84.191406 100.859375 85.257812 C 101.011719 85.5625 100.890625 85.929688 100.582031 86.082031 C 100.496094 86.128906 100.402344 86.148438 100.308594 86.148438 C 100.082031 86.148438 99.863281 86.023438 99.753906 85.808594 C 99.058594 84.414062 98.914062 83.160156 99.328125 82.074219 C 99.617188 81.3125 100.125 80.800781 100.558594 80.476562 C 99.816406 79.851562 99.050781 79.476562 98.273438 79.378906 C 96.488281 79.144531 95.199219 80.40625 95.1875 80.417969 C 94.945312 80.660156 94.554688 80.660156 94.3125 80.417969 C 94.074219 80.179688 94.074219 79.789062 94.3125 79.546875 C 94.382812 79.480469 96.046875 77.847656 98.429688 78.15625 C 100.445312 78.414062 102.296875 79.964844 103.929688 82.753906 C 104.101562 83.050781 104 83.425781 103.707031 83.597656 Z M 103.707031 83.597656 C 103.609375 83.65625 103.5 83.683594 103.394531 83.683594 C 103.183594 83.683594 102.976562 83.574219 102.863281 83.375 C 102.398438 82.585938 101.921875 81.921875 101.4375 81.359375 C 101.132812 81.566406 100.695312 81.9375 100.476562 82.527344 C 100.199219 83.273438 100.328125 84.191406 100.859375 85.257812 C 101.011719 85.5625 100.890625 85.929688 100.582031 86.082031 C 100.496094 86.128906 100.402344 86.148438 100.308594 86.148438 C 100.082031 86.148438 99.863281 86.023438 99.753906 85.808594 C 99.058594 84.414062 98.914062 83.160156 99.328125 82.074219 C 99.617188 81.3125 100.125 80.800781 100.558594 80.476562 C 99.816406 79.851562 99.050781 79.476562 98.273438 79.378906 C 96.488281 79.144531 95.199219 80.40625 95.1875 80.417969 C 94.945312 80.660156 94.554688 80.660156 94.3125 80.417969 C 94.074219 80.179688 94.074219 79.789062 94.3125 79.546875 C 94.382812 79.480469 96.046875 77.847656 98.429688 78.15625 C 100.445312 78.414062 102.296875 79.964844 103.929688 82.753906 C 104.101562 83.050781 104 83.425781 103.707031 83.597656 Z M 103.707031 83.597656 " fill-opacity="1" fill-rule="nonzero"/><path fill="#000000" d="M 93.058594 45.941406 C 90.988281 50.679688 88.847656 55.582031 82.902344 56.644531 C 82.851562 56.261719 82.804688 55.871094 82.761719 55.480469 C 82.679688 55.484375 82.605469 55.484375 82.527344 55.484375 C 82.5625 55.472656 82.59375 55.449219 82.636719 55.441406 C 87.859375 54.53125 89.8125 50.285156 91.804688 45.730469 C 88.300781 47.359375 85.09375 48.171875 82.210938 48.171875 C 80.1875 48.171875 78.324219 47.773438 76.628906 46.972656 C 72.375 44.96875 70.261719 40.96875 69.320312 38.503906 C 69.515625 37.777344 69.730469 37.082031 69.945312 36.425781 C 70.300781 37.753906 72.097656 43.476562 77.164062 45.863281 C 81.222656 47.773438 86.40625 47.136719 92.574219 43.980469 C 93.167969 42.65625 93.816406 41.339844 94.566406 40.101562 C 94.5625 40.074219 94.550781 40.046875 94.546875 40.019531 C 94.546875 39.96875 94.433594 35.089844 91.835938 32.046875 C 82.59375 22.59375 72.84375 30.078125 72.433594 30.402344 C 72.355469 30.460938 72.269531 30.496094 72.183594 30.515625 C 72.472656 29.847656 72.808594 29.152344 73.203125 28.445312 C 76.566406 26.539062 84.914062 23.203125 92.75 31.214844 C 94.664062 33.457031 95.367188 36.4375 95.628906 38.289062 C 98.339844 32.910156 96.429688 26.332031 96.234375 25.6875 C 96.566406 25.457031 96.90625 25.234375 97.246094 25.015625 C 97.308594 25.082031 97.359375 25.15625 97.390625 25.246094 C 97.503906 25.59375 100.148438 33.820312 96.003906 40.105469 C 94.828125 41.890625 93.929688 43.949219 93.058594 45.941406 Z M 157.878906 22.222656 C 152.4375 18.496094 146.859375 17.894531 142.113281 18.320312 C 141.785156 17.734375 140.929688 15.96875 141.519531 14.386719 C 141.84375 13.503906 142.585938 12.792969 143.714844 12.253906 C 143.074219 12.167969 142.394531 12.117188 141.691406 12.101562 C 141.074219 12.632812 140.621094 13.25 140.355469 13.964844 C 139.714844 15.703125 140.332031 17.492188 140.796875 18.460938 C 139.351562 18.652344 137.996094 18.921875 136.761719 19.210938 C 133.640625 18.316406 129.226562 17.789062 127.726562 17.628906 C 127.476562 18.019531 127.277344 18.414062 127.117188 18.804688 C 127.472656 18.839844 133.054688 19.402344 136.570312 20.4375 L 136.730469 20.484375 L 136.890625 20.445312 C 142.484375 19.125 150.820312 18.085938 158.59375 24.285156 C 158.445312 23.5625 158.199219 22.875 157.878906 22.222656 Z M 104.753906 41.121094 C 104.414062 41.144531 104.152344 41.4375 104.175781 41.773438 C 104.179688 41.847656 104.570312 49.222656 99.820312 52.953125 C 95.355469 56.453125 92.65625 60.78125 92.414062 64.832031 C 92.234375 67.851562 93.359375 70.667969 95.734375 73.214844 C 95.820312 73.207031 95.90625 73.203125 95.984375 73.203125 C 96.40625 73.125 96.796875 73.085938 97.167969 73.078125 C 97.140625 72.96875 97.097656 72.863281 97.011719 72.78125 C 94.609375 70.382812 93.476562 67.730469 93.648438 64.90625 C 93.867188 61.207031 96.394531 57.203125 100.582031 53.921875 C 105.851562 49.789062 105.429688 42.027344 105.40625 41.699219 C 105.386719 41.359375 105.101562 41.101562 104.753906 41.121094 Z M 104.753906 41.121094 " fill-opacity="1" fill-rule="nonzero"/></svg>