<svg xmlns="http://www.w3.org/2000/svg" xmlns:xlink="http://www.w3.org/1999/xlink" width="350" zoomAndPan="magnify" viewBox="0 0 262.5 262.500001" height="350" preserveAspectRatio="xMidYMid meet" version="1.0"><path fill="#a8410e" d="M 173.382812 47.082031 C 175.902344 59.984375 171.535156 65.175781 168.84375 60.820312 C 174.558594 90.640625 159.769531 86.285156 159.769531 86.285156 L 154.894531 85.613281 L 110.183594 93.320312 C 110.183594 93.320312 108.671875 99.519531 103.460938 99.015625 C 98.25 98.515625 96.570312 85.78125 96.570312 85.78125 C 96.570312 85.78125 98.65625 82.949219 93.375 85.613281 C 88.933594 91.296875 80.769531 86.285156 81.945312 74.558594 C 72.703125 83.4375 71.1875 66.179688 79.929688 42.558594 C 88.667969 18.9375 109.683594 15.445312 119.765625 14.414062 C 154.222656 10.898438 170.859375 34.183594 173.382812 47.082031 Z M 173.382812 47.082031 C 175.902344 59.984375 171.535156 65.175781 168.84375 60.820312 C 174.558594 90.640625 159.769531 86.285156 159.769531 86.285156 L 154.894531 85.613281 L 110.183594 93.320312 C 110.183594 93.320312 108.671875 99.519531 103.460938 99.015625 C 98.25 98.515625 96.570312 85.78125 96.570312 85.78125 C 96.570312 85.78125 98.65625 82.949219 93.375 85.613281 C 88.933594 91.296875 80.769531 86.285156 81.945312 74.558594 C 72.703125 83.4375 71.1875 66.179688 79.929688 42.558594 C 88.667969 18.9375 109.683594 15.445312 119.765625 14.414062 C 154.222656 10.898438 170.859375 34.183594 173.382812 47.082031 Z M 173.382812 47.082031 " fill-opacity="1" fill-rule="nonzero"/><path fill="#ff9f6c" d="M 163.589844 68.066406 C 163.589844 68.066406 168.101562 80.265625 160.371094 90.542969 C 152.636719 100.816406 130.085938 98.890625 130.085938 98.890625 C 130.085938 98.890625 130.085938 102.101562 130.085938 107.238281 C 122.355469 113.660156 108.824219 109.808594 108.179688 107.238281 C 109.46875 92.46875 104.960938 85.40625 104.960938 85.40625 C 104.960938 85.40625 95.9375 92.46875 90.785156 84.761719 C 84.921875 76 94.648438 71.277344 94.648438 71.277344 C 94.648438 71.277344 96.4375 73.46875 101.277344 72.964844 C 109.34375 72.128906 105.898438 48.863281 111.949219 45.597656 C 112.285156 57.660156 126.824219 56.402344 126.738281 44.84375 C 129.152344 56.648438 142.265625 54.371094 143.464844 43.25 C 143.527344 55.753906 156.828125 57.324219 156.238281 43.753906 C 161.933594 46.140625 163.296875 63.835938 163.589844 68.066406 Z M 163.589844 68.066406 C 163.589844 68.066406 168.101562 80.265625 160.371094 90.542969 C 152.636719 100.816406 130.085938 98.890625 130.085938 98.890625 C 130.085938 98.890625 130.085938 102.101562 130.085938 107.238281 C 122.355469 113.660156 108.824219 109.808594 108.179688 107.238281 C 109.46875 92.46875 104.960938 85.40625 104.960938 85.40625 C 104.960938 85.40625 95.9375 92.46875 90.785156 84.761719 C 84.921875 76 94.648438 71.277344 94.648438 71.277344 C 94.648438 71.277344 96.4375 73.46875 101.277344 72.964844 C 109.34375 72.128906 105.898438 48.863281 111.949219 45.597656 C 112.285156 57.660156 126.824219 56.402344 126.738281 44.84375 C 129.152344 56.648438 142.265625 54.371094 143.464844 43.25 C 143.527344 55.753906 156.828125 57.324219 156.238281 43.753906 C 161.933594 46.140625 163.296875 63.835938 163.589844 68.066406 Z M 163.589844 68.066406 " fill-opacity="1" fill-rule="nonzero"/><path fill="#c95c3f" d="M 102.707031 82.105469 C 102.605469 82.164062 102.492188 82.195312 102.382812 82.195312 C 102.160156 82.195312 101.945312 82.078125 101.824219 81.875 C 101.34375 81.050781 100.847656 80.359375 100.339844 79.777344 C 100.019531 79.988281 99.566406 80.378906 99.335938 80.988281 C 99.046875 81.765625 99.179688 82.722656 99.738281 83.832031 C 99.894531 84.152344 99.765625 84.535156 99.449219 84.695312 C 99.355469 84.742188 99.257812 84.761719 99.160156 84.761719 C 98.925781 84.761719 98.695312 84.632812 98.585938 84.40625 C 97.855469 82.957031 97.707031 81.648438 98.136719 80.519531 C 98.4375 79.726562 98.96875 79.191406 99.421875 78.855469 C 98.648438 78.203125 97.851562 77.8125 97.035156 77.710938 C 95.171875 77.464844 93.832031 78.78125 93.816406 78.792969 C 93.566406 79.046875 93.15625 79.046875 92.90625 78.792969 C 92.65625 78.542969 92.65625 78.136719 92.90625 77.886719 C 92.980469 77.8125 94.714844 76.113281 97.203125 76.433594 C 99.304688 76.707031 101.234375 78.320312 102.9375 81.226562 C 103.117188 81.535156 103.015625 81.929688 102.707031 82.105469 Z M 102.707031 82.105469 C 102.605469 82.164062 102.492188 82.195312 102.382812 82.195312 C 102.160156 82.195312 101.945312 82.078125 101.824219 81.875 C 101.34375 81.050781 100.847656 80.359375 100.339844 79.777344 C 100.019531 79.988281 99.566406 80.378906 99.335938 80.988281 C 99.046875 81.765625 99.179688 82.722656 99.738281 83.832031 C 99.894531 84.152344 99.765625 84.535156 99.449219 84.695312 C 99.355469 84.742188 99.257812 84.761719 99.160156 84.761719 C 98.925781 84.761719 98.695312 84.632812 98.585938 84.40625 C 97.855469 82.957031 97.707031 81.648438 98.136719 80.519531 C 98.4375 79.726562 98.96875 79.191406 99.421875 78.855469 C 98.648438 78.203125 97.851562 77.8125 97.035156 77.710938 C 95.171875 77.464844 93.832031 78.78125 93.816406 78.792969 C 93.566406 79.046875 93.15625 79.046875 92.90625 78.792969 C 92.65625 78.542969 92.65625 78.136719 92.90625 77.886719 C 92.980469 77.8125 94.714844 76.113281 97.203125 76.433594 C 99.304688 76.707031 101.234375 78.320312 102.9375 81.226562 C 103.117188 81.535156 103.015625 81.929688 102.707031 82.105469 Z M 102.707031 82.105469 " fill-opacity="1" fill-rule="nonzero"/><path fill="#993310" d="M 94.671875 71.300781 C 94.65625 71.285156 94.648438 71.277344 94.648438 71.277344 C 94.660156 71.285156 94.664062 71.292969 94.671875 71.300781 Z M 93.46875 71.984375 C 94.160156 71.515625 94.648438 71.277344 94.648438 71.277344 C 94.5 71.167969 90.863281 68.417969 92.269531 61.421875 C 92.324219 61.152344 92.199219 60.875 91.957031 60.738281 C 91.714844 60.601562 91.414062 60.632812 91.207031 60.820312 C 89.804688 62.066406 88.355469 62.371094 87.421875 61.613281 C 85.414062 59.972656 85.65625 54.128906 90.933594 45.160156 C 91.113281 44.855469 91.007812 44.460938 90.703125 44.28125 C 90.394531 44.105469 90 44.207031 89.820312 44.511719 C 83.742188 54.84375 84.289062 60.714844 86.605469 62.605469 C 87.738281 63.527344 89.25 63.542969 90.761719 62.710938 C 90.101562 68.371094 92.570312 71.167969 93.46875 71.984375 Z M 168.300781 46.472656 C 168.242188 46.121094 167.910156 45.890625 167.558594 45.949219 C 167.207031 46.007812 166.972656 46.339844 167.03125 46.691406 C 170.082031 64.183594 164.390625 67.078125 163.542969 67.40625 C 163.5625 67.648438 163.578125 67.875 163.589844 68.066406 C 163.589844 68.066406 163.671875 68.285156 163.789062 68.679688 C 164.554688 68.46875 171.699219 65.960938 168.300781 46.472656 Z M 168.300781 46.472656 " fill-opacity="1" fill-rule="nonzero"/></svg>