<svg xmlns="http://www.w3.org/2000/svg" xmlns:xlink="http://www.w3.org/1999/xlink" width="350" zoomAndPan="magnify" viewBox="0 0 262.5 262.500001" height="350" preserveAspectRatio="xMidYMid meet" version="1.0"><defs><clipPath id="e9cf19d57e"><path d="M 82.035156 12 L 173 12 L 173 77 L 82.035156 77 Z M 82.035156 12 " clip-rule="nonzero"/></clipPath></defs><g clip-path="url(#e9cf19d57e)"><path fill="#1b1a1c" d="M 169.105469 57.054688 C 165.699219 58.929688 162.761719 55.339844 162.761719 55.339844 L 105.78125 76.097656 L 93.324219 72.339844 C 93.324219 72.339844 88.179688 67.53125 87.667969 57.398438 C 86.699219 60.449219 82.007812 59.804688 82.695312 50.359375 C 83.378906 40.914062 88.179688 9.65625 133.101562 13.09375 C 136.53125 13.605469 137.558594 13.777344 137.558594 13.777344 C 137.558594 13.777344 155.363281 12.921875 165.136719 25.285156 C 175.023438 37.796875 173.238281 54.78125 169.105469 57.054688 Z M 169.105469 57.054688 C 165.699219 58.929688 162.761719 55.339844 162.761719 55.339844 L 105.78125 76.097656 L 93.324219 72.339844 C 93.324219 72.339844 88.179688 67.53125 87.667969 57.398438 C 86.699219 60.449219 82.007812 59.804688 82.695312 50.359375 C 83.378906 40.914062 88.179688 9.65625 133.101562 13.09375 C 136.53125 13.605469 137.558594 13.777344 137.558594 13.777344 C 137.558594 13.777344 155.363281 12.921875 165.136719 25.285156 C 175.023438 37.796875 173.238281 54.78125 169.105469 57.054688 Z M 169.105469 57.054688 " fill-opacity="1" fill-rule="nonzero"/></g><path fill="#ff9f6c" d="M 164.605469 67.917969 C 164.605469 67.917969 169.207031 80.425781 161.320312 90.957031 C 153.433594 101.492188 130.429688 99.515625 130.429688 99.515625 C 130.429688 99.515625 130.429688 102.808594 130.429688 108.074219 C 122.542969 114.65625 108.742188 110.707031 108.082031 108.074219 C 109.398438 92.933594 104.796875 85.691406 104.796875 85.691406 C 104.796875 85.691406 95.597656 92.933594 90.339844 85.035156 C 84.359375 76.050781 94.28125 71.210938 94.28125 71.210938 C 94.28125 71.210938 99.839844 69.335938 104.46875 73.070312 C 106.785156 71.78125 107.984375 68.5625 107.46875 55.683594 C 111.585938 59.675781 117.457031 56.496094 117.070312 52.761719 C 118.742188 60.617188 127.445312 56.453125 128.214844 51.644531 C 129.929688 58 138.179688 57.234375 138.546875 48.46875 C 138.929688 39.195312 142.015625 31.8125 144.929688 39.023438 C 146.902344 34.730469 149.859375 34.429688 150.117188 41.515625 C 150.375 48.597656 150.503906 54.652344 154.746094 56.066406 C 158.992188 57.484375 160.789062 51.558594 161.046875 50.015625 C 161.265625 54.339844 164.355469 56.882812 166.089844 57.480469 C 165.707031 63.511719 164.605469 67.917969 164.605469 67.917969 Z M 164.605469 67.917969 C 164.605469 67.917969 169.207031 80.425781 161.320312 90.957031 C 153.433594 101.492188 130.429688 99.515625 130.429688 99.515625 C 130.429688 99.515625 130.429688 102.808594 130.429688 108.074219 C 122.542969 114.65625 108.742188 110.707031 108.082031 108.074219 C 109.398438 92.933594 104.796875 85.691406 104.796875 85.691406 C 104.796875 85.691406 95.597656 92.933594 90.339844 85.035156 C 84.359375 76.050781 94.28125 71.210938 94.28125 71.210938 C 94.28125 71.210938 99.839844 69.335938 104.46875 73.070312 C 106.785156 71.78125 107.984375 68.5625 107.46875 55.683594 C 111.585938 59.675781 117.457031 56.496094 117.070312 52.761719 C 118.742188 60.617188 127.445312 56.453125 128.214844 51.644531 C 129.929688 58 138.179688 57.234375 138.546875 48.46875 C 138.929688 39.195312 142.015625 31.8125 144.929688 39.023438 C 146.902344 34.730469 149.859375 34.429688 150.117188 41.515625 C 150.375 48.597656 150.503906 54.652344 154.746094 56.066406 C 158.992188 57.484375 160.789062 51.558594 161.046875 50.015625 C 161.265625 54.339844 164.355469 56.882812 166.089844 57.480469 C 165.707031 63.511719 164.605469 67.917969 164.605469 67.917969 Z M 164.605469 67.917969 " fill-opacity="1" fill-rule="nonzero"/><path fill="#c95c3f" d="M 102.5 82.3125 C 102.394531 82.371094 102.28125 82.402344 102.167969 82.402344 C 101.945312 82.402344 101.722656 82.285156 101.601562 82.074219 C 101.109375 81.230469 100.601562 80.519531 100.085938 79.921875 C 99.757812 80.140625 99.292969 80.539062 99.0625 81.164062 C 98.765625 81.960938 98.902344 82.941406 99.46875 84.082031 C 99.632812 84.40625 99.5 84.800781 99.175781 84.964844 C 99.082031 85.011719 98.980469 85.035156 98.882812 85.035156 C 98.640625 85.035156 98.410156 84.902344 98.292969 84.667969 C 97.550781 83.183594 97.398438 81.839844 97.839844 80.683594 C 98.148438 79.871094 98.6875 79.324219 99.148438 78.976562 C 98.363281 78.3125 97.554688 77.914062 96.730469 77.804688 C 94.847656 77.554688 93.445312 78.902344 93.429688 78.917969 C 93.171875 79.171875 92.757812 79.171875 92.503906 78.914062 C 92.246094 78.65625 92.246094 78.242188 92.503906 77.984375 C 92.578125 77.910156 94.347656 76.164062 96.882812 76.496094 C 99.03125 76.773438 101 78.429688 102.738281 81.410156 C 102.917969 81.726562 102.8125 82.128906 102.5 82.3125 Z M 102.5 82.3125 C 102.394531 82.371094 102.28125 82.402344 102.167969 82.402344 C 101.945312 82.402344 101.722656 82.285156 101.601562 82.074219 C 101.109375 81.230469 100.601562 80.519531 100.085938 79.921875 C 99.757812 80.140625 99.292969 80.539062 99.0625 81.164062 C 98.765625 81.960938 98.902344 82.941406 99.46875 84.082031 C 99.632812 84.40625 99.5 84.800781 99.175781 84.964844 C 99.082031 85.011719 98.980469 85.035156 98.882812 85.035156 C 98.640625 85.035156 98.410156 84.902344 98.292969 84.667969 C 97.550781 83.183594 97.398438 81.839844 97.839844 80.683594 C 98.148438 79.871094 98.6875 79.324219 99.148438 78.976562 C 98.363281 78.3125 97.554688 77.914062 96.730469 77.804688 C 94.847656 77.554688 93.445312 78.902344 93.429688 78.917969 C 93.171875 79.171875 92.757812 79.171875 92.503906 78.914062 C 92.246094 78.65625 92.246094 78.242188 92.503906 77.984375 C 92.578125 77.910156 94.347656 76.164062 96.882812 76.496094 C 99.03125 76.773438 101 78.429688 102.738281 81.410156 C 102.917969 81.726562 102.8125 82.128906 102.5 82.3125 Z M 102.5 82.3125 " fill-opacity="1" fill-rule="nonzero"/><path fill="#000000" d="M 105.640625 55.117188 C 104.796875 57.296875 103.175781 58.269531 101.6875 58.214844 C 100.179688 58.167969 98.613281 57.101562 97.898438 54.855469 C 96.375 57.527344 94.375 57.589844 93.472656 57.457031 C 92.035156 57.242188 90.703125 56.214844 89.953125 54.917969 C 89.410156 56.46875 88.894531 57.828125 88.886719 57.847656 C 88.582031 58.472656 88.128906 59.019531 87.816406 59.230469 C 87.75 58.640625 87.699219 58.03125 87.667969 57.398438 C 87.675781 57.371094 88.6875 54.664062 89.359375 52.5625 C 89.457031 52.253906 89.761719 52.0625 90.085938 52.113281 C 90.402344 52.160156 90.640625 52.429688 90.644531 52.753906 C 90.664062 54.273438 92.132812 55.925781 93.667969 56.15625 C 95.308594 56.402344 96.683594 55.046875 97.546875 52.347656 C 97.644531 52.042969 97.941406 51.855469 98.261719 51.894531 C 98.574219 51.9375 98.816406 52.199219 98.832031 52.515625 C 98.964844 55.472656 100.425781 56.859375 101.726562 56.898438 C 103.035156 56.941406 104.539062 55.664062 104.851562 52.734375 C 104.882812 52.417969 105.140625 52.171875 105.457031 52.148438 C 105.777344 52.128906 106.0625 52.332031 106.140625 52.644531 C 106.546875 54.246094 107.15625 55.242188 107.617188 55.816406 C 107.570312 55.769531 107.519531 55.730469 107.46875 55.683594 C 107.496094 56.332031 107.515625 56.953125 107.535156 57.554688 C 107.296875 57.394531 106.414062 56.707031 105.640625 55.117188 Z M 105.640625 55.117188 C 104.796875 57.296875 103.175781 58.269531 101.6875 58.214844 C 100.179688 58.167969 98.613281 57.101562 97.898438 54.855469 C 96.375 57.527344 94.375 57.589844 93.472656 57.457031 C 92.035156 57.242188 90.703125 56.214844 89.953125 54.917969 C 89.410156 56.46875 88.894531 57.828125 88.886719 57.847656 C 88.582031 58.472656 88.128906 59.019531 87.816406 59.230469 C 87.75 58.640625 87.699219 58.03125 87.667969 57.398438 C 87.675781 57.371094 88.6875 54.664062 89.359375 52.5625 C 89.457031 52.253906 89.761719 52.0625 90.085938 52.113281 C 90.402344 52.160156 90.640625 52.429688 90.644531 52.753906 C 90.664062 54.273438 92.132812 55.925781 93.667969 56.15625 C 95.308594 56.402344 96.683594 55.046875 97.546875 52.347656 C 97.644531 52.042969 97.941406 51.855469 98.261719 51.894531 C 98.574219 51.9375 98.816406 52.199219 98.832031 52.515625 C 98.964844 55.472656 100.425781 56.859375 101.726562 56.898438 C 103.035156 56.941406 104.539062 55.664062 104.851562 52.734375 C 104.882812 52.417969 105.140625 52.171875 105.457031 52.148438 C 105.777344 52.128906 106.0625 52.332031 106.140625 52.644531 C 106.546875 54.246094 107.15625 55.242188 107.617188 55.816406 C 107.570312 55.769531 107.519531 55.730469 107.46875 55.683594 C 107.496094 56.332031 107.515625 56.953125 107.535156 57.554688 C 107.296875 57.394531 106.414062 56.707031 105.640625 55.117188 Z M 105.640625 55.117188 " fill-opacity="1" fill-rule="nonzero"/></svg>