<svg xmlns="http://www.w3.org/2000/svg" xmlns:xlink="http://www.w3.org/1999/xlink" width="350" zoomAndPan="magnify" viewBox="0 0 262.5 262.500001" height="350" preserveAspectRatio="xMidYMid meet" version="1.0"><defs><clipPath id="e4acbf1092"><path d="M 82 20 L 167.433594 20 L 167.433594 160 L 82 160 Z M 82 20 " clip-rule="nonzero"/></clipPath></defs><g clip-path="url(#e4acbf1092)"><path fill="#5c2626" d="M 122.472656 20.871094 C 139.988281 19.582031 167.433594 27.902344 167.433594 67.15625 C 167.433594 106.414062 161.59375 143.910156 137.070312 154.457031 C 112.546875 165.003906 86.273438 155.628906 87.4375 153.871094 C 89.191406 150.941406 90.359375 148.597656 92.109375 141.566406 C 89.191406 150.941406 81.015625 153.871094 82.769531 150.941406 C 88.023438 139.222656 85.6875 113.445312 85.105469 104.65625 C 80.433594 55.4375 86.273438 42.550781 93.863281 33.761719 C 100.109375 26.554688 106.707031 22.042969 122.472656 20.871094 Z M 122.472656 20.871094 C 139.988281 19.582031 167.433594 27.902344 167.433594 67.15625 C 167.433594 106.414062 161.59375 143.910156 137.070312 154.457031 C 112.546875 165.003906 86.273438 155.628906 87.4375 153.871094 C 89.191406 150.941406 90.359375 148.597656 92.109375 141.566406 C 89.191406 150.941406 81.015625 153.871094 82.769531 150.941406 C 88.023438 139.222656 85.6875 113.445312 85.105469 104.65625 C 80.433594 55.4375 86.273438 42.550781 93.863281 33.761719 C 100.109375 26.554688 106.707031 22.042969 122.472656 20.871094 Z M 122.472656 20.871094 " fill-opacity="1" fill-rule="nonzero"/></g><path fill="#ff9f6c" d="M 157.507812 91.765625 C 150.5 101.140625 130.0625 99.382812 130.0625 99.382812 C 130.0625 99.382812 130.0625 102.3125 130.0625 107 C 123.058594 112.859375 110.796875 109.34375 110.210938 107 C 111.378906 93.523438 107.292969 87.078125 107.292969 87.078125 C 107.292969 87.078125 100.050781 92.761719 95.320312 87.605469 C 94.972656 83.796875 94.796875 80.046875 94.855469 76.53125 C 96.316406 74.949219 97.949219 74.128906 97.949219 74.128906 C 97.949219 74.128906 102.621094 72.371094 105.539062 74.714844 C 107.292969 73.542969 130.648438 67.097656 147.582031 37.21875 C 147.582031 37.21875 161.59375 45.417969 160.425781 71.199219 C 160.425781 71.257812 164.511719 82.390625 157.507812 91.765625 Z M 157.507812 91.765625 C 150.5 101.140625 130.0625 99.382812 130.0625 99.382812 C 130.0625 99.382812 130.0625 102.3125 130.0625 107 C 123.058594 112.859375 110.796875 109.34375 110.210938 107 C 111.378906 93.523438 107.292969 87.078125 107.292969 87.078125 C 107.292969 87.078125 100.050781 92.761719 95.320312 87.605469 C 94.972656 83.796875 94.796875 80.046875 94.855469 76.53125 C 96.316406 74.949219 97.949219 74.128906 97.949219 74.128906 C 97.949219 74.128906 102.621094 72.371094 105.539062 74.714844 C 107.292969 73.542969 130.648438 67.097656 147.582031 37.21875 C 147.582031 37.21875 161.59375 45.417969 160.425781 71.199219 C 160.425781 71.257812 164.511719 82.390625 157.507812 91.765625 Z M 157.507812 91.765625 C 150.5 101.140625 130.0625 99.382812 130.0625 99.382812 C 130.0625 99.382812 130.0625 102.3125 130.0625 107 C 123.058594 112.859375 110.796875 109.34375 110.210938 107 C 111.378906 93.523438 107.292969 87.078125 107.292969 87.078125 C 107.292969 87.078125 100.050781 92.761719 95.320312 87.605469 C 94.972656 83.796875 94.796875 80.046875 94.855469 76.53125 C 96.316406 74.949219 97.949219 74.128906 97.949219 74.128906 C 97.949219 74.128906 102.621094 72.371094 105.539062 74.714844 C 107.292969 73.542969 130.648438 67.097656 147.582031 37.21875 C 147.582031 37.21875 161.59375 45.417969 160.425781 71.199219 C 160.425781 71.257812 164.511719 82.390625 157.507812 91.765625 Z M 157.507812 91.765625 " fill-opacity="1" fill-rule="nonzero"/><path fill="#c95c3f" d="M 105.25 84.089844 C 105.132812 84.148438 105.074219 84.148438 104.957031 84.148438 C 104.78125 84.148438 104.546875 84.03125 104.429688 83.855469 C 104.023438 83.09375 103.554688 82.449219 103.085938 81.921875 C 102.796875 82.097656 102.386719 82.449219 102.152344 83.035156 C 101.863281 83.738281 102.035156 84.617188 102.503906 85.613281 C 102.621094 85.90625 102.503906 86.257812 102.269531 86.375 C 102.210938 86.433594 102.09375 86.433594 102.035156 86.433594 C 101.804688 86.433594 101.628906 86.316406 101.511719 86.082031 C 100.867188 84.734375 100.695312 83.5625 101.101562 82.507812 C 101.394531 81.804688 101.863281 81.277344 102.269531 80.984375 C 101.570312 80.398438 100.867188 80.046875 100.109375 79.929688 C 98.417969 79.695312 97.191406 80.925781 97.191406 80.925781 C 96.957031 81.160156 96.605469 81.160156 96.371094 80.925781 C 96.140625 80.691406 96.140625 80.339844 96.371094 80.105469 C 96.429688 80.046875 98.007812 78.464844 100.285156 78.757812 C 102.210938 78.992188 103.964844 80.457031 105.480469 83.152344 C 105.65625 83.5625 105.539062 83.914062 105.25 84.089844 Z M 105.25 84.089844 C 105.132812 84.148438 105.074219 84.148438 104.957031 84.148438 C 104.78125 84.148438 104.546875 84.03125 104.429688 83.855469 C 104.023438 83.09375 103.554688 82.449219 103.085938 81.921875 C 102.796875 82.097656 102.386719 82.449219 102.152344 83.035156 C 101.863281 83.738281 102.035156 84.617188 102.503906 85.613281 C 102.621094 85.90625 102.503906 86.257812 102.269531 86.375 C 102.210938 86.433594 102.09375 86.433594 102.035156 86.433594 C 101.804688 86.433594 101.628906 86.316406 101.511719 86.082031 C 100.867188 84.734375 100.695312 83.5625 101.101562 82.507812 C 101.394531 81.804688 101.863281 81.277344 102.269531 80.984375 C 101.570312 80.398438 100.867188 80.046875 100.109375 79.929688 C 98.417969 79.695312 97.191406 80.925781 97.191406 80.925781 C 96.957031 81.160156 96.605469 81.160156 96.371094 80.925781 C 96.140625 80.691406 96.140625 80.339844 96.371094 80.105469 C 96.429688 80.046875 98.007812 78.464844 100.285156 78.757812 C 102.210938 78.992188 103.964844 80.457031 105.480469 83.152344 C 105.65625 83.5625 105.539062 83.914062 105.25 84.089844 Z M 105.25 84.089844 " fill-opacity="1" fill-rule="nonzero"/><path fill="#441717" d="M 97.949219 104.65625 C 97.714844 104.65625 97.480469 104.480469 97.367188 104.246094 C 89.832031 79.753906 96.140625 53.210938 96.199219 52.976562 C 96.257812 52.683594 96.605469 52.449219 96.898438 52.566406 C 97.191406 52.625 97.425781 52.976562 97.308594 53.269531 C 97.25 53.503906 91 79.753906 98.476562 103.953125 C 98.589844 104.246094 98.417969 104.597656 98.066406 104.714844 C 98.066406 104.65625 98.007812 104.65625 97.949219 104.65625 Z M 101.394531 73.542969 C 103.320312 71.375 111.378906 61.824219 115.464844 47.996094 C 115.582031 47.703125 115.40625 47.351562 115.058594 47.292969 C 114.765625 47.175781 114.414062 47.351562 114.355469 47.703125 C 109.800781 63.171875 100.226562 73.132812 100.109375 73.25 C 99.992188 73.367188 99.933594 73.542969 99.933594 73.71875 C 100.402344 73.660156 100.867188 73.601562 101.394531 73.542969 Z M 153.070312 95.574219 C 153.242188 100.144531 153.242188 108.230469 151.667969 116.257812 C 151.609375 116.550781 151.84375 116.902344 152.132812 116.960938 C 152.191406 116.960938 152.191406 116.960938 152.25 116.960938 C 152.542969 116.960938 152.777344 116.785156 152.835938 116.492188 C 154.46875 107.9375 154.410156 99.324219 154.179688 94.871094 C 153.828125 95.105469 153.476562 95.339844 153.070312 95.574219 Z M 153.070312 95.574219 " fill-opacity="1" fill-rule="nonzero"/></svg>