<svg xmlns="http://www.w3.org/2000/svg" xmlns:xlink="http://www.w3.org/1999/xlink" width="350" zoomAndPan="magnify" viewBox="0 0 262.5 262.500001" height="350" preserveAspectRatio="xMidYMid meet" version="1.0"><path fill="#5c2626" d="M 91.992188 81.304688 C 86.339844 82.960938 76.371094 78.65625 78.949219 69.175781 C 72.34375 70.664062 68.480469 59.363281 74.40625 55.457031 C 67.550781 54.089844 65.683594 40.554688 75.152344 36.828125 C 69.421875 32.976562 76.773438 17.328125 85.496094 20.308594 C 82.507812 13.726562 93.972656 1.058594 104.4375 6.027344 C 106.933594 -2.667969 124.253906 -6.640625 129.863281 4.410156 C 132.851562 -3.289062 159.148438 -1.175781 156.65625 13.726562 C 167.621094 8.757812 177.839844 22.917969 171.484375 30.246094 C 179.835938 28.878906 184.820312 46.515625 176.71875 52.226562 C 180.457031 57.941406 179.460938 67.628906 171.859375 68.996094 C 175.222656 74.582031 166.5 82.410156 161.515625 78.558594 C 156.53125 74.707031 135.59375 66.636719 135.59375 66.636719 L 100.574219 74.957031 L 99.207031 82.90625 C 99.207031 82.90625 94.128906 80.675781 91.992188 81.304688 Z M 91.992188 81.304688 " fill-opacity="1" fill-rule="nonzero"/><path fill="#ff9f6c" d="M 163.203125 69.78125 C 163.203125 69.78125 167.664062 81.84375 160.019531 92 C 152.375 102.15625 130.082031 100.25 130.082031 100.25 C 130.082031 100.25 130.082031 103.425781 130.082031 108.503906 C 122.441406 114.851562 109.0625 111.042969 108.425781 108.503906 C 109.703125 93.902344 105.242188 86.921875 105.242188 86.921875 C 105.242188 86.921875 96.324219 93.902344 91.230469 86.285156 C 85.433594 77.625 95.050781 72.957031 95.050781 72.957031 C 95.050781 72.957031 99.335938 71.023438 102.992188 73.09375 C 107.144531 70.609375 108.664062 63.011719 105.257812 59.121094 C 110.40625 59.371094 114.957031 50.820312 111.050781 44.527344 C 119.773438 49.867188 127.8125 44.21875 128.332031 40.636719 C 130.078125 47.175781 143.703125 46.660156 145.695312 41.359375 C 146.714844 46.039062 155.976562 49 160.234375 45.769531 C 156.351562 50.921875 160.566406 59.429688 164.554688 59.929688 C 164.554688 59.929688 161.148438 64.046875 163.203125 69.78125 Z M 163.203125 69.78125 C 163.203125 69.78125 167.664062 81.84375 160.019531 92 C 152.375 102.15625 130.082031 100.25 130.082031 100.25 C 130.082031 100.25 130.082031 103.425781 130.082031 108.503906 C 122.441406 114.851562 109.0625 111.042969 108.425781 108.503906 C 109.703125 93.902344 105.242188 86.921875 105.242188 86.921875 C 105.242188 86.921875 96.324219 93.902344 91.230469 86.285156 C 85.433594 77.625 95.050781 72.957031 95.050781 72.957031 C 95.050781 72.957031 99.335938 71.023438 102.992188 73.09375 C 107.144531 70.609375 108.664062 63.011719 105.257812 59.121094 C 110.40625 59.371094 114.957031 50.820312 111.050781 44.527344 C 119.773438 49.867188 127.8125 44.21875 128.332031 40.636719 C 130.078125 47.175781 143.703125 46.660156 145.695312 41.359375 C 146.714844 46.039062 155.976562 49 160.234375 45.769531 C 156.351562 50.921875 160.566406 59.429688 164.554688 59.929688 C 164.554688 59.929688 161.148438 64.046875 163.203125 69.78125 Z M 163.203125 69.78125 " fill-opacity="1" fill-rule="nonzero"/><path fill="#c95c3f" d="M 103.015625 83.660156 C 102.914062 83.71875 102.804688 83.746094 102.695312 83.746094 C 102.476562 83.746094 102.261719 83.632812 102.144531 83.433594 C 101.667969 82.617188 101.175781 81.933594 100.675781 81.355469 C 100.359375 81.566406 99.910156 81.953125 99.683594 82.554688 C 99.394531 83.324219 99.53125 84.269531 100.078125 85.367188 C 100.238281 85.679688 100.109375 86.0625 99.796875 86.21875 C 99.703125 86.265625 99.605469 86.285156 99.511719 86.285156 C 99.277344 86.285156 99.050781 86.15625 98.941406 85.933594 C 98.222656 84.5 98.070312 83.207031 98.5 82.089844 C 98.796875 81.304688 99.324219 80.777344 99.769531 80.445312 C 99.003906 79.800781 98.214844 79.417969 97.410156 79.3125 C 95.566406 79.078125 94.242188 80.375 94.226562 80.386719 C 93.980469 80.632812 93.574219 80.632812 93.328125 80.386719 C 93.078125 80.140625 93.078125 79.738281 93.328125 79.488281 C 93.398438 79.417969 95.113281 77.738281 97.574219 78.054688 C 99.652344 78.324219 101.5625 79.917969 103.246094 82.792969 C 103.421875 83.09375 103.320312 83.484375 103.015625 83.660156 Z M 103.015625 83.660156 C 102.914062 83.71875 102.804688 83.746094 102.695312 83.746094 C 102.476562 83.746094 102.261719 83.632812 102.144531 83.433594 C 101.667969 82.617188 101.175781 81.933594 100.675781 81.355469 C 100.359375 81.566406 99.910156 81.953125 99.683594 82.554688 C 99.394531 83.324219 99.53125 84.269531 100.078125 85.367188 C 100.238281 85.679688 100.109375 86.0625 99.796875 86.21875 C 99.703125 86.265625 99.605469 86.285156 99.511719 86.285156 C 99.277344 86.285156 99.050781 86.15625 98.941406 85.933594 C 98.222656 84.5 98.070312 83.207031 98.5 82.089844 C 98.796875 81.304688 99.324219 80.777344 99.769531 80.445312 C 99.003906 79.800781 98.214844 79.417969 97.410156 79.3125 C 95.566406 79.078125 94.242188 80.375 94.226562 80.386719 C 93.980469 80.632812 93.574219 80.632812 93.328125 80.386719 C 93.078125 80.140625 93.078125 79.738281 93.328125 79.488281 C 93.398438 79.417969 95.113281 77.738281 97.574219 78.054688 C 99.652344 78.324219 101.5625 79.917969 103.246094 82.792969 C 103.421875 83.09375 103.320312 83.484375 103.015625 83.660156 Z M 103.015625 83.660156 " fill-opacity="1" fill-rule="nonzero"/><path fill="#441717" d="M 89.199219 43.589844 C 88.925781 43.589844 88.667969 43.410156 88.589844 43.128906 C 87.589844 39.691406 87.757812 36.792969 89.085938 34.519531 C 90.824219 31.542969 93.90625 30.777344 94.039062 30.746094 C 94.378906 30.664062 94.722656 30.875 94.804688 31.214844 C 94.886719 31.554688 94.675781 31.898438 94.335938 31.980469 C 94.308594 31.984375 91.632812 32.664062 90.175781 35.171875 C 89.039062 37.132812 88.917969 39.691406 89.8125 42.777344 C 89.910156 43.113281 89.714844 43.464844 89.378906 43.5625 C 89.320312 43.582031 89.257812 43.589844 89.199219 43.589844 Z M 119.046875 20.140625 C 119.234375 19.882812 123.761719 13.796875 130.214844 18.222656 C 130.503906 18.421875 130.902344 18.351562 131.101562 18.058594 C 131.300781 17.773438 131.226562 17.375 130.9375 17.179688 C 123.445312 12.039062 118.066406 19.324219 118.011719 19.398438 C 117.804688 19.683594 117.871094 20.082031 118.15625 20.285156 C 118.269531 20.367188 118.398438 20.40625 118.527344 20.40625 C 118.726562 20.40625 118.921875 20.3125 119.046875 20.140625 Z M 166.578125 36.175781 C 167.398438 33.363281 166.796875 30.722656 164.894531 28.742188 C 163.128906 26.910156 160.414062 25.933594 158.074219 26.238281 C 156.828125 21.15625 151.386719 20.601562 148.585938 21.046875 C 148.238281 21.101562 148.003906 21.429688 148.058594 21.773438 C 148.113281 22.121094 148.441406 22.359375 148.785156 22.300781 C 149.078125 22.253906 155.984375 21.242188 156.949219 27.078125 C 156.976562 27.25 157.078125 27.40625 157.226562 27.503906 C 157.375 27.601562 157.554688 27.632812 157.726562 27.589844 C 159.769531 27.089844 162.34375 27.925781 163.972656 29.621094 C 165.550781 31.261719 166.042969 33.460938 165.355469 35.824219 C 165.257812 36.160156 165.453125 36.511719 165.789062 36.609375 C 165.847656 36.625 165.910156 36.632812 165.96875 36.632812 C 166.242188 36.632812 166.5 36.453125 166.578125 36.175781 Z M 93.074219 74.242188 C 93.449219 73.945312 93.804688 73.703125 94.105469 73.507812 C 94.042969 73.363281 93.929688 73.238281 93.773438 73.171875 C 93.558594 73.082031 88.5625 70.863281 91.203125 64.476562 C 91.335938 64.152344 91.179688 63.78125 90.855469 63.644531 C 90.53125 63.515625 90.160156 63.667969 90.023438 63.992188 C 87.226562 70.761719 92.03125 73.699219 93.074219 74.242188 Z M 93.074219 74.242188 " fill-opacity="1" fill-rule="nonzero"/></svg>