<svg xmlns="http://www.w3.org/2000/svg" xmlns:xlink="http://www.w3.org/1999/xlink" width="350" zoomAndPan="magnify" viewBox="0 0 262.5 262.500001" height="350" preserveAspectRatio="xMidYMid meet" version="1.0"><path fill="#ff9f6c" d="M 92.914062 29.375 C 106.292969 10.648438 139.0625 9.308594 155.78125 23.355469 C 172.5 37.398438 165.144531 66.824219 165.144531 66.824219 C 165.144531 66.824219 169.828125 79.53125 161.800781 90.234375 C 153.777344 100.933594 130.367188 98.929688 130.367188 98.929688 C 130.367188 98.929688 130.367188 102.273438 130.367188 107.621094 C 122.34375 114.308594 108.296875 110.296875 107.628906 107.621094 C 108.964844 92.238281 104.285156 84.882812 104.285156 84.882812 C 104.285156 84.882812 94.921875 92.238281 89.570312 84.214844 C 83.488281 75.085938 93.585938 70.167969 93.585938 70.167969 C 93.585938 70.167969 79.539062 48.101562 92.914062 29.375 Z M 92.914062 29.375 C 106.292969 10.648438 139.0625 9.308594 155.78125 23.355469 C 172.5 37.398438 165.144531 66.824219 165.144531 66.824219 C 165.144531 66.824219 169.828125 79.53125 161.800781 90.234375 C 153.777344 100.933594 130.367188 98.929688 130.367188 98.929688 C 130.367188 98.929688 130.367188 102.273438 130.367188 107.621094 C 122.34375 114.308594 108.296875 110.296875 107.628906 107.621094 C 108.964844 92.238281 104.285156 84.882812 104.285156 84.882812 C 104.285156 84.882812 94.921875 92.238281 89.570312 84.214844 C 83.488281 75.085938 93.585938 70.167969 93.585938 70.167969 C 93.585938 70.167969 79.539062 48.101562 92.914062 29.375 Z M 92.914062 29.375 " fill-opacity="1" fill-rule="nonzero"/><path fill="#c95c3f" d="M 101.945312 81.449219 C 101.839844 81.511719 101.726562 81.539062 101.609375 81.539062 C 101.378906 81.539062 101.15625 81.421875 101.03125 81.207031 C 100.53125 80.347656 100.015625 79.628906 99.488281 79.019531 C 99.15625 79.242188 98.683594 79.648438 98.449219 80.285156 C 98.144531 81.09375 98.285156 82.089844 98.863281 83.246094 C 99.03125 83.578125 98.894531 83.980469 98.566406 84.144531 C 98.46875 84.191406 98.367188 84.214844 98.265625 84.214844 C 98.019531 84.214844 97.785156 84.078125 97.667969 83.84375 C 96.910156 82.335938 96.757812 80.972656 97.203125 79.792969 C 97.515625 78.96875 98.070312 78.414062 98.535156 78.0625 C 97.734375 77.382812 96.90625 76.976562 96.0625 76.867188 C 94.128906 76.621094 92.734375 77.984375 92.71875 78 C 92.457031 78.261719 92.035156 78.261719 91.773438 78 C 91.511719 77.738281 91.511719 77.316406 91.773438 77.054688 C 91.851562 76.976562 93.648438 75.207031 96.234375 75.542969 C 98.417969 75.824219 100.421875 77.503906 102.1875 80.535156 C 102.375 80.851562 102.265625 81.261719 101.945312 81.449219 Z M 101.945312 81.449219 C 101.839844 81.511719 101.726562 81.539062 101.609375 81.539062 C 101.378906 81.539062 101.15625 81.421875 101.03125 81.207031 C 100.53125 80.347656 100.015625 79.628906 99.488281 79.019531 C 99.15625 79.242188 98.683594 79.648438 98.449219 80.285156 C 98.144531 81.09375 98.285156 82.089844 98.863281 83.246094 C 99.03125 83.578125 98.894531 83.980469 98.566406 84.144531 C 98.46875 84.191406 98.367188 84.214844 98.265625 84.214844 C 98.019531 84.214844 97.785156 84.078125 97.667969 83.84375 C 96.910156 82.335938 96.757812 80.972656 97.203125 79.792969 C 97.515625 78.96875 98.070312 78.414062 98.535156 78.0625 C 97.734375 77.382812 96.90625 76.976562 96.0625 76.867188 C 94.128906 76.621094 92.734375 77.984375 92.71875 78 C 92.457031 78.261719 92.035156 78.261719 91.773438 78 C 91.511719 77.738281 91.511719 77.316406 91.773438 77.054688 C 91.851562 76.976562 93.648438 75.207031 96.234375 75.542969 C 98.417969 75.824219 100.421875 77.503906 102.1875 80.535156 C 102.375 80.851562 102.265625 81.261719 101.945312 81.449219 Z M 101.945312 81.449219 " fill-opacity="1" fill-rule="nonzero"/><path fill="#c1721b" d="M 182.851562 36.90625 C 179.84375 42.269531 168.535156 42.488281 168.535156 42.488281 C 168.535156 42.488281 173.910156 45.703125 172.460938 47.328125 C 168.386719 51.890625 146.375 51.394531 138.023438 46.515625 C 139.34375 48.726562 139.585938 51.210938 138.976562 51.472656 C 137.339844 52.175781 129.03125 51.996094 109.140625 42.574219 C 109.402344 63.25 108.160156 68.875 102.402344 71.949219 C 98.542969 68.351562 93.585938 70.167969 93.585938 70.167969 C 93.585938 70.167969 85.195312 62.726562 84.542969 46.761719 C 83.886719 30.796875 95.800781 11.375 132.433594 12.347656 C 166.886719 13.265625 184.421875 34.15625 182.851562 36.90625 Z M 182.851562 36.90625 C 179.84375 42.269531 168.535156 42.488281 168.535156 42.488281 C 168.535156 42.488281 173.910156 45.703125 172.460938 47.328125 C 168.386719 51.890625 146.375 51.394531 138.023438 46.515625 C 139.34375 48.726562 139.585938 51.210938 138.976562 51.472656 C 137.339844 52.175781 129.03125 51.996094 109.140625 42.574219 C 109.402344 63.25 108.160156 68.875 102.402344 71.949219 C 98.542969 68.351562 93.585938 70.167969 93.585938 70.167969 C 93.585938 70.167969 85.195312 62.726562 84.542969 46.761719 C 83.886719 30.796875 95.800781 11.375 132.433594 12.347656 C 166.886719 13.265625 184.421875 34.15625 182.851562 36.90625 Z M 182.851562 36.90625 " fill-opacity="1" fill-rule="nonzero"/><path fill="#9e5418" d="M 93.640625 33.054688 C 93.339844 33.054688 93.066406 32.851562 92.992188 32.546875 C 92.902344 32.1875 93.125 31.824219 93.484375 31.738281 L 96.769531 30.933594 C 97.128906 30.847656 97.492188 31.066406 97.578125 31.425781 C 97.664062 31.785156 97.445312 32.144531 97.085938 32.234375 L 93.800781 33.035156 C 93.746094 33.050781 93.691406 33.054688 93.640625 33.054688 Z M 101.167969 27.992188 L 101.429688 25.636719 C 101.472656 25.269531 101.207031 24.941406 100.839844 24.898438 C 100.472656 24.859375 100.144531 25.125 100.101562 25.492188 L 99.839844 27.847656 C 99.800781 28.214844 100.0625 28.542969 100.429688 28.585938 C 100.457031 28.585938 100.480469 28.589844 100.507812 28.589844 C 100.84375 28.589844 101.132812 28.335938 101.167969 27.992188 Z M 170.132812 41.832031 C 169.675781 41.574219 156.523438 34.46875 149.339844 32.246094 C 148.988281 32.136719 148.613281 32.335938 148.503906 32.6875 C 148.394531 33.042969 148.59375 33.417969 148.945312 33.523438 C 154.796875 35.332031 165.730469 40.964844 168.546875 42.488281 C 168.605469 42.484375 169.332031 42.460938 170.460938 42.359375 C 170.441406 42.144531 170.332031 41.945312 170.132812 41.832031 Z M 170.132812 41.832031 " fill-opacity="1" fill-rule="nonzero"/></svg>