<svg xmlns="http://www.w3.org/2000/svg" xmlns:xlink="http://www.w3.org/1999/xlink" width="500" zoomAndPan="magnify" viewBox="0 0 375 374.999991" height="500" preserveAspectRatio="xMidYMid meet" version="1.0"><defs><clipPath id="f2e55d3b37"><path d="M 104.488281 142.199219 L 254 142.199219 L 254 227.699219 L 104.488281 227.699219 Z M 104.488281 142.199219 " clip-rule="nonzero"/></clipPath></defs><g clip-path="url(#f2e55d3b37)"><path fill="#000000" d="M 170.660156 187.039062 C 168.003906 187.652344 165.265625 187.910156 162.550781 188.054688 C 157.332031 188.332031 152.089844 188.175781 146.882812 187.851562 C 144.308594 187.691406 141.734375 187.5 139.171875 187.222656 C 138.644531 187.164062 138.636719 186.332031 139.171875 186.390625 C 140.058594 186.488281 140.949219 186.566406 141.839844 186.644531 C 146.316406 187.035156 150.800781 187.289062 155.292969 187.347656 C 157.980469 187.382812 160.671875 187.347656 163.355469 187.175781 C 165.730469 187.023438 168.117188 186.773438 170.4375 186.234375 C 170.960938 186.113281 171.183594 186.917969 170.660156 187.039062 Z M 164.394531 150.917969 C 161.726562 150.335938 158.734375 150.691406 156.425781 152.207031 C 155.539062 152.785156 154.800781 153.523438 154.230469 154.386719 C 153.808594 151.652344 152.347656 149.140625 150.308594 147.257812 C 147.660156 144.808594 144.175781 143.570312 140.589844 143.421875 C 133.542969 143.136719 126.367188 146.679688 122.496094 152.578125 C 120.664062 155.378906 119.707031 158.699219 120.152344 162.015625 C 117.304688 160.863281 113.96875 161.089844 111.273438 162.570312 C 108.296875 164.203125 106.496094 167.328125 106.277344 170.671875 C 106.167969 172.398438 106.5 174.148438 107.265625 175.703125 C 106.382812 175.722656 105.589844 176.324219 105.144531 177.152344 C 104.5 178.367188 104.746094 179.65625 105.589844 180.703125 C 106.5 181.832031 107.882812 182.464844 109.199219 183 C 110.84375 183.671875 112.535156 184.234375 114.25 184.699219 C 116.214844 185.230469 118.21875 185.636719 120.230469 185.953125 C 120.757812 186.039062 120.980469 185.234375 120.453125 185.152344 C 117.328125 184.664062 114.230469 183.953125 111.246094 182.894531 C 109.9375 182.433594 108.582031 181.949219 107.410156 181.195312 C 106.496094 180.605469 105.496094 179.628906 105.601562 178.449219 C 105.6875 177.527344 106.617188 176.132812 107.710938 176.597656 C 108.164062 176.789062 108.558594 176.199219 108.234375 175.9375 C 108.246094 175.855469 108.234375 175.769531 108.183594 175.675781 C 106.703125 172.980469 106.753906 169.5625 108.183594 166.855469 C 109.617188 164.136719 112.417969 162.417969 115.46875 162.148438 C 117.191406 161.996094 118.9375 162.285156 120.480469 163.070312 C 120.816406 163.238281 121.167969 162.964844 121.09375 162.601562 C 119.828125 156.371094 124.039062 150.480469 129.128906 147.3125 C 134.859375 143.75 143.160156 142.769531 148.785156 147.058594 C 151.511719 149.136719 153.457031 152.332031 153.523438 155.804688 C 153.53125 156.300781 154.175781 156.332031 154.347656 155.914062 C 156.339844 151.015625 163.34375 150.402344 167.34375 153.03125 C 169 154.117188 170.3125 155.652344 171.300781 157.355469 C 171.566406 157.816406 172.289062 157.398438 172.019531 156.9375 C 170.339844 154.039062 167.734375 151.644531 164.394531 150.917969 Z M 237.117188 164.328125 C 231.46875 164.589844 225.820312 164.851562 220.175781 165.109375 C 215.105469 165.339844 210.03125 165.65625 204.957031 165.78125 C 204.015625 165.800781 202.890625 165.929688 202.042969 165.429688 C 201.351562 165.027344 200.929688 164.273438 200.894531 163.480469 C 200.855469 162.535156 201.40625 161.84375 202.136719 161.308594 C 202.964844 160.699219 203.917969 160.257812 204.921875 160.019531 C 204.859375 159.6875 204.851562 159.34375 204.90625 159.003906 C 204.933594 158.859375 204.992188 158.726562 205.011719 158.597656 C 205.039062 158.46875 205.03125 158.328125 205.050781 158.195312 C 205.1875 157.085938 205.539062 155.875 206.398438 155.09375 C 207.652344 153.957031 209.332031 154.324219 210.738281 154.996094 C 210.453125 152.804688 210.894531 150.570312 211.890625 148.589844 C 212.886719 146.621094 214.449219 144.902344 216.359375 143.785156 C 218.308594 142.644531 220.574219 142.203125 222.8125 142.496094 C 227.011719 143.050781 230.878906 145.992188 232.234375 150.023438 C 233.296875 149.199219 234.53125 148.621094 235.84375 148.324219 C 238.582031 147.710938 241.476562 148.328125 243.644531 150.125 C 245.574219 151.730469 246.804688 154.136719 246.960938 156.636719 C 247.207031 156.535156 247.460938 156.445312 247.714844 156.371094 C 249.644531 155.824219 251.871094 156.191406 253.15625 157.828125 C 254.476562 159.515625 254.117188 162.019531 252.179688 163.066406 C 251.328125 163.527344 250.351562 163.679688 249.398438 163.753906 C 248.109375 163.855469 246.8125 163.882812 245.519531 163.941406 C 242.714844 164.070312 239.914062 164.203125 237.117188 164.328125 Z M 222.464844 164.175781 C 227.648438 163.9375 232.832031 163.699219 238.019531 163.460938 C 240.585938 163.339844 243.15625 163.222656 245.722656 163.105469 C 246.914062 163.050781 248.109375 163.019531 249.296875 162.933594 C 250.144531 162.871094 251.039062 162.753906 251.792969 162.332031 C 252.589844 161.886719 253.113281 161.078125 253.132812 160.160156 C 253.148438 159.1875 252.617188 158.28125 251.847656 157.707031 C 250.375 156.609375 248.316406 156.832031 246.769531 157.640625 C 246.496094 157.78125 246.136719 157.609375 246.140625 157.28125 C 246.15625 155.890625 245.8125 154.519531 245.15625 153.296875 C 243.964844 151.082031 241.859375 149.46875 239.355469 149.035156 C 236.871094 148.605469 234.183594 149.347656 232.3125 151.035156 C 232.082031 151.242188 231.695312 151.167969 231.613281 150.851562 C 231.019531 148.617188 229.582031 146.671875 227.707031 145.332031 C 226.035156 144.132812 224.035156 143.363281 221.96875 143.253906 C 219.886719 143.144531 217.863281 143.726562 216.144531 144.90625 C 212.773438 147.222656 210.796875 151.617188 211.695312 155.65625 C 211.695312 155.65625 211.695312 155.660156 211.695312 155.664062 C 211.695312 155.675781 211.695312 155.691406 211.699219 155.703125 C 211.714844 155.828125 211.675781 155.929688 211.609375 156.007812 C 211.511719 156.140625 211.347656 156.222656 211.164062 156.164062 C 211.105469 156.148438 211.046875 156.121094 211 156.078125 C 210.136719 155.582031 209.121094 155.09375 208.09375 155.199219 C 206.992188 155.308594 206.378906 156.261719 206.085938 157.234375 C 206.019531 157.457031 205.964844 157.683594 205.921875 157.914062 C 205.90625 158.007812 205.894531 158.09375 205.878906 158.1875 C 205.875 158.207031 205.863281 158.300781 205.859375 158.34375 C 205.851562 158.433594 205.847656 158.523438 205.839844 158.613281 C 205.820312 158.78125 205.757812 158.9375 205.726562 159.105469 C 205.652344 159.488281 205.699219 159.859375 205.832031 160.226562 C 205.902344 160.421875 205.75 160.699219 205.539062 160.738281 C 205.007812 160.835938 204.484375 160.980469 203.988281 161.195312 C 203.496094 161.40625 203.027344 161.679688 202.59375 161.992188 C 202.269531 162.226562 201.96875 162.480469 201.820312 162.863281 C 201.585938 163.46875 201.777344 164.203125 202.289062 164.605469 C 202.617188 164.863281 203.003906 164.917969 203.40625 164.949219 C 203.902344 164.988281 204.394531 164.96875 204.894531 164.953125 C 205.59375 164.933594 206.285156 164.921875 206.980469 164.890625 C 212.144531 164.648438 217.304688 164.410156 222.464844 164.175781 Z M 250.398438 220.675781 C 248.292969 219.507812 245.683594 219.84375 243.828125 221.246094 C 244.078125 219.1875 243.0625 217.082031 241.738281 215.488281 C 240.070312 213.472656 237.371094 211.511719 234.605469 212.292969 C 233.308594 212.65625 232.167969 213.585938 231.8125 214.910156 C 231.671875 215.429688 232.476562 215.648438 232.617188 215.132812 C 232.882812 214.15625 233.699219 213.460938 234.648438 213.152344 C 235.734375 212.792969 236.886719 212.953125 237.910156 213.441406 C 239.046875 213.984375 240.03125 214.824219 240.867188 215.753906 C 241.652344 216.632812 242.324219 217.660156 242.710938 218.777344 C 243.132812 219.988281 243.199219 221.304688 242.609375 222.472656 C 242.363281 222.957031 243.015625 223.316406 243.332031 222.890625 C 244.730469 220.996094 247.515625 220.21875 249.667969 221.234375 C 250.738281 221.738281 251.605469 222.59375 252.152344 223.636719 C 252.425781 224.15625 252.617188 224.726562 252.691406 225.308594 C 252.761719 225.855469 252.792969 226.515625 252.1875 226.753906 C 251.667969 226.953125 251.050781 226.859375 250.515625 226.816406 C 249.796875 226.757812 249.082031 226.695312 248.363281 226.625 C 246.882812 226.484375 245.40625 226.324219 243.929688 226.160156 C 240.929688 225.820312 237.933594 225.449219 234.933594 225.09375 C 231.660156 224.707031 228.386719 224.335938 225.101562 224.074219 C 224.566406 224.03125 224.570312 224.863281 225.101562 224.90625 C 231.566406 225.421875 237.988281 226.332031 244.429688 227.046875 C 246.019531 227.222656 247.613281 227.390625 249.207031 227.535156 C 249.914062 227.597656 250.628906 227.691406 251.335938 227.699219 C 251.9375 227.703125 252.582031 227.605469 253.042969 227.191406 C 254.023438 226.304688 253.472656 224.5 253.003906 223.484375 C 252.46875 222.3125 251.53125 221.300781 250.398438 220.675781 Z M 111.097656 169.371094 C 110.738281 169.765625 111.328125 170.355469 111.6875 169.957031 C 113.429688 168.023438 116.140625 167.046875 118.722656 167.480469 C 119.25 167.570312 119.472656 166.769531 118.945312 166.679688 C 116.070312 166.195312 113.050781 167.203125 111.097656 169.371094 Z M 240.410156 153.820312 C 242.230469 154.667969 243.574219 156.335938 243.996094 158.296875 C 244.109375 158.820312 244.914062 158.597656 244.800781 158.074219 C 244.339844 155.925781 242.832031 154.03125 240.832031 153.101562 C 240.628906 153.007812 240.382812 153.042969 240.261719 153.25 C 240.152344 153.429688 240.203125 153.722656 240.410156 153.820312 Z M 134.367188 148.59375 C 132.703125 149.417969 131.160156 150.460938 129.757812 151.671875 C 129.351562 152.023438 129.945312 152.609375 130.351562 152.257812 C 131.695312 151.089844 133.191406 150.109375 134.789062 149.3125 C 135.273438 149.070312 134.847656 148.351562 134.367188 148.59375 Z M 135.675781 150.765625 C 134.953125 151.1875 134.230469 151.613281 133.507812 152.035156 C 133.320312 152.144531 133.238281 152.414062 133.359375 152.601562 C 133.480469 152.792969 133.730469 152.867188 133.929688 152.753906 C 134.652344 152.328125 135.375 151.902344 136.09375 151.484375 C 136.285156 151.371094 136.367188 151.101562 136.246094 150.914062 C 136.125 150.722656 135.875 150.644531 135.675781 150.765625 Z M 135.675781 150.765625 " fill-opacity="1" fill-rule="nonzero"/></g></svg>