<svg width="182" height="148" viewBox="0 0 182 148" fill="none" xmlns="http://www.w3.org/2000/svg">
<path d="M141.119 107.694C135.453 109.166 129.611 109.784 123.819 110.131C112.686 110.797 101.503 110.422 90.3944 109.644C84.9028 109.259 79.4111 108.8 73.9444 108.134C72.8194 107.994 72.8028 105.997 73.9444 106.138C75.8361 106.372 77.7361 106.559 79.6361 106.747C89.1861 107.684 98.7528 108.294 108.336 108.434C114.069 108.519 119.811 108.434 125.536 108.022C130.603 107.656 135.694 107.056 140.644 105.763C141.761 105.472 142.236 107.403 141.119 107.694ZM127.753 21.0031C122.061 19.6063 115.678 20.4594 110.753 24.0969C108.861 25.4844 107.286 27.2563 106.069 29.3281C105.169 22.7656 102.053 16.7375 97.7028 12.2188C92.0528 6.34064 84.6194 3.36877 76.9694 3.01252C61.9361 2.32814 46.6278 10.8313 38.3694 24.9875C34.4611 31.7094 32.4194 39.6782 33.3694 47.6375C27.2944 44.8719 20.1778 45.4156 14.4278 48.9688C8.07777 52.8875 4.2361 60.3875 3.76944 68.4125C3.5361 72.5563 4.24444 76.7563 5.87777 80.4875C3.99444 80.5344 2.30277 81.9781 1.35277 83.9656C-0.0222284 86.8813 0.502771 89.975 2.30277 92.4875C4.24444 95.1969 7.19444 96.7157 10.0028 98C13.5111 99.6125 17.1194 100.963 20.7778 102.078C24.9694 103.353 29.2444 104.328 33.5361 105.088C34.6611 105.294 35.1361 103.363 34.0111 103.166C27.3444 101.994 20.7361 100.288 14.3694 97.7469C11.5778 96.6407 8.6861 95.4781 6.1861 93.6688C4.23611 92.2532 2.10277 89.9094 2.32777 87.0781C2.51111 84.8657 4.49444 81.5188 6.82777 82.6344C7.79444 83.0938 8.6361 81.6782 7.94444 81.05C7.96944 80.8532 7.94444 80.6469 7.8361 80.4219C4.67777 73.9531 4.7861 65.75 7.8361 59.2532C10.8944 52.7281 16.8694 48.6031 23.3778 47.9563C27.0528 47.5906 30.7778 48.2844 34.0694 50.1688C34.7861 50.5719 35.5361 49.9157 35.3778 49.0438C32.6778 34.0907 41.6611 19.9531 52.5194 12.35C64.7444 3.80002 82.4528 1.44689 94.4528 11.7406C100.269 16.7281 104.419 24.3969 104.561 32.7313C104.578 33.9219 105.953 33.9969 106.319 32.9938C110.569 21.2375 125.511 19.7656 134.044 26.075C137.578 28.6813 140.378 32.3656 142.486 36.4531C143.053 37.5594 144.594 36.5563 144.019 35.45C140.436 28.4938 134.878 22.7469 127.753 21.0031ZM282.894 53.1875C270.844 53.8157 258.794 54.4438 246.753 55.0625C235.936 55.6157 225.111 56.375 214.286 56.675C212.278 56.7219 209.878 57.0313 208.069 55.8313C206.594 54.8657 205.694 53.0563 205.619 51.1532C205.536 48.8844 206.711 47.225 208.269 45.9406C210.036 44.4781 212.069 43.4188 214.211 42.8469C214.078 42.05 214.061 41.225 214.178 40.4094C214.236 40.0625 214.361 39.7438 214.403 39.4344C214.461 39.125 214.444 38.7875 214.486 38.4688C214.778 35.8063 215.528 32.9 217.361 31.025C220.036 28.2969 223.619 29.1781 226.619 30.7906C226.011 25.5313 226.953 20.1688 229.078 15.4156C231.203 10.6906 234.536 6.56564 238.611 3.88439C242.769 1.14689 247.603 0.0875154 252.378 0.790641C261.336 2.12189 269.586 9.18127 272.478 18.8563C274.744 16.8781 277.378 15.4906 280.178 14.7781C286.019 13.3063 292.194 14.7875 296.819 19.1C300.936 22.9531 303.561 28.7281 303.894 34.7281C304.419 34.4844 304.961 34.2688 305.503 34.0906C309.619 32.7781 314.369 33.6594 317.111 37.5875C319.928 41.6375 319.161 47.6469 315.028 50.1594C313.211 51.2657 311.128 51.6313 309.094 51.8094C306.344 52.0532 303.578 52.1188 300.819 52.2594C294.836 52.5688 288.861 52.8875 282.894 53.1875ZM251.636 52.8219C262.694 52.25 273.753 51.6782 284.819 51.1063C290.294 50.8157 295.778 50.5344 301.253 50.2532C303.794 50.1219 306.344 50.0469 308.878 49.8407C310.686 49.6907 312.594 49.4094 314.203 48.3969C315.903 47.3281 317.019 45.3875 317.061 43.1844C317.094 40.85 315.961 38.675 314.319 37.2969C311.178 34.6625 306.786 35.1969 303.486 37.1375C302.903 37.475 302.136 37.0625 302.144 36.275C302.178 32.9375 301.444 29.6469 300.044 26.7125C297.503 21.3969 293.011 17.525 287.669 16.4844C282.369 15.4531 276.636 17.2344 272.644 21.2844C272.153 21.7813 271.328 21.6031 271.153 20.8438C269.886 15.4813 266.819 10.8125 262.819 7.59689C259.253 4.71877 254.986 2.87189 250.578 2.60939C246.136 2.34689 241.819 3.74377 238.153 6.57502C230.961 12.1344 226.744 22.6813 228.661 32.375C228.661 32.375 228.661 32.3844 228.661 32.3938C228.661 32.4219 228.661 32.4594 228.669 32.4875C228.703 32.7875 228.619 33.0313 228.478 33.2188C228.269 33.5375 227.919 33.7344 227.528 33.5938C227.403 33.5563 227.278 33.4907 227.178 33.3875C225.336 32.1969 223.169 31.025 220.978 31.2781C218.628 31.5406 217.319 33.8281 216.694 36.1625C216.553 36.6969 216.436 37.2407 216.344 37.7938C216.311 38.0188 216.286 38.225 216.253 38.45C216.244 38.4969 216.219 38.7219 216.211 38.825C216.194 39.0406 216.186 39.2563 216.169 39.4719C216.128 39.875 215.994 40.25 215.928 40.6531C215.769 41.5719 215.869 42.4625 216.153 43.3438C216.303 43.8125 215.978 44.4781 215.528 44.5719C214.394 44.8063 213.278 45.1532 212.219 45.6688C211.169 46.175 210.169 46.8313 209.244 47.5813C208.553 48.1438 207.911 48.7532 207.594 49.6719C207.094 51.125 207.503 52.8875 208.594 53.8532C209.294 54.4719 210.119 54.6031 210.978 54.6782C212.036 54.7719 213.086 54.725 214.153 54.6875C215.644 54.6407 217.119 54.6125 218.603 54.5375C229.619 53.9563 240.628 53.3844 251.636 52.8219ZM311.228 188.422C306.736 185.619 301.169 186.425 297.211 189.791C297.744 184.85 295.578 179.797 292.753 175.972C289.194 171.134 283.436 166.428 277.536 168.303C274.769 169.175 272.336 171.406 271.578 174.584C271.278 175.831 272.994 176.356 273.294 175.119C273.861 172.775 275.603 171.106 277.628 170.366C279.944 169.503 282.403 169.888 284.586 171.059C287.011 172.363 289.111 174.378 290.894 176.609C292.569 178.719 294.003 181.184 294.828 183.866C295.728 186.772 295.869 189.931 294.611 192.734C294.086 193.897 295.478 194.759 296.153 193.738C299.136 189.191 305.078 187.325 309.669 189.763C311.953 190.972 313.803 193.025 314.969 195.528C315.553 196.775 315.961 198.144 316.119 199.541C316.269 200.853 316.336 202.438 315.044 203.009C313.936 203.488 312.619 203.263 311.478 203.159C309.944 203.019 308.419 202.869 306.886 202.7C303.728 202.363 300.578 201.978 297.428 201.584C291.028 200.769 284.636 199.878 278.236 199.025C271.253 198.097 264.269 197.206 257.261 196.578C256.119 196.475 256.128 198.472 257.261 198.575C271.053 199.813 284.753 201.997 298.494 203.713C301.886 204.134 305.286 204.538 308.686 204.884C310.194 205.034 311.719 205.259 313.228 205.278C314.511 205.288 315.886 205.053 316.869 204.059C318.961 201.931 317.786 197.6 316.786 195.163C315.644 192.35 313.644 189.922 311.228 188.422ZM14.0528 65.2906C13.2861 66.2375 14.5444 67.6532 15.3111 66.6969C19.0278 62.0563 24.8111 59.7125 30.3194 60.7532C31.4444 60.9688 31.9194 59.0469 30.7944 58.8313C24.6611 57.6688 18.2194 60.0875 14.0528 65.2906ZM289.919 27.9688C293.803 30.0031 296.669 34.0063 297.569 38.7125C297.811 39.9688 299.528 39.4344 299.286 38.1781C298.303 33.0219 295.086 28.475 290.819 26.2438C290.386 26.0188 289.861 26.1031 289.603 26.6C289.369 27.0313 289.478 27.7344 289.919 27.9688ZM63.6944 15.425C60.1444 17.4031 56.8528 19.9063 53.8611 22.8125C52.9944 23.6563 54.2611 25.0625 55.1278 24.2188C57.9944 21.4156 61.1861 19.0625 64.5944 17.15C65.6278 16.5688 64.7194 14.8438 63.6944 15.425ZM66.4861 20.6375C64.9444 21.65 63.4028 22.6719 61.8611 23.6844C61.4611 23.9469 61.2861 24.5938 61.5444 25.0438C61.8028 25.5031 62.3361 25.6813 62.7611 25.4094C64.3028 24.3875 65.8444 23.3656 67.3778 22.3625C67.7861 22.0906 67.9611 21.4438 67.7028 20.9938C67.4444 20.5344 66.9111 20.3469 66.4861 20.6375Z" fill="#603D38" fill-opacity="0.7"/>
</svg>
