<svg width="319" height="148" viewBox="0 0 319 148" fill="none" xmlns="http://www.w3.org/2000/svg">
<path d="M141.008 107.694C135.342 109.166 129.5 109.784 123.708 110.131C112.575 110.797 101.392 110.422 90.2833 109.644C84.7916 109.259 79.3 108.8 73.8333 108.134C72.7083 107.994 72.6916 105.997 73.8333 106.138C75.725 106.372 77.625 106.559 79.525 106.747C89.075 107.684 98.6416 108.294 108.225 108.434C113.958 108.519 119.7 108.434 125.425 108.022C130.492 107.656 135.583 107.056 140.533 105.763C141.65 105.472 142.125 107.403 141.008 107.694ZM127.642 21.0031C121.95 19.6063 115.567 20.4594 110.642 24.0969C108.75 25.4844 107.175 27.2563 105.958 29.3281C105.058 22.7656 101.942 16.7375 97.5916 12.2188C91.9416 6.34064 84.5083 3.36877 76.8583 3.01252C61.825 2.32814 46.5166 10.8313 38.2583 24.9875C34.35 31.7094 32.3083 39.6782 33.2583 47.6375C27.1833 44.8719 20.0666 45.4156 14.3166 48.9688C7.96663 52.8875 4.12496 60.3875 3.65829 68.4125C3.42496 72.5563 4.13329 76.7563 5.76663 80.4875C3.88329 80.5344 2.19163 81.9781 1.24163 83.9656C-0.133373 86.8813 0.391626 89.975 2.19163 92.4875C4.13329 95.1969 7.08329 96.7157 9.89163 98C13.4 99.6125 17.0083 100.963 20.6666 102.078C24.8583 103.353 29.1333 104.328 33.425 105.088C34.55 105.294 35.025 103.363 33.9 103.166C27.2333 101.994 20.625 100.288 14.2583 97.7469C11.4666 96.6407 8.57496 95.4781 6.07496 93.6688C4.12496 92.2532 1.99163 89.9094 2.21663 87.0781C2.39996 84.8657 4.38329 81.5188 6.71663 82.6344C7.68329 83.0938 8.52496 81.6782 7.83329 81.05C7.85829 80.8532 7.83329 80.6469 7.72496 80.4219C4.56663 73.9531 4.67496 65.75 7.72496 59.2532C10.7833 52.7281 16.7583 48.6031 23.2666 47.9563C26.9416 47.5906 30.6666 48.2844 33.9583 50.1688C34.675 50.5719 35.425 49.9157 35.2666 49.0438C32.5666 34.0907 41.55 19.9531 52.4083 12.35C64.6333 3.80002 82.3416 1.44689 94.3416 11.7406C100.158 16.7281 104.308 24.3969 104.45 32.7313C104.467 33.9219 105.842 33.9969 106.208 32.9938C110.458 21.2375 125.4 19.7656 133.933 26.075C137.467 28.6813 140.267 32.3656 142.375 36.4531C142.942 37.5594 144.483 36.5563 143.908 35.45C140.325 28.4938 134.767 22.7469 127.642 21.0031ZM282.783 53.1875C270.733 53.8157 258.683 54.4438 246.642 55.0625C235.825 55.6157 225 56.375 214.175 56.675C212.167 56.7219 209.767 57.0313 207.958 55.8313C206.483 54.8657 205.583 53.0563 205.508 51.1532C205.425 48.8844 206.6 47.225 208.158 45.9406C209.925 44.4781 211.958 43.4188 214.1 42.8469C213.967 42.05 213.95 41.225 214.067 40.4094C214.125 40.0625 214.25 39.7438 214.292 39.4344C214.35 39.125 214.333 38.7875 214.375 38.4688C214.667 35.8063 215.417 32.9 217.25 31.025C219.925 28.2969 223.508 29.1781 226.508 30.7906C225.9 25.5313 226.842 20.1688 228.967 15.4156C231.092 10.6906 234.425 6.56564 238.5 3.88439C242.658 1.14689 247.492 0.0875154 252.267 0.790641C261.225 2.12189 269.475 9.18127 272.367 18.8563C274.633 16.8781 277.267 15.4906 280.067 14.7781C285.908 13.3063 292.083 14.7875 296.708 19.1C300.825 22.9531 303.45 28.7281 303.783 34.7281C304.308 34.4844 304.85 34.2688 305.392 34.0906C309.508 32.7781 314.258 33.6594 317 37.5875C319.817 41.6375 319.05 47.6469 314.917 50.1594C313.1 51.2657 311.017 51.6313 308.983 51.8094C306.233 52.0532 303.467 52.1188 300.708 52.2594C294.725 52.5688 288.75 52.8875 282.783 53.1875ZM251.525 52.8219C262.583 52.25 273.642 51.6782 284.708 51.1063C290.183 50.8157 295.667 50.5344 301.142 50.2532C303.683 50.1219 306.233 50.0469 308.767 49.8407C310.575 49.6907 312.483 49.4094 314.092 48.3969C315.792 47.3281 316.908 45.3875 316.95 43.1844C316.983 40.85 315.85 38.675 314.208 37.2969C311.067 34.6625 306.675 35.1969 303.375 37.1375C302.792 37.475 302.025 37.0625 302.033 36.275C302.067 32.9375 301.333 29.6469 299.933 26.7125C297.392 21.3969 292.9 17.525 287.558 16.4844C282.258 15.4531 276.525 17.2344 272.533 21.2844C272.042 21.7813 271.217 21.6031 271.042 20.8438C269.775 15.4813 266.708 10.8125 262.708 7.59689C259.142 4.71877 254.875 2.87189 250.467 2.60939C246.025 2.34689 241.708 3.74377 238.042 6.57502C230.85 12.1344 226.633 22.6813 228.55 32.375C228.55 32.375 228.55 32.3844 228.55 32.3938C228.55 32.4219 228.55 32.4594 228.558 32.4875C228.592 32.7875 228.508 33.0313 228.367 33.2188C228.158 33.5375 227.808 33.7344 227.417 33.5938C227.292 33.5563 227.167 33.4907 227.067 33.3875C225.225 32.1969 223.058 31.025 220.867 31.2781C218.517 31.5406 217.208 33.8281 216.583 36.1625C216.442 36.6969 216.325 37.2407 216.233 37.7938C216.2 38.0188 216.175 38.225 216.142 38.45C216.133 38.4969 216.108 38.7219 216.1 38.825C216.083 39.0406 216.075 39.2563 216.058 39.4719C216.017 39.875 215.883 40.25 215.817 40.6531C215.658 41.5719 215.758 42.4625 216.042 43.3438C216.192 43.8125 215.867 44.4781 215.417 44.5719C214.283 44.8063 213.167 45.1532 212.108 45.6688C211.058 46.175 210.058 46.8313 209.133 47.5813C208.442 48.1438 207.8 48.7532 207.483 49.6719C206.983 51.125 207.392 52.8875 208.483 53.8532C209.183 54.4719 210.008 54.6031 210.867 54.6782C211.925 54.7719 212.975 54.725 214.042 54.6875C215.533 54.6407 217.008 54.6125 218.492 54.5375C229.508 53.9563 240.517 53.3844 251.525 52.8219ZM311.117 188.422C306.625 185.619 301.058 186.425 297.1 189.791C297.633 184.85 295.467 179.797 292.642 175.972C289.083 171.134 283.325 166.428 277.425 168.303C274.658 169.175 272.225 171.406 271.467 174.584C271.167 175.831 272.883 176.356 273.183 175.119C273.75 172.775 275.492 171.106 277.517 170.366C279.833 169.503 282.292 169.888 284.475 171.059C286.9 172.363 289 174.378 290.783 176.609C292.458 178.719 293.892 181.184 294.717 183.866C295.617 186.772 295.758 189.931 294.5 192.734C293.975 193.897 295.367 194.759 296.042 193.738C299.025 189.191 304.967 187.325 309.558 189.763C311.842 190.972 313.692 193.025 314.858 195.528C315.442 196.775 315.85 198.144 316.008 199.541C316.158 200.853 316.225 202.438 314.933 203.009C313.825 203.488 312.508 203.263 311.367 203.159C309.833 203.019 308.308 202.869 306.775 202.7C303.617 202.363 300.467 201.978 297.317 201.584C290.917 200.769 284.525 199.878 278.125 199.025C271.142 198.097 264.158 197.206 257.15 196.578C256.008 196.475 256.017 198.472 257.15 198.575C270.942 199.813 284.642 201.997 298.383 203.713C301.775 204.134 305.175 204.538 308.575 204.884C310.083 205.034 311.608 205.259 313.117 205.278C314.4 205.288 315.775 205.053 316.758 204.059C318.85 201.931 317.675 197.6 316.675 195.163C315.533 192.35 313.533 189.922 311.117 188.422ZM13.9416 65.2906C13.175 66.2375 14.4333 67.6532 15.2 66.6969C18.9166 62.0563 24.7 59.7125 30.2083 60.7532C31.3333 60.9688 31.8083 59.0469 30.6833 58.8313C24.55 57.6688 18.1083 60.0875 13.9416 65.2906ZM289.808 27.9688C293.692 30.0031 296.558 34.0063 297.458 38.7125C297.7 39.9688 299.417 39.4344 299.175 38.1781C298.192 33.0219 294.975 28.475 290.708 26.2438C290.275 26.0188 289.75 26.1031 289.492 26.6C289.258 27.0313 289.367 27.7344 289.808 27.9688ZM63.5833 15.425C60.0333 17.4031 56.7416 19.9063 53.75 22.8125C52.8833 23.6563 54.15 25.0625 55.0166 24.2188C57.8833 21.4156 61.075 19.0625 64.4833 17.15C65.5166 16.5688 64.6083 14.8438 63.5833 15.425ZM66.375 20.6375C64.8333 21.65 63.2916 22.6719 61.75 23.6844C61.35 23.9469 61.175 24.5938 61.4333 25.0438C61.6916 25.5031 62.225 25.6813 62.65 25.4094C64.1916 24.3875 65.7333 23.3656 67.2666 22.3625C67.675 22.0906 67.85 21.4438 67.5916 20.9938C67.3333 20.5344 66.8 20.3469 66.375 20.6375Z" fill="#603D38" fill-opacity="0.7"/>
</svg>
