<svg width="320" height="206" viewBox="0 0 320 206" fill="none" xmlns="http://www.w3.org/2000/svg">
<path d="M141.453 107.694C135.786 109.166 129.944 109.784 124.153 110.131C113.019 110.797 101.836 110.422 90.7278 109.644C85.2361 109.259 79.7444 108.8 74.2778 108.134C73.1528 107.994 73.1361 105.997 74.2778 106.138C76.1694 106.372 78.0694 106.559 79.9694 106.747C89.5194 107.684 99.0861 108.294 108.669 108.434C114.403 108.519 120.144 108.434 125.869 108.022C130.936 107.656 136.028 107.056 140.978 105.763C142.094 105.472 142.569 107.403 141.453 107.694ZM128.086 21.0031C122.394 19.6063 116.011 20.4594 111.086 24.0969C109.194 25.4844 107.619 27.2563 106.403 29.3281C105.503 22.7656 102.386 16.7375 98.0361 12.2188C92.3861 6.34064 84.9528 3.36877 77.3028 3.01252C62.2694 2.32814 46.9611 10.8313 38.7028 24.9875C34.7944 31.7094 32.7528 39.6782 33.7028 47.6375C27.6278 44.8719 20.5111 45.4156 14.7611 48.9688C8.41108 52.8875 4.56942 60.3875 4.10275 68.4125C3.86942 72.5563 4.57775 76.7563 6.21108 80.4875C4.32775 80.5344 2.63609 81.9781 1.68608 83.9656C0.311085 86.8813 0.836084 89.975 2.63608 92.4875C4.57775 95.1969 7.52775 96.7157 10.3361 98C13.8444 99.6125 17.4527 100.963 21.1111 102.078C25.3028 103.353 29.5778 104.328 33.8694 105.088C34.9944 105.294 35.4694 103.363 34.3444 103.166C27.6778 101.994 21.0694 100.288 14.7028 97.7469C11.9111 96.6407 9.01942 95.4781 6.51942 93.6688C4.56942 92.2532 2.43609 89.9094 2.66108 87.0781C2.84442 84.8657 4.82775 81.5188 7.16108 82.6344C8.12775 83.0938 8.96942 81.6782 8.27775 81.05C8.30275 80.8532 8.27775 80.6469 8.16942 80.4219C5.01108 73.9531 5.11942 65.75 8.16942 59.2532C11.2278 52.7281 17.2028 48.6031 23.7111 47.9563C27.3861 47.5906 31.1111 48.2844 34.4028 50.1688C35.1194 50.5719 35.8694 49.9157 35.7111 49.0438C33.0111 34.0907 41.9944 19.9531 52.8528 12.35C65.0778 3.80002 82.7861 1.44689 94.7861 11.7406C100.603 16.7281 104.753 24.3969 104.894 32.7313C104.911 33.9219 106.286 33.9969 106.653 32.9938C110.903 21.2375 125.844 19.7656 134.378 26.075C137.911 28.6813 140.711 32.3656 142.819 36.4531C143.386 37.5594 144.928 36.5563 144.353 35.45C140.769 28.4938 135.211 22.7469 128.086 21.0031ZM283.228 53.1875C271.178 53.8157 259.128 54.4438 247.086 55.0625C236.269 55.6157 225.444 56.375 214.619 56.675C212.611 56.7219 210.211 57.0313 208.403 55.8313C206.928 54.8657 206.028 53.0563 205.953 51.1532C205.869 48.8844 207.044 47.225 208.603 45.9406C210.369 44.4781 212.403 43.4188 214.544 42.8469C214.411 42.05 214.394 41.225 214.511 40.4094C214.569 40.0625 214.694 39.7438 214.736 39.4344C214.794 39.125 214.778 38.7875 214.819 38.4688C215.111 35.8063 215.861 32.9 217.694 31.025C220.369 28.2969 223.953 29.1781 226.953 30.7906C226.344 25.5313 227.286 20.1688 229.411 15.4156C231.536 10.6906 234.869 6.56564 238.944 3.88439C243.103 1.14689 247.936 0.0875154 252.711 0.790641C261.669 2.12189 269.919 9.18127 272.811 18.8563C275.078 16.8781 277.711 15.4906 280.511 14.7781C286.353 13.3063 292.528 14.7875 297.153 19.1C301.269 22.9531 303.894 28.7281 304.228 34.7281C304.753 34.4844 305.294 34.2688 305.836 34.0906C309.953 32.7781 314.703 33.6594 317.444 37.5875C320.261 41.6375 319.494 47.6469 315.361 50.1594C313.544 51.2657 311.461 51.6313 309.428 51.8094C306.678 52.0532 303.911 52.1188 301.153 52.2594C295.169 52.5688 289.194 52.8875 283.228 53.1875ZM251.969 52.8219C263.028 52.25 274.086 51.6782 285.153 51.1063C290.628 50.8157 296.111 50.5344 301.586 50.2532C304.128 50.1219 306.678 50.0469 309.211 49.8407C311.019 49.6907 312.928 49.4094 314.536 48.3969C316.236 47.3281 317.353 45.3875 317.394 43.1844C317.428 40.85 316.294 38.675 314.653 37.2969C311.511 34.6625 307.119 35.1969 303.819 37.1375C303.236 37.475 302.469 37.0625 302.478 36.275C302.511 32.9375 301.778 29.6469 300.378 26.7125C297.836 21.3969 293.344 17.525 288.003 16.4844C282.703 15.4531 276.969 17.2344 272.978 21.2844C272.486 21.7813 271.661 21.6031 271.486 20.8438C270.219 15.4813 267.153 10.8125 263.153 7.59689C259.586 4.71877 255.319 2.87189 250.911 2.60939C246.469 2.34689 242.153 3.74377 238.486 6.57502C231.294 12.1344 227.078 22.6813 228.994 32.375C228.994 32.375 228.994 32.3844 228.994 32.3938C228.994 32.4219 228.994 32.4594 229.003 32.4875C229.036 32.7875 228.953 33.0313 228.811 33.2188C228.603 33.5375 228.253 33.7344 227.861 33.5938C227.736 33.5563 227.611 33.4907 227.511 33.3875C225.669 32.1969 223.503 31.025 221.311 31.2781C218.961 31.5406 217.653 33.8281 217.028 36.1625C216.886 36.6969 216.769 37.2407 216.678 37.7938C216.644 38.0188 216.619 38.225 216.586 38.45C216.578 38.4969 216.553 38.7219 216.544 38.825C216.528 39.0406 216.519 39.2563 216.503 39.4719C216.461 39.875 216.328 40.25 216.261 40.6531C216.103 41.5719 216.203 42.4625 216.486 43.3438C216.636 43.8125 216.311 44.4781 215.861 44.5719C214.728 44.8063 213.611 45.1532 212.553 45.6688C211.503 46.175 210.503 46.8313 209.578 47.5813C208.886 48.1438 208.244 48.7532 207.928 49.6719C207.428 51.125 207.836 52.8875 208.928 53.8532C209.628 54.4719 210.453 54.6031 211.311 54.6782C212.369 54.7719 213.419 54.725 214.486 54.6875C215.978 54.6407 217.453 54.6125 218.936 54.5375C229.953 53.9563 240.961 53.3844 251.969 52.8219ZM311.561 188.422C307.069 185.619 301.503 186.425 297.544 189.791C298.078 184.85 295.911 179.797 293.086 175.972C289.528 171.134 283.769 166.428 277.869 168.303C275.103 169.175 272.669 171.406 271.911 174.584C271.611 175.831 273.328 176.356 273.628 175.119C274.194 172.775 275.936 171.106 277.961 170.366C280.278 169.503 282.736 169.888 284.919 171.059C287.344 172.363 289.444 174.378 291.228 176.609C292.903 178.719 294.336 181.184 295.161 183.866C296.061 186.772 296.203 189.931 294.944 192.734C294.419 193.897 295.811 194.759 296.486 193.738C299.469 189.191 305.411 187.325 310.003 189.763C312.286 190.972 314.136 193.025 315.303 195.528C315.886 196.775 316.294 198.144 316.453 199.541C316.603 200.853 316.669 202.438 315.378 203.009C314.269 203.488 312.953 203.263 311.811 203.159C310.278 203.019 308.753 202.869 307.219 202.7C304.061 202.363 300.911 201.978 297.761 201.584C291.361 200.769 284.969 199.878 278.569 199.025C271.586 198.097 264.603 197.206 257.594 196.578C256.453 196.475 256.461 198.472 257.594 198.575C271.386 199.813 285.086 201.997 298.828 203.713C302.219 204.134 305.619 204.538 309.019 204.884C310.528 205.034 312.053 205.259 313.561 205.278C314.844 205.288 316.219 205.053 317.203 204.059C319.294 201.931 318.119 197.6 317.119 195.163C315.978 192.35 313.978 189.922 311.561 188.422ZM14.3861 65.2906C13.6194 66.2375 14.8778 67.6532 15.6444 66.6969C19.3611 62.0563 25.1444 59.7125 30.6528 60.7532C31.7778 60.9688 32.2528 59.0469 31.1278 58.8313C24.9944 57.6688 18.5528 60.0875 14.3861 65.2906ZM290.253 27.9688C294.136 30.0031 297.003 34.0063 297.903 38.7125C298.144 39.9688 299.861 39.4344 299.619 38.1781C298.636 33.0219 295.419 28.475 291.153 26.2438C290.719 26.0188 290.194 26.1031 289.936 26.6C289.703 27.0313 289.811 27.7344 290.253 27.9688ZM64.0278 15.425C60.4777 17.4031 57.1861 19.9063 54.1944 22.8125C53.3278 23.6563 54.5944 25.0625 55.4611 24.2188C58.3278 21.4156 61.5194 19.0625 64.9278 17.15C65.9611 16.5688 65.0527 14.8438 64.0278 15.425ZM66.8194 20.6375C65.2777 21.65 63.7361 22.6719 62.1944 23.6844C61.7944 23.9469 61.6194 24.5938 61.8778 25.0438C62.1361 25.5031 62.6694 25.6813 63.0944 25.4094C64.6361 24.3875 66.1778 23.3656 67.7111 22.3625C68.1194 22.0906 68.2944 21.4438 68.0361 20.9938C67.7778 20.5344 67.2444 20.3469 66.8194 20.6375Z" fill="#603D38" fill-opacity="0.7"/>
</svg>
