<svg width="419" height="176" viewBox="0 0 419 176" fill="none" xmlns="http://www.w3.org/2000/svg">
<path d="M185.034 140.825C177.589 142.759 169.913 143.572 162.304 144.028C147.676 144.902 132.982 144.409 118.387 143.387C111.172 142.882 103.956 142.278 96.7736 141.404C95.2955 141.219 95.2736 138.595 96.7736 138.78C99.259 139.088 101.755 139.334 104.252 139.58C116.799 140.812 129.369 141.613 141.96 141.798C149.493 141.909 157.037 141.798 164.559 141.256C171.216 140.775 177.906 139.987 184.41 138.287C185.877 137.905 186.501 140.443 185.034 140.825ZM167.472 26.9123C159.994 25.0768 151.607 26.1978 145.136 30.9776C142.65 32.8007 140.581 35.129 138.982 37.8515C137.8 29.2283 133.705 21.3073 127.989 15.3696C120.566 7.64567 110.799 3.7406 100.748 3.27248C80.996 2.37321 60.8825 13.5464 50.032 32.1478C44.8969 40.9805 42.2143 51.4515 43.4625 61.9102C35.4807 58.2761 26.1301 58.9906 18.5753 63.6594C10.2321 68.8087 5.18457 78.6638 4.57142 89.2087C4.26484 94.6537 5.19551 100.172 7.34153 105.075C4.86704 105.137 2.64438 107.034 1.39618 109.646C-0.410412 113.477 0.279379 117.542 2.64438 120.844C5.19551 124.404 9.07148 126.399 12.7613 128.087C17.3709 130.206 22.1118 131.98 26.9185 133.446C32.4259 135.121 38.0427 136.402 43.6815 137.4C45.1596 137.671 45.7837 135.133 44.3056 134.875C35.5463 133.335 26.8637 131.093 18.4986 127.754C14.8307 126.301 11.0314 124.773 7.74665 122.396C5.18457 120.536 2.3816 117.456 2.67723 113.736C2.91811 110.828 5.52399 106.43 8.58973 107.896C9.85982 108.5 10.9657 106.64 10.0569 105.815C10.0898 105.556 10.0569 105.285 9.91457 104.989C5.76486 96.4892 5.9072 85.7102 9.91457 77.1732C13.9329 68.5993 21.7834 63.179 30.3346 62.329C35.1631 61.8486 40.0574 62.7602 44.3823 65.2363C45.3239 65.766 46.3093 64.9036 46.1013 63.758C42.5538 44.1094 54.3569 25.5326 68.6235 15.542C84.6858 4.30726 107.953 1.21523 123.719 14.7413C131.362 21.2949 136.814 31.3718 137 42.3232C137.022 43.8877 138.829 43.9863 139.311 42.6681C144.895 27.2203 164.526 25.2863 175.738 33.5768C180.381 37.0015 184.06 41.8428 186.83 47.2138C187.574 48.6674 189.6 47.3493 188.844 45.8957C184.136 36.7551 176.833 29.2036 167.472 26.9123ZM371.311 69.2029C355.478 70.0283 339.646 70.8536 323.825 71.6667C309.613 72.3935 295.39 73.3913 281.167 73.7855C278.528 73.8471 275.375 74.2536 272.999 72.6768C271.061 71.408 269.878 69.0305 269.78 66.5297C269.67 63.5486 271.214 61.3681 273.262 59.6805C275.583 57.7587 278.255 56.3667 281.068 55.6152C280.893 54.5681 280.871 53.4841 281.025 52.4123C281.101 51.9565 281.266 51.5377 281.32 51.1312C281.397 50.7247 281.375 50.2812 281.43 49.8623C281.813 46.3638 282.798 42.545 285.207 40.0812C288.722 36.4964 293.43 37.6544 297.372 39.7732C296.572 32.8623 297.81 25.816 300.602 19.5703C303.394 13.3616 307.773 7.94132 313.127 4.41813C318.591 0.821031 324.941 -0.570999 331.215 0.352915C342.985 2.10219 353.825 11.3783 357.624 24.0913C360.603 21.492 364.062 19.6689 367.741 18.7326C375.417 16.7986 383.53 18.7449 389.607 24.4116C395.015 29.4747 398.464 37.0631 398.902 44.9471C399.592 44.6268 400.304 44.3435 401.016 44.1094C406.424 42.3848 412.665 43.5428 416.268 48.7044C419.968 54.0261 418.961 61.9225 413.53 65.2239C411.143 66.6776 408.406 67.158 405.735 67.3921C402.121 67.7123 398.486 67.7986 394.862 67.9834C387.001 68.3899 379.15 68.8087 371.311 69.2029ZM330.241 68.7225C344.77 67.971 359.3 67.2196 373.84 66.4681C381.033 66.0863 388.238 65.7167 395.431 65.3471C398.771 65.1747 402.121 65.0761 405.45 64.8051C407.826 64.608 410.333 64.2384 412.446 62.908C414.68 61.5037 416.147 58.9536 416.202 56.0587C416.246 52.9913 414.757 50.1334 412.6 48.3225C408.472 44.8609 402.702 45.5631 398.366 48.1131C397.599 48.5565 396.592 48.0145 396.603 46.9797C396.647 42.5942 395.683 38.2703 393.844 34.4145C390.504 27.4297 384.603 22.342 377.585 20.9747C370.621 19.6196 363.088 21.9602 357.843 27.2819C357.197 27.9348 356.113 27.7007 355.883 26.7029C354.219 19.6565 350.19 13.5218 344.934 9.2964C340.248 5.51451 334.642 3.0877 328.85 2.74277C323.014 2.39784 317.343 4.23335 312.525 7.95364C303.076 15.2587 297.536 29.1174 300.054 41.8551C300.054 41.8551 300.054 41.8674 300.054 41.8797C300.054 41.9167 300.054 41.966 300.065 42.0029C300.109 42.3971 299.999 42.7174 299.813 42.9638C299.54 43.3826 299.08 43.6413 298.565 43.4565C298.401 43.4073 298.237 43.321 298.105 43.1855C295.685 41.621 292.839 40.0812 289.959 40.4138C286.871 40.7587 285.152 43.7645 284.331 46.8319C284.145 47.5341 283.992 48.2486 283.871 48.9754C283.828 49.271 283.795 49.5421 283.751 49.8377C283.74 49.8993 283.707 50.195 283.696 50.3305C283.674 50.6138 283.663 50.8971 283.641 51.1805C283.587 51.7102 283.412 52.2029 283.324 52.7326C283.116 53.9399 283.247 55.1102 283.62 56.2681C283.817 56.8841 283.39 57.7587 282.798 57.8819C281.309 58.1899 279.842 58.6457 278.452 59.3232C277.072 59.9884 275.758 60.8507 274.543 61.8363C273.634 62.5754 272.791 63.3761 272.375 64.5834C271.718 66.4928 272.254 68.8087 273.689 70.0776C274.608 70.8906 275.692 71.0631 276.82 71.1616C278.211 71.2848 279.59 71.2232 280.992 71.1739C282.952 71.1123 284.89 71.0754 286.839 70.9768C301.313 70.2131 315.777 69.4616 330.241 68.7225ZM408.538 246.902C402.636 243.219 395.322 244.278 390.121 248.701C390.822 242.209 387.975 235.569 384.263 230.543C379.588 224.186 372.022 218.002 364.27 220.466C360.635 221.612 357.438 224.544 356.442 228.72C356.048 230.358 358.303 231.048 358.697 229.422C359.442 226.342 361.73 224.149 364.391 223.176C367.435 222.043 370.665 222.548 373.533 224.088C376.72 225.8 379.479 228.449 381.822 231.38C384.023 234.152 385.906 237.392 386.99 240.915C388.172 244.734 388.358 248.886 386.705 252.569C386.015 254.096 387.844 255.23 388.731 253.887C392.65 247.912 400.457 245.461 406.49 248.664C409.49 250.253 411.921 252.951 413.454 256.24C414.22 257.878 414.757 259.677 414.965 261.512C415.162 263.237 415.249 265.319 413.552 266.07C412.096 266.699 410.366 266.403 408.866 266.267C406.851 266.083 404.848 265.886 402.833 265.664C398.683 265.22 394.545 264.715 390.406 264.198C381.997 263.126 373.599 261.956 365.19 260.835C356.015 259.615 346.84 258.445 337.631 257.62C336.131 257.484 336.142 260.108 337.631 260.244C355.752 261.87 373.752 264.74 391.807 266.994C396.264 267.549 400.731 268.078 405.198 268.534C407.18 268.731 409.184 269.027 411.165 269.051C412.851 269.064 414.658 268.756 415.95 267.45C418.698 264.654 417.154 258.962 415.841 255.759C414.341 252.064 411.713 248.873 408.538 246.902ZM18.0826 85.1066C17.0753 86.3508 18.7286 88.2109 19.7359 86.9544C24.6192 80.8566 32.2178 77.7768 39.4552 79.1442C40.9333 79.4276 41.5574 76.9022 40.0793 76.6189C32.0207 75.0913 23.5571 78.2696 18.0826 85.1066ZM380.541 36.0652C385.643 38.7384 389.409 43.9986 390.592 50.1826C390.91 51.8334 393.165 51.1312 392.848 49.4805C391.556 42.7051 387.329 36.7305 381.723 33.7986C381.154 33.5029 380.464 33.6138 380.125 34.2667C379.818 34.8334 379.96 35.7573 380.541 36.0652ZM83.3062 19.5826C78.6419 22.1819 74.317 25.471 70.3863 29.2899C69.2476 30.3986 70.9119 32.2464 72.0506 31.1377C75.817 27.4544 80.0105 24.3623 84.4887 21.8493C85.8464 21.0855 84.653 18.8189 83.3062 19.5826ZM86.9742 26.4319C84.9486 27.7623 82.923 29.1051 80.8974 30.4355C80.3719 30.7805 80.1419 31.6305 80.4814 32.2218C80.8208 32.8254 81.5215 33.0594 82.0799 32.7022C84.1055 31.3594 86.1311 30.0167 88.1457 28.6986C88.6822 28.3413 88.9121 27.4913 88.5727 26.9C88.2333 26.2964 87.5326 26.05 86.9742 26.4319Z" fill="#ECFCFE" fill-opacity="0.5"/>
</svg>
