<svg xmlns="http://www.w3.org/2000/svg" xmlns:xlink="http://www.w3.org/1999/xlink" zoomAndPan="magnify" preserveAspectRatio="xMidYMid meet" version="1.0" viewBox="103 140.43 149.83 85.5"><defs><clipPath id="9ff24a69fa"><path d="M 103 140.429688 L 252.832031 140.429688 L 252.832031 191.429688 L 103 191.429688 Z M 103 140.429688 " clip-rule="nonzero"/></clipPath></defs><g clip-path="url(#9ff24a69fa)"><path fill="#517c92" d="M 169 185.265625 C 166.34375 185.882812 163.609375 186.136719 160.890625 186.28125 C 155.675781 186.5625 150.433594 186.402344 145.226562 186.078125 C 142.652344 185.921875 140.078125 185.730469 137.515625 185.449219 C 136.984375 185.390625 136.980469 184.558594 137.515625 184.617188 C 138.402344 184.714844 139.292969 184.796875 140.183594 184.875 C 144.65625 185.265625 149.144531 185.515625 153.636719 185.574219 C 156.324219 185.609375 159.015625 185.574219 161.699219 185.402344 C 164.074219 185.25 166.460938 185 168.78125 184.464844 C 169.304688 184.34375 169.523438 185.144531 169 185.265625 Z M 162.738281 149.144531 C 160.070312 148.566406 157.078125 148.921875 154.769531 150.433594 C 153.882812 151.015625 153.144531 151.753906 152.574219 152.613281 C 152.152344 149.878906 150.691406 147.367188 148.652344 145.488281 C 146 143.035156 142.515625 141.800781 138.929688 141.652344 C 131.886719 141.363281 124.707031 144.90625 120.839844 150.804688 C 119.003906 153.605469 118.050781 156.929688 118.496094 160.246094 C 115.648438 159.09375 112.3125 159.320312 109.613281 160.800781 C 106.640625 162.433594 104.839844 165.554688 104.621094 168.898438 C 104.507812 170.628906 104.84375 172.375 105.605469 173.933594 C 104.722656 173.953125 103.929688 174.550781 103.488281 175.382812 C 102.84375 176.59375 103.089844 177.882812 103.933594 178.933594 C 104.839844 180.0625 106.226562 180.691406 107.542969 181.230469 C 109.1875 181.902344 110.875 182.460938 112.589844 182.925781 C 114.558594 183.460938 116.5625 183.863281 118.574219 184.183594 C 119.097656 184.265625 119.324219 183.464844 118.796875 183.382812 C 115.667969 182.890625 112.574219 182.179688 109.589844 181.125 C 108.277344 180.664062 106.921875 180.179688 105.75 179.421875 C 104.839844 178.832031 103.839844 177.859375 103.945312 176.679688 C 104.027344 175.753906 104.957031 174.359375 106.054688 174.828125 C 106.503906 175.019531 106.902344 174.425781 106.574219 174.167969 C 106.589844 174.085938 106.574219 173.996094 106.523438 173.90625 C 105.046875 171.207031 105.097656 167.792969 106.527344 165.085938 C 107.960938 162.367188 110.761719 160.644531 113.8125 160.375 C 115.535156 160.222656 117.28125 160.515625 118.824219 161.300781 C 119.15625 161.46875 119.511719 161.191406 119.4375 160.832031 C 118.167969 154.601562 122.382812 148.710938 127.472656 145.542969 C 133.203125 141.980469 141.503906 140.996094 147.125 145.285156 C 149.855469 147.367188 151.800781 150.5625 151.867188 154.035156 C 151.875 154.53125 152.519531 154.558594 152.6875 154.144531 C 154.679688 149.242188 161.6875 148.632812 165.6875 151.257812 C 167.34375 152.34375 168.652344 153.882812 169.640625 155.582031 C 169.910156 156.046875 170.632812 155.628906 170.363281 155.164062 C 168.683594 152.269531 166.074219 149.871094 162.738281 149.144531 Z M 235.457031 162.558594 C 229.8125 162.820312 224.164062 163.078125 218.519531 163.335938 C 213.449219 163.570312 208.371094 163.886719 203.300781 164.007812 C 202.355469 164.03125 201.234375 164.160156 200.386719 163.660156 C 199.695312 163.253906 199.273438 162.5 199.238281 161.710938 C 199.199219 160.761719 199.75 160.070312 200.476562 159.535156 C 201.308594 158.925781 202.261719 158.484375 203.265625 158.25 C 203.199219 157.914062 203.195312 157.574219 203.25 157.234375 C 203.273438 157.089844 203.332031 156.957031 203.355469 156.824219 C 203.382812 156.699219 203.375 156.554688 203.390625 156.425781 C 203.527344 155.316406 203.882812 154.101562 204.742188 153.324219 C 205.996094 152.1875 207.675781 152.554688 209.082031 153.222656 C 208.796875 151.035156 209.234375 148.800781 210.234375 146.820312 C 211.226562 144.847656 212.789062 143.132812 214.703125 142.011719 C 216.652344 140.875 218.917969 140.433594 221.15625 140.726562 C 225.351562 141.277344 229.222656 144.222656 230.578125 148.25 C 231.640625 147.429688 232.871094 146.851562 234.1875 146.554688 C 236.925781 145.9375 239.820312 146.554688 241.984375 148.355469 C 243.917969 149.960938 245.148438 152.367188 245.304688 154.867188 C 245.550781 154.761719 245.804688 154.675781 246.058594 154.597656 C 247.984375 154.054688 250.210938 154.417969 251.5 156.058594 C 252.820312 157.742188 252.460938 160.25 250.523438 161.296875 C 249.671875 161.757812 248.695312 161.90625 247.742188 161.980469 C 246.453125 162.085938 245.152344 162.113281 243.863281 162.171875 C 241.054688 162.300781 238.257812 162.429688 235.457031 162.558594 Z M 220.808594 162.402344 C 225.992188 162.164062 231.175781 161.925781 236.359375 161.6875 C 238.929688 161.570312 241.5 161.453125 244.066406 161.332031 C 245.257812 161.277344 246.453125 161.246094 247.640625 161.160156 C 248.488281 161.101562 249.382812 160.980469 250.136719 160.558594 C 250.933594 160.117188 251.457031 159.308594 251.472656 158.390625 C 251.488281 157.414062 250.960938 156.511719 250.191406 155.933594 C 248.71875 154.835938 246.660156 155.0625 245.113281 155.867188 C 244.839844 156.011719 244.480469 155.839844 244.484375 155.507812 C 244.5 154.121094 244.15625 152.75 243.496094 151.527344 C 242.304688 149.308594 240.203125 147.695312 237.699219 147.261719 C 235.214844 146.832031 232.527344 147.578125 230.652344 149.265625 C 230.425781 149.46875 230.039062 149.394531 229.953125 149.082031 C 229.363281 146.847656 227.925781 144.902344 226.050781 143.558594 C 224.378906 142.363281 222.378906 141.589844 220.3125 141.484375 C 218.230469 141.371094 216.207031 141.957031 214.488281 143.136719 C 211.113281 145.453125 209.136719 149.847656 210.035156 153.882812 C 210.035156 153.886719 210.035156 153.890625 210.035156 153.890625 C 210.039062 153.90625 210.039062 153.921875 210.042969 153.929688 C 210.054688 154.054688 210.019531 154.160156 209.953125 154.234375 C 209.855469 154.367188 209.691406 154.453125 209.507812 154.390625 C 209.445312 154.378906 209.390625 154.351562 209.34375 154.308594 C 208.476562 153.808594 207.460938 153.324219 206.4375 153.425781 C 205.335938 153.539062 204.722656 154.492188 204.429688 155.460938 C 204.363281 155.6875 204.308594 155.914062 204.265625 156.144531 C 204.25 156.234375 204.234375 156.324219 204.222656 156.414062 C 204.21875 156.433594 204.207031 156.53125 204.203125 156.574219 C 204.195312 156.660156 204.191406 156.753906 204.183594 156.84375 C 204.164062 157.007812 204.101562 157.167969 204.070312 157.332031 C 203.992188 157.71875 204.039062 158.089844 204.175781 158.457031 C 204.246094 158.652344 204.09375 158.929688 203.882812 158.96875 C 203.351562 159.066406 202.828125 159.210938 202.332031 159.421875 C 201.839844 159.636719 201.367188 159.910156 200.9375 160.222656 C 200.613281 160.457031 200.308594 160.710938 200.164062 161.09375 C 199.929688 161.695312 200.121094 162.429688 200.632812 162.835938 C 200.960938 163.089844 201.347656 163.144531 201.746094 163.175781 C 202.246094 163.214844 202.738281 163.195312 203.238281 163.183594 C 203.933594 163.164062 204.628906 163.148438 205.324219 163.117188 C 210.488281 162.878906 215.644531 162.640625 220.808594 162.402344 Z M 248.742188 218.90625 C 246.636719 217.738281 244.027344 218.074219 242.171875 219.476562 C 242.421875 217.417969 241.40625 215.3125 240.082031 213.71875 C 238.410156 211.703125 235.710938 209.738281 232.949219 210.519531 C 231.652344 210.886719 230.511719 211.816406 230.15625 213.140625 C 230.015625 213.660156 230.820312 213.878906 230.960938 213.363281 C 231.222656 212.382812 232.042969 211.691406 232.988281 211.378906 C 234.078125 211.023438 235.226562 211.183594 236.25 211.671875 C 237.386719 212.210938 238.371094 213.050781 239.207031 213.984375 C 239.996094 214.863281 240.667969 215.890625 241.054688 217.007812 C 241.472656 218.21875 241.542969 219.535156 240.953125 220.699219 C 240.707031 221.1875 241.359375 221.546875 241.675781 221.121094 C 243.070312 219.226562 245.859375 218.445312 248.011719 219.464844 C 249.078125 219.96875 249.949219 220.824219 250.496094 221.867188 C 250.769531 222.382812 250.957031 222.953125 251.035156 223.535156 C 251.105469 224.082031 251.132812 224.742188 250.53125 224.980469 C 250.011719 225.183594 249.394531 225.085938 248.855469 225.046875 C 248.140625 224.988281 247.421875 224.921875 246.707031 224.855469 C 245.226562 224.710938 243.75 224.554688 242.273438 224.386719 C 239.273438 224.050781 236.277344 223.679688 233.277344 223.324219 C 230.003906 222.933594 226.726562 222.566406 223.445312 222.304688 C 222.910156 222.261719 222.910156 223.09375 223.445312 223.136719 C 229.90625 223.652344 236.328125 224.558594 242.773438 225.273438 C 244.363281 225.453125 245.957031 225.617188 247.550781 225.761719 C 248.253906 225.828125 248.972656 225.921875 249.679688 225.925781 C 250.277344 225.933594 250.925781 225.835938 251.382812 225.417969 C 252.363281 224.53125 251.816406 222.730469 251.347656 221.710938 C 250.8125 220.539062 249.871094 219.53125 248.742188 218.90625 Z M 109.441406 167.597656 C 109.082031 167.996094 109.671875 168.585938 110.03125 168.1875 C 111.773438 166.253906 114.484375 165.277344 117.066406 165.710938 C 117.589844 165.800781 117.816406 165 117.289062 164.910156 C 114.414062 164.425781 111.394531 165.433594 109.441406 167.597656 Z M 238.75 152.046875 C 240.574219 152.898438 241.917969 154.566406 242.339844 156.527344 C 242.453125 157.050781 243.257812 156.828125 243.144531 156.304688 C 242.683594 154.15625 241.171875 152.257812 239.175781 151.332031 C 238.972656 151.238281 238.722656 151.273438 238.605469 151.480469 C 238.496094 151.65625 238.546875 151.953125 238.75 152.046875 Z M 132.710938 146.824219 C 131.046875 147.648438 129.503906 148.6875 128.101562 149.898438 C 127.695312 150.253906 128.289062 150.835938 128.691406 150.488281 C 130.039062 149.320312 131.535156 148.335938 133.128906 147.539062 C 133.613281 147.300781 133.191406 146.582031 132.710938 146.824219 Z M 134.019531 148.992188 C 133.296875 149.417969 132.574219 149.84375 131.851562 150.261719 C 131.664062 150.375 131.578125 150.644531 131.703125 150.832031 C 131.824219 151.019531 132.070312 151.097656 132.273438 150.980469 C 132.992188 150.558594 133.71875 150.132812 134.4375 149.710938 C 134.628906 149.601562 134.710938 149.332031 134.589844 149.144531 C 134.464844 148.953125 134.21875 148.875 134.019531 148.992188 Z M 134.019531 148.992188 " fill-opacity="1" fill-rule="nonzero"/></g></svg>