<svg width="224" height="50" viewBox="0 0 224 50" fill="none" xmlns="http://www.w3.org/2000/svg">
<g clip-path="url(#clip0_114_267)">
<path fill-rule="evenodd" clip-rule="evenodd" d="M124.899 11.3281C123.69 10.5599 123.36 8.85417 124.188 8.94532C124.321 8.95834 124.413 9.08855 124.402 9.23177C124.326 10.0716 124.546 10.5599 125.218 10.918C124.616 10.1042 125.264 9.10157 125.6 9.32292C125.71 9.40105 125.75 9.5573 125.681 9.6875C125.374 10.2734 125.524 10.6445 125.953 11.0872C126.491 11.0221 127.064 11.0417 127.66 11.1589C130.466 11.7188 132.579 14.5247 132.775 17.8255H147.44C145.762 17.155 145.762 13.9974 147.926 13.431C151.664 12.4544 152.365 18.8867 147.382 18.8867H132.318C131.427 18.8867 132.284 17.474 131.12 15.1628C128.794 10.5404 122.914 11.4844 122.203 16.0156C121.63 19.694 125.275 21.8425 126.936 19.6419C128.047 18.1771 126.809 16.6341 126.271 17.1159C126.144 17.3438 126.624 17.4805 126.607 17.793C126.85 19.8763 123.279 19.8763 123.354 16.7253C123.47 12.2005 130.345 12.3763 130.571 18.151C130.756 23.0469 125.247 26.2826 121.479 22.4479C120.374 21.3216 119.633 19.7461 119.355 18.1315C117.133 17.6693 113.754 18.2747 113.186 21.1523C112.399 25.026 116.994 25.8724 117.289 22.5846C117.388 21.4323 116.716 20.8464 116.08 20.7617C115.385 20.6641 114.517 21.4518 115.235 22.1159C116.028 21.3542 116.797 22.1224 116.45 22.9492C116.068 23.8542 115.31 23.5938 114.784 23.0729C114.182 22.474 114.072 21.3932 114.315 20.8398C115.038 19.1862 118.568 19.3685 118.215 22.6888C117.712 27.4544 111.201 26.2435 112.272 20.918H112.278C113.013 17.2526 116.942 16.5104 119.841 17.1615C120.675 17.3438 119.882 19.401 122.104 21.6602C125.819 25.4427 131.103 20.9635 129.286 16.6146C127.995 13.5352 124.355 14.2839 124.292 16.7513C124.251 18.3789 125.715 18.3789 125.681 17.9427C124.037 16.543 127.353 14.5378 128.215 17.5977C129.17 20.9896 124.297 23.5612 121.907 19.4857C120.166 16.4974 121.763 12.4219 124.899 11.3281ZM148.429 16.3542C148.777 16.3151 149.326 16.8685 148.736 17.5846C150.738 16.7513 150.212 13.8997 148.134 14.4662C147.064 14.7526 147.104 16.53 148.429 16.3542Z" fill="black"/>
<path fill-rule="evenodd" clip-rule="evenodd" d="M124.847 26.4063L124.795 26.4128C124.813 26.4128 124.83 26.4128 124.847 26.4063ZM121.734 31.7904C121.977 31.9727 122.064 32.3177 121.902 32.6172C121.728 32.9232 121.335 33.0859 121.034 32.7409C120.773 32.4544 120.831 31.9662 121.149 31.7643C121.167 31.3346 121.161 30.931 121.132 30.5469H120.368C120.183 30.8919 119.755 30.957 119.5 30.6641C118.985 30.0846 119.766 29.2057 120.281 29.7852C120.316 29.8242 120.345 29.8633 120.368 29.9089H121.051C120.42 26.2695 117.694 26.8815 117.828 26.0156C118.111 24.1667 121.016 27.6042 121.439 29.0755C121.896 27.5065 122.822 26.1458 124.407 25.5859C124.39 24.1927 125.015 23.138 125.611 23.3529C126.936 23.8216 124.957 23.9323 125.067 26.0807C125.102 26.8294 122.446 26.3802 121.832 29.9089H122.515C122.7 29.5573 123.129 29.4987 123.383 29.7852C123.898 30.3646 123.117 31.2435 122.602 30.6641C122.567 30.6315 122.538 30.5859 122.515 30.5469H121.751C121.722 30.9375 121.716 31.3542 121.734 31.7904Z" fill="black"/>
<mask id="mask0_114_267" style="mask-type:luminance" maskUnits="userSpaceOnUse" x="110" y="17" width="6" height="32">
<path d="M110.351 17.3828H115.941V48.8477H110.351V17.3828Z" fill="white"/>
</mask>
<g mask="url(#mask0_114_267)">
<path fill-rule="evenodd" clip-rule="evenodd" d="M113.071 17.819C113.238 17.22 112.006 18.0013 111.387 18.0469C111.115 18.0729 110.837 18.0859 110.582 18.0859V48.8477C111.259 48.5612 111.641 47.9167 111.323 46.4062C111.74 46.224 111.988 45.9505 112.069 45.5859C111.369 44.7917 111.051 43.5742 110.947 42.1094C111.213 42.0703 111.392 42.0247 111.659 42.2917C112.093 44.5963 114.199 43.9909 114.269 41.7969C114.326 39.9935 112.284 38.8346 111.63 41.3607C111.444 41.5169 111.12 41.5625 110.941 41.4779C110.953 39.2708 111.057 36.9857 111.074 34.7786C111.757 34.3424 111.745 33.431 111.051 33.1185C110.9 32.5586 110.912 31.9206 110.999 31.237C111.537 30.651 111.525 30.1042 111.097 29.5833C111.132 29.388 111.172 29.1992 111.219 29.0169C111.398 29.349 111.612 29.6615 111.861 29.9544C112.203 30.3646 112.608 30.7292 113.082 31.0156C113.082 31.0352 113.082 31.0547 113.088 31.0677C113.111 31.224 113.186 31.3737 113.308 31.4713C113.435 31.569 113.586 31.6081 113.725 31.582C113.863 31.556 113.997 31.4648 114.083 31.3281C114.17 31.1849 114.199 31.0221 114.176 30.8594C114.153 30.7031 114.078 30.5599 113.95 30.4557C113.829 30.3581 113.678 30.3255 113.539 30.3516C113.464 30.3646 113.395 30.3971 113.325 30.4427C112.92 30.1888 112.567 29.8698 112.272 29.5182C111.913 29.1016 111.641 28.6328 111.439 28.1575C111.514 27.8711 111.583 27.5911 111.618 27.3112C112.11 27.845 112.694 28.2227 113.279 28.418C113.892 28.6133 114.512 28.6133 115.038 28.3724C115.084 28.4049 115.137 28.431 115.194 28.444C115.339 28.4831 115.49 28.4505 115.611 28.3659C115.733 28.2878 115.825 28.151 115.86 27.9818C115.895 27.8125 115.866 27.6497 115.796 27.513C115.721 27.3763 115.6 27.2721 115.449 27.2331C115.304 27.194 115.154 27.2266 115.032 27.3047V27.3112C114.911 27.3893 114.818 27.526 114.784 27.6953C114.778 27.7344 114.772 27.7734 114.772 27.8125C114.373 27.9687 113.91 27.9622 113.441 27.806C112.775 27.5911 112.11 27.0898 111.618 26.3672C111.612 26.3542 111.601 26.3411 111.595 26.3346C111.578 26.2435 111.554 26.1458 111.525 26.0482C112.463 26.4453 113.071 24.9674 112.098 24.7266C112.035 24.069 111.566 23.9128 111.126 24.0495C110.704 22.5846 110.628 21.2695 111.375 20.2865C111.45 18.4115 112.995 18.0794 113.071 17.819Z" fill="black"/>
</g>
<path fill-rule="evenodd" clip-rule="evenodd" d="M110.582 17.0312C111.861 16.9206 112.839 16.4062 114.026 15.5143C114.72 14.987 116.346 14.668 117.37 15.8789C117.521 14.9023 117.075 14.4141 116.497 14.2253C117.752 12.8841 118.447 11.5169 117.469 10.3516C117.318 11.7513 116.56 13.2031 115.582 13.3659C113.939 13.6393 114.431 15.2734 112.504 15.0911C115.727 11.901 119.089 8.43099 117.99 3.6914C116.867 -1.14584 110.582 -0.514325 110.582 3.86068C110.582 5.90495 112.127 7.05729 113.522 6.83594C114.494 6.6862 115.241 5.72917 115.316 4.58984C115.38 3.58724 114.726 2.70833 113.8 2.59765C112.984 2.50651 112.266 3.07942 112.376 4.05599C112.521 5.37109 113.858 5.45573 114.523 4.47916C114.575 5.18229 114.089 5.88541 113.447 5.9375C112.532 6.02213 111.346 5.23437 111.381 3.89323C111.456 0.553382 115.669 0.585934 116.844 4.05599C117.99 7.44791 115.912 10.3776 113.568 12.8776C114.552 10.8724 115.113 8.6914 113.447 7.98828C112.747 7.69531 112.064 7.9362 111.78 8.75C111.612 9.21224 111.896 9.8112 112.451 9.75911C112.903 9.72005 113.076 9.19271 113.076 8.72396C115.247 10.3516 111.728 14.9479 110.582 16.3607C110.582 16.582 110.582 16.8099 110.582 17.0312Z" fill="black"/>
<path fill-rule="evenodd" clip-rule="evenodd" d="M96.2651 11.3281C97.4688 10.5599 97.7986 8.85417 96.9711 8.94532C96.8438 8.95834 96.7512 9.08855 96.7627 9.23177C96.8322 10.0716 96.6123 10.5599 95.941 10.918C96.5486 10.1042 95.9005 9.10157 95.559 9.32292C95.4491 9.40105 95.4144 9.5573 95.478 9.6875C95.7847 10.2734 95.6343 10.6445 95.2118 11.0872C94.6678 11.0221 94.0949 11.0417 93.4989 11.1589C90.6921 11.7188 88.5799 14.5247 88.3889 17.8255H73.7246C75.4028 17.155 75.4028 13.9974 73.2384 13.431C69.4942 12.4544 68.7998 18.8867 73.7766 18.8867H88.8403C89.7315 18.8867 88.875 17.474 90.0382 15.1628C92.3646 10.5404 98.25 11.4844 98.956 16.0156C99.5347 19.694 95.8831 21.8425 94.2222 19.6419C93.1111 18.1771 94.3553 16.6341 94.8935 17.1159C95.0208 17.3438 94.5347 17.4805 94.5579 17.793C94.3148 19.8763 97.8854 19.8763 97.8044 16.7253C97.6887 12.2005 90.8137 12.3763 90.5938 18.151C90.4028 23.0469 95.9178 26.2826 99.6852 22.4479C100.791 21.3216 101.525 19.7461 101.803 18.1315C104.025 17.6693 107.411 18.2747 107.972 21.1523C108.759 25.026 104.164 25.8724 103.875 22.5846C103.771 21.4323 104.442 20.8464 105.079 20.7617C105.779 20.6641 106.641 21.4518 105.924 22.1159C105.137 21.3542 104.361 22.1224 104.708 22.9492C105.09 23.8542 105.848 23.5938 106.381 23.0729C106.983 22.474 107.093 21.3932 106.85 20.8398C106.126 19.1862 102.59 19.3685 102.943 22.6888C103.447 27.4544 109.957 26.2435 108.887 20.918C108.146 17.2526 104.222 16.5104 101.317 17.1615C100.49 17.3438 101.277 19.401 99.0544 21.6602C95.3391 25.4427 90.0614 20.9635 91.8785 16.6146C93.169 13.5352 96.809 14.2839 96.8669 16.7513C96.9132 18.3789 95.4491 18.3789 95.4838 17.9427C97.1273 16.543 93.8114 14.5378 92.9491 17.5977C91.9884 20.9896 96.8611 23.5612 99.2512 19.4857C100.999 16.4974 99.4016 12.4219 96.2651 11.3281ZM72.7292 16.3542C72.382 16.3151 71.838 16.8685 72.4283 17.5846C70.4202 16.7513 70.9526 13.8997 73.0243 14.4662C74.1007 14.7526 74.0602 16.53 72.7292 16.3542Z" fill="black"/>
<path fill-rule="evenodd" clip-rule="evenodd" d="M96.3114 26.4063L96.3634 26.4128C96.3461 26.4128 96.3287 26.4128 96.3114 26.4063ZM99.4248 31.7904C99.1817 31.9727 99.1007 32.3177 99.2627 32.6172C99.4306 32.9232 99.8241 33.0859 100.125 32.7409H100.131C100.385 32.4544 100.328 31.9662 100.015 31.7643C99.9919 31.3346 99.9977 30.931 100.032 30.5469H100.796C100.981 30.8919 101.404 30.957 101.659 30.6641H101.664C102.179 30.0846 101.392 29.2057 100.877 29.7852C100.848 29.8242 100.819 29.8633 100.796 29.9089H100.113C100.744 26.2695 103.464 26.8815 103.331 26.0156C103.047 24.1667 100.148 27.6042 99.7199 29.0755C99.2627 27.5065 98.3426 26.1458 96.757 25.5859C96.7743 24.1927 96.1435 23.138 95.5533 23.3529C94.2222 23.8216 96.2014 23.9323 96.0972 26.0807C96.0625 26.8294 98.7188 26.3802 99.3264 29.9089H98.6435C98.4583 29.5573 98.0359 29.4987 97.7813 29.7852C97.2662 30.3646 98.0475 31.2435 98.5625 30.6641C98.5914 30.6315 98.6204 30.5859 98.6435 30.5469H99.4074C99.4421 30.9375 99.4479 31.3542 99.4248 31.7904Z" fill="black"/>
<mask id="mask1_114_267" style="mask-type:luminance" maskUnits="userSpaceOnUse" x="105" y="17" width="6" height="32">
<path d="M105.027 17.3828H110.617V48.8477H105.027V17.3828Z" fill="white"/>
</mask>
<g mask="url(#mask1_114_267)">
<path fill-rule="evenodd" clip-rule="evenodd" d="M108.094 17.819C107.926 17.22 109.153 18.0013 109.772 18.0469C110.05 18.0729 110.322 18.0859 110.582 18.0859V48.8477C109.905 48.5612 109.517 47.9167 109.836 46.4062C109.419 46.224 109.176 45.9505 109.089 45.5859C109.789 44.7917 110.113 43.5742 110.212 42.1094C109.946 42.0703 109.766 42.0247 109.5 42.2917C109.072 44.5963 106.965 43.9909 106.896 41.7969C106.838 39.9935 108.875 38.8346 109.535 41.3607C109.714 41.5169 110.038 41.5625 110.223 41.4779C110.206 39.2708 110.102 36.9857 110.09 34.7786C109.407 34.3424 109.413 33.431 110.113 33.1185C110.258 32.5586 110.252 31.9206 110.166 31.237C109.622 30.651 109.639 30.1042 110.061 29.5833C110.032 29.388 109.986 29.1992 109.946 29.0169C109.766 29.349 109.546 29.6615 109.297 29.9544C108.962 30.3646 108.551 30.7292 108.082 31.0156C108.082 31.0352 108.076 31.0547 108.076 31.0677C108.053 31.224 107.972 31.3737 107.851 31.4713C107.723 31.569 107.579 31.6081 107.44 31.582C107.301 31.556 107.168 31.4648 107.081 31.3281C106.988 31.1849 106.96 31.0221 106.983 30.8594C107.006 30.7031 107.087 30.5599 107.208 30.4557C107.336 30.3581 107.48 30.3255 107.619 30.3516C107.694 30.3646 107.77 30.3971 107.833 30.4427C108.238 30.1888 108.591 29.8698 108.892 29.5182C109.245 29.1016 109.523 28.6328 109.72 28.1575C109.645 27.8711 109.581 27.5911 109.546 27.3112C109.049 27.845 108.464 28.2227 107.88 28.418C107.266 28.6133 106.647 28.6133 106.12 28.3724C106.074 28.4049 106.022 28.431 105.97 28.444C105.819 28.4831 105.669 28.4505 105.547 28.3659C105.426 28.2878 105.333 28.151 105.299 27.9818C105.264 27.8125 105.293 27.6497 105.368 27.513C105.443 27.3763 105.559 27.2721 105.71 27.2331C105.86 27.194 106.01 27.2266 106.126 27.3047V27.3112C106.248 27.3893 106.34 27.526 106.375 27.6953C106.387 27.7344 106.392 27.7734 106.392 27.8125C106.786 27.9687 107.255 27.9622 107.723 27.806C108.389 27.5911 109.054 27.0898 109.546 26.3672C109.552 26.3542 109.558 26.3411 109.569 26.3346C109.587 26.2435 109.61 26.1458 109.639 26.0482C108.701 26.4453 108.094 24.9674 109.066 24.7266C109.13 24.069 109.598 23.9128 110.038 24.0495C110.461 22.5846 110.53 21.2695 109.789 20.2865C109.708 18.4115 108.163 18.0794 108.094 17.819Z" fill="black"/>
</g>
<path fill-rule="evenodd" clip-rule="evenodd" d="M110.582 17.0312C109.303 16.9206 108.319 16.4062 107.139 15.5143C106.444 14.987 104.818 14.668 103.794 15.8789C103.638 14.9023 104.083 14.4141 104.668 14.2253C103.406 12.8841 102.712 11.5169 103.696 10.3516C103.84 11.7513 104.604 13.2031 105.576 13.3659C107.226 13.6393 106.734 15.2734 108.661 15.0911C105.432 11.901 102.069 8.43099 103.169 3.6914C104.292 -1.14584 110.582 -0.514325 110.582 3.86068C110.582 5.90495 109.037 7.05729 107.637 6.83594C106.664 6.6862 105.918 5.72917 105.848 4.58984C105.785 3.58724 106.439 2.70833 107.365 2.59765C108.181 2.50651 108.892 3.07942 108.788 4.05599C108.638 5.37109 107.307 5.45573 106.641 4.47916C106.583 5.18229 107.075 5.88541 107.712 5.9375C108.632 6.02213 109.813 5.23437 109.784 3.89323C109.708 0.553382 105.49 0.585934 104.315 4.05599C103.175 7.44791 105.247 10.3776 107.59 12.8776C106.612 10.8724 106.045 8.6914 107.712 7.98828C108.418 7.69531 109.095 7.9362 109.384 8.75C109.552 9.21224 109.269 9.8112 108.713 9.75911C108.256 9.72005 108.082 9.19271 108.088 8.72396C105.918 10.3516 109.431 14.9479 110.582 16.3607C110.582 16.582 110.582 16.8099 110.582 17.0312Z" fill="black"/>
<mask id="mask2_114_267" style="mask-type:luminance" maskUnits="userSpaceOnUse" x="0" y="16" width="70" height="4">
<path d="M0.888916 16.6667H69.7778V20H0.888916V16.6667Z" fill="white"/>
</mask>
<g mask="url(#mask2_114_267)">
<path fill-rule="evenodd" clip-rule="evenodd" d="M68.6898 17.7539C68.9792 17.7539 69.2107 18.0208 69.2107 18.3464C69.2107 18.6654 68.9792 18.9323 68.6898 18.9323H1.49074C1.20139 18.9323 0.96991 18.6654 0.96991 18.3464C0.96991 18.0208 1.20139 17.7539 1.49074 17.7539H68.6898Z" fill="black"/>
</g>
<mask id="mask3_114_267" style="mask-type:luminance" maskUnits="userSpaceOnUse" x="151" y="17" width="73" height="3">
<path d="M151.601 17.6823H223.024V19.1797H151.601V17.6823Z" fill="white"/>
</mask>
<g mask="url(#mask3_114_267)">
<path fill-rule="evenodd" clip-rule="evenodd" d="M222.503 17.7539C222.793 17.7539 223.024 18.0208 223.024 18.3464C223.024 18.6654 222.793 18.9323 222.503 18.9323H152.347C152.058 18.9323 151.821 18.6654 151.821 18.3464C151.821 18.0208 152.058 17.7539 152.347 17.7539H222.503Z" fill="black"/>
</g>
</g>
<defs>
<clipPath id="clip0_114_267">
<rect width="222.222" height="50" fill="white" transform="translate(0.888916)"/>
</clipPath>
</defs>
</svg>
