<svg xmlns="http://www.w3.org/2000/svg" xmlns:xlink="http://www.w3.org/1999/xlink" width="350" zoomAndPan="magnify" viewBox="0 0 262.5 262.500001" height="350" preserveAspectRatio="xMidYMid meet" version="1.0"><defs><filter x="0%" y="0%" width="100%" height="100%" id="890fde8aa6"><feColorMatrix values="0 0 0 0 1 0 0 0 0 1 0 0 0 0 1 0 0 0 1 0" color-interpolation-filters="sRGB"/></filter><clipPath id="cc99160afc"><path d="M 39.46875 106.035156 L 178 106.035156 L 178 261.285156 L 39.46875 261.285156 Z M 39.46875 106.035156 " clip-rule="nonzero"/></clipPath><mask id="408316c948"><g filter="url(#890fde8aa6)"><rect x="-26.25" width="315" fill="#000000" y="-26.25" height="315.000001" fill-opacity="0.2"/></g></mask><clipPath id="276982ddc1"><path d="M 0.078125 1 L 61.644531 1 L 61.644531 85 L 0.078125 85 Z M 0.078125 1 " clip-rule="nonzero"/></clipPath><clipPath id="f77ab41136"><rect x="0" width="62" y="0" height="86"/></clipPath></defs><path fill="#ff9f6c" d="M 71.820312 156.1875 C 68.492188 160.179688 67.558594 175.277344 67.558594 177.941406 C 67.558594 180.601562 73.152344 184.789062 72.484375 188.78125 C 72.019531 191.574219 70.355469 192.039062 69.355469 192.175781 C 69.089844 192.242188 68.957031 192.242188 68.558594 192.242188 C 68.625 193.503906 68.492188 195.167969 67.757812 195.898438 C 66.695312 196.964844 63.167969 196.765625 61.835938 195.433594 C 60.503906 194.101562 60.503906 194.101562 59.171875 194.101562 C 57.84375 194.101562 55.84375 192.773438 55.179688 192.109375 C 54.515625 191.441406 53.183594 192.773438 51.1875 190.113281 C 49.1875 187.453125 52.515625 177.472656 52.515625 177.472656 C 52.515625 177.472656 52.515625 162.175781 55.179688 153.527344 C 57.84375 144.878906 68.957031 135.035156 68.957031 135.035156 L 78.609375 148.9375 C 78.609375 148.9375 75.148438 152.199219 71.820312 156.1875 Z M 153.226562 139.558594 L 149.097656 148.207031 C 149.097656 148.207031 159.347656 158.78125 167.46875 154.859375 C 175.589844 150.933594 190.5 139.09375 190.5 139.09375 C 190.5 139.09375 199.019531 134.570312 200.683594 131.644531 C 202.082031 129.183594 201.683594 127.1875 201.683594 126.257812 C 201.75 125.324219 198.355469 114.28125 193.761719 115.214844 C 192.761719 115.414062 191.03125 116.34375 190.367188 116.945312 C 190.101562 116.675781 190.101562 116.609375 189.902344 116.878906 C 189.167969 116.144531 187.570312 115.28125 185.242188 116.8125 C 181.847656 119.070312 182.511719 126.589844 180.582031 128.382812 C 178.652344 130.179688 168.933594 138.496094 163.742188 138.761719 C 162.742188 138.5625 160.679688 136.101562 159.148438 135.367188 C 157.683594 134.636719 153.890625 138.164062 153.226562 139.558594 Z M 140.84375 200.953125 C 140.84375 200.953125 147.035156 205.410156 147.699219 208.070312 C 148.367188 210.730469 159.015625 237.339844 159.015625 237.339844 L 145.703125 245.984375 C 145.703125 245.984375 131.058594 233.347656 131.726562 221.375 C 123.074219 214.722656 123.074219 214.722656 123.074219 214.722656 Z M 107.761719 216.71875 C 107.761719 216.71875 95.980469 223.902344 93.253906 223.570312 C 90.523438 223.238281 61.835938 223.503906 61.835938 223.503906 L 58.574219 207.9375 C 58.574219 207.9375 75.679688 198.890625 86.597656 203.882812 C 95.914062 198.226562 95.914062 198.226562 95.914062 198.226562 Z M 107.761719 216.71875 " fill-opacity="1" fill-rule="nonzero"/><path fill="#eae8e5" d="M 139.847656 174.546875 C 139.246094 184.921875 138.449219 193.4375 138.449219 193.4375 C 138.449219 193.4375 140.445312 196.097656 142.441406 198.757812 C 135.121094 210.730469 113.15625 222.039062 113.15625 222.039062 C 113.15625 222.039062 104.5 214.722656 91.855469 201.417969 C 79.207031 188.117188 85.863281 172.816406 85.863281 172.816406 C 85.863281 172.816406 127.664062 175.078125 139.847656 174.546875 Z M 159.015625 237.339844 C 159.015625 237.339844 151.027344 241.996094 145.703125 245.984375 C 147.699219 247.980469 155.6875 256.628906 155.6875 256.628906 L 163.011719 249.976562 L 164.339844 245.984375 Z M 61.835938 223.503906 C 61.835938 223.503906 60.371094 214.390625 58.574219 207.9375 C 55.976562 209.070312 44.996094 213.394531 44.996094 213.394531 L 48.523438 222.640625 L 51.785156 225.300781 Z M 61.835938 223.503906 " fill-opacity="1" fill-rule="nonzero"/><path fill="#000000" d="M 132.722656 109.292969 C 139.378906 109.960938 156.6875 128.585938 163.34375 134.570312 C 156.019531 148.539062 144.039062 151.863281 144.039062 151.863281 C 144.039062 151.863281 144.039062 168.492188 144.039062 173.816406 C 116.082031 179.136719 84.800781 173.148438 82.136719 171.820312 C 82.136719 167.828125 84.800781 147.875 84.800781 147.875 C 84.800781 147.875 83.46875 148.539062 80.804688 150.535156 C 70.15625 143.882812 65.828125 126.257812 65.828125 126.257812 C 65.828125 126.257812 68.492188 124.925781 80.804688 117.941406 C 97.914062 108.230469 106.433594 107.964844 106.433594 107.964844 C 118.480469 115.945312 128.730469 111.953125 132.722656 109.292969 Z M 132.722656 109.292969 C 139.378906 109.960938 156.6875 128.585938 163.34375 134.570312 C 156.019531 148.539062 144.039062 151.863281 144.039062 151.863281 C 144.039062 151.863281 144.039062 168.492188 144.039062 173.816406 C 116.082031 179.136719 84.800781 173.148438 82.136719 171.820312 C 82.136719 167.828125 84.800781 147.875 84.800781 147.875 C 84.800781 147.875 83.46875 148.539062 80.804688 150.535156 C 70.15625 143.882812 65.828125 126.257812 65.828125 126.257812 C 65.828125 126.257812 68.492188 124.925781 80.804688 117.941406 C 97.914062 108.230469 106.433594 107.964844 106.433594 107.964844 C 118.480469 115.945312 128.730469 111.953125 132.722656 109.292969 Z M 132.722656 109.292969 " fill-opacity="1" fill-rule="nonzero"/><g clip-path="url(#cc99160afc)"><path fill="#000000" d="M 163.410156 244.390625 C 159.949219 243.859375 160.679688 247.449219 161.277344 249.3125 C 161.480469 249.976562 161.277344 250.640625 160.679688 251.042969 L 155.222656 254.832031 C 154.554688 255.296875 154.355469 256.230469 154.824219 256.960938 C 155.621094 258.09375 156.753906 259.6875 157.617188 260.621094 C 158.085938 261.152344 158.882812 261.285156 159.480469 260.953125 C 163.875 258.492188 174.257812 249.84375 177.519531 246.1875 C 178.253906 245.386719 177.917969 244.125 176.921875 243.722656 C 172.992188 242.261719 165.671875 243.992188 164.140625 244.390625 C 163.808594 244.457031 163.609375 244.457031 163.410156 244.390625 Z M 53.648438 224.964844 C 55.378906 221.90625 51.785156 221.308594 49.855469 221.175781 C 49.1875 221.109375 48.589844 220.644531 48.457031 219.976562 L 46.925781 213.527344 C 46.726562 212.726562 45.925781 212.195312 45.128906 212.394531 C 43.796875 212.726562 41.867188 213.191406 40.667969 213.660156 C 40.003906 213.925781 39.605469 214.589844 39.671875 215.253906 C 40.335938 220.242188 44.664062 233.082031 46.925781 237.40625 C 47.390625 238.335938 48.722656 238.535156 49.457031 237.738281 C 52.25 234.613281 53.316406 227.226562 53.515625 225.566406 C 53.515625 225.367188 53.582031 225.167969 53.648438 224.964844 Z M 120.941406 113.617188 C 113.222656 113.617188 107.230469 109.359375 107.097656 109.292969 C 106.367188 108.761719 106.164062 107.699219 106.699219 106.964844 C 107.230469 106.234375 108.296875 106.035156 109.027344 106.566406 C 109.492188 106.898438 120.210938 114.414062 130.394531 107.230469 C 131.125 106.699219 132.191406 106.898438 132.722656 107.632812 C 133.257812 108.363281 133.058594 109.425781 132.324219 109.960938 C 128.53125 112.6875 124.535156 113.617188 120.941406 113.617188 Z M 120.941406 113.617188 " fill-opacity="1" fill-rule="nonzero"/></g><path fill="#c95c3f" d="M 201.550781 125.789062 C 200.351562 126.789062 196.824219 129.582031 194.492188 130.84375 C 194.691406 131.511719 195.027344 131.644531 195.160156 131.710938 C 196.15625 132.109375 198.089844 131.046875 198.6875 130.644531 C 198.953125 130.445312 199.417969 130.511719 199.617188 130.777344 C 199.820312 131.046875 199.753906 131.511719 199.484375 131.710938 C 199.21875 131.910156 197.421875 133.105469 195.757812 133.105469 C 195.425781 133.105469 195.027344 133.039062 194.691406 132.90625 C 194.160156 132.707031 193.496094 132.175781 193.164062 130.914062 C 192.695312 130.644531 191.964844 130.179688 191.632812 129.382812 C 191.5 129.050781 191.5 128.652344 191.566406 128.316406 C 190.964844 128.050781 190.433594 127.585938 189.835938 127.054688 C 189.632812 129.316406 188.171875 130.3125 188.105469 130.378906 C 187.96875 130.445312 187.835938 130.511719 187.703125 130.511719 C 187.503906 130.511719 187.304688 130.378906 187.171875 130.246094 C 186.972656 129.914062 187.039062 129.515625 187.371094 129.316406 C 187.4375 129.25 188.902344 128.183594 188.4375 125.457031 C 187.835938 124.59375 187.371094 123.863281 187.171875 123.527344 C 186.972656 123.195312 187.105469 122.796875 187.4375 122.597656 C 187.769531 122.398438 188.171875 122.53125 188.371094 122.863281 C 189.433594 124.726562 191.5 127.320312 192.628906 127.320312 C 192.695312 127.320312 192.960938 127.320312 193.230469 126.855469 C 194.691406 124.460938 191.363281 118.871094 189.902344 116.945312 C 189.902344 116.945312 189.902344 116.878906 189.835938 116.878906 C 190.101562 116.675781 190.035156 116.742188 190.300781 116.945312 C 190.5 116.742188 190.765625 116.542969 191.097656 116.34375 C 191.5 116.878906 192.296875 118.140625 193.097656 119.671875 L 197.222656 116.742188 C 197.488281 117.078125 197.820312 117.410156 198.089844 117.808594 L 193.761719 120.933594 C 194.226562 122 194.625 123.0625 194.828125 124.195312 L 199.75 120.667969 C 199.953125 121.066406 200.152344 121.464844 200.285156 121.933594 L 194.894531 125.789062 C 194.828125 126.457031 194.691406 127.054688 194.359375 127.652344 C 193.894531 128.382812 193.363281 128.652344 192.894531 128.71875 C 192.828125 128.851562 192.894531 128.984375 192.894531 129.050781 C 193.027344 129.382812 193.429688 129.714844 193.761719 129.847656 C 196.425781 128.449219 201.082031 124.527344 201.148438 124.527344 L 201.214844 124.527344 C 201.347656 124.992188 201.484375 125.457031 201.550781 125.789062 Z M 69.15625 186.253906 C 68.757812 186.253906 68.492188 186.519531 68.492188 186.917969 C 68.492188 187.984375 68.558594 190.976562 68.558594 192.242188 C 68.890625 192.242188 69.089844 192.175781 69.355469 192.175781 C 69.558594 192.175781 69.691406 192.109375 69.890625 192.039062 C 69.890625 190.644531 69.824219 187.851562 69.824219 186.851562 C 69.824219 186.519531 69.558594 186.253906 69.15625 186.253906 Z M 69.15625 186.253906 " fill-opacity="1" fill-rule="nonzero"/><g mask="url(#408316c948)"><g transform="matrix(1, 0, 0, 1, 84, 131)"><g clip-path="url(#f77ab41136)"><g clip-path="url(#276982ddc1)"><path fill="#000000" d="M 11.648438 9.15625 C 11.847656 9.425781 11.78125 9.890625 11.515625 10.089844 C 9.652344 11.484375 3.863281 16.140625 0.601562 18.804688 C 0.734375 17.605469 0.867188 16.875 0.867188 16.875 C 4.261719 14.148438 9.054688 10.289062 10.71875 9.023438 C 10.984375 8.824219 11.382812 8.890625 11.648438 9.15625 Z M 60.707031 1.109375 C 60.304688 1.109375 60.039062 1.375 60.039062 1.773438 L 60.039062 20.863281 C 60.039062 20.863281 60.570312 20.730469 61.371094 20.398438 L 61.371094 1.773438 C 61.371094 1.375 61.105469 1.109375 60.707031 1.109375 Z M 48.992188 44.34375 C 48.523438 44.410156 48.125 44.410156 47.660156 44.476562 C 47.726562 46.007812 47.859375 49.132812 47.191406 51.394531 L 46.925781 51.0625 C 46.925781 51.0625 46.925781 51.0625 46.925781 50.996094 L 45.863281 44.542969 C 45.394531 44.542969 44.996094 44.613281 44.53125 44.613281 L 45.597656 51.195312 L 45.597656 51.261719 C 45.597656 51.394531 45.597656 51.59375 45.730469 51.730469 L 54.382812 62.371094 C 54.449219 61.640625 54.582031 60.507812 54.582031 60.507812 L 48.125 52.59375 C 49.191406 50 49.058594 46.140625 48.992188 44.34375 Z M 21.699219 64.699219 C 20.234375 63.167969 19.039062 61.507812 18.105469 59.84375 C 25.292969 53.789062 26.691406 47.539062 26.957031 44.8125 C 26.492188 44.8125 26.09375 44.746094 25.628906 44.746094 C 25.359375 47.207031 24.097656 53.058594 17.507812 58.644531 C 14.378906 52.261719 14.644531 46.007812 14.84375 43.878906 C 14.378906 43.8125 13.980469 43.746094 13.511719 43.746094 C 13.179688 46.804688 12.714844 57.183594 20.769531 65.628906 C 28.621094 73.945312 37.34375 82.59375 39.671875 84.855469 C 40.070312 84.589844 40.402344 84.386719 40.804688 84.121094 C 38.804688 82.125 29.820312 73.214844 21.699219 64.699219 Z M 21.699219 64.699219 " fill-opacity="1" fill-rule="nonzero"/></g></g></g></g></svg>