<svg xmlns="http://www.w3.org/2000/svg" xmlns:xlink="http://www.w3.org/1999/xlink" width="350" zoomAndPan="magnify" viewBox="0 0 262.5 262.500001" height="350" preserveAspectRatio="xMidYMid meet" version="1.0"><defs><filter x="0%" y="0%" width="100%" height="100%" id="f91fed744b"><feColorMatrix values="0 0 0 0 1 0 0 0 0 1 0 0 0 0 1 0 0 0 1 0" color-interpolation-filters="sRGB"/></filter><mask id="aff3e9f464"><g filter="url(#f91fed744b)"><rect x="-26.25" width="315" fill="#000000" y="-26.25" height="315.000001" fill-opacity="0.2"/></g></mask><clipPath id="f57f1aee9c"><path d="M 1 0.117188 L 76 0.117188 L 76 140.96875 L 1 140.96875 Z M 1 0.117188 " clip-rule="nonzero"/></clipPath><clipPath id="bc40314cc1"><rect x="0" width="77" y="0" height="141"/></clipPath><clipPath id="922b1f4430"><path d="M 67.488281 242 L 165 242 L 165 261.433594 L 67.488281 261.433594 Z M 67.488281 242 " clip-rule="nonzero"/></clipPath></defs><path fill="#2dbcb7" d="M 120.660156 234.933594 C 119.996094 232.9375 118.042969 228.1875 115.019531 221.820312 C 110.921875 228.5 106.871094 235.277344 106.871094 235.277344 C 106.871094 235.277344 94.96875 232.054688 80.738281 220.4375 C 83.308594 216.148438 91.5 194.167969 96.371094 173.726562 C 96.355469 161.398438 101.914062 131.832031 101.914062 131.832031 L 105.695312 106.945312 C 105.695312 106.945312 108.296875 103.597656 116.949219 104.351562 C 125.601562 105.105469 127.953125 120.269531 127.449219 122.449219 C 129.882812 122.28125 135.253906 121.472656 135.253906 121.472656 C 135.253906 121.472656 137.527344 148.339844 139.542969 173.390625 C 141.414062 196.617188 148.445312 227.347656 148.445312 227.347656 C 148.445312 227.347656 137.988281 232.921875 120.660156 234.933594 Z M 120.660156 234.933594 C 119.996094 232.9375 118.042969 228.1875 115.019531 221.820312 C 110.921875 228.5 106.871094 235.277344 106.871094 235.277344 C 106.871094 235.277344 94.96875 232.054688 80.738281 220.4375 C 83.308594 216.148438 91.5 194.167969 96.371094 173.726562 C 96.363281 167.316406 97.863281 156.242188 99.304688 147.089844 C 99.757812 144.210938 91.496094 141.707031 91.890625 139.414062 C 92.648438 134.976562 101.914062 131.832031 101.914062 131.832031 L 105.695312 106.945312 C 105.695312 106.945312 108.296875 103.597656 116.949219 104.351562 C 118.554688 104.488281 120.34375 105.464844 121.539062 106.421875 C 126.777344 110.625 136.867188 121.566406 136.867188 121.566406 C 136.867188 121.566406 139.953125 141.800781 138.582031 161.523438 C 138.855469 164.875 139.273438 170.035156 139.542969 173.390625 C 141.414062 196.617188 148.445312 227.347656 148.445312 227.347656 C 148.445312 227.347656 137.988281 232.921875 120.660156 234.933594 Z M 120.660156 234.933594 " fill-opacity="1" fill-rule="nonzero"/><path fill="#ff9f6c" d="M 146.316406 140.28125 C 141.910156 142.300781 137.085938 143.636719 137.085938 143.636719 L 138.582031 161.523438 C 142.847656 170.828125 146.261719 177.449219 146.261719 177.449219 C 146.261719 177.449219 149.050781 186.332031 151.5 188.417969 C 153.578125 190.1875 155.574219 190.144531 156.460938 190.34375 C 157.351562 190.546875 168.449219 189.34375 168.398438 184.804688 C 168.386719 183.824219 167.828125 181.988281 167.359375 181.292969 C 167.632812 181.089844 167.71875 181.121094 167.527344 180.835938 C 168.332031 180.257812 169.492188 178.933594 168.441406 176.429688 C 166.929688 172.824219 159.621094 172.097656 158.25 169.921875 C 156.878906 167.75 149.789062 147.929688 146.316406 140.28125 M 89.453125 226.6875 C 94.074219 229.539062 96.429688 230.859375 96.429688 230.859375 L 90.476562 238.851562 C 90.476562 238.851562 80.507812 237.445312 77.347656 230.675781 L 82.328125 221.671875 C 82.328125 221.671875 85.535156 224.273438 89.453125 226.6875 Z M 134.339844 242.832031 L 130.289062 233.351562 C 130.289062 233.351562 133.96875 232.503906 138.546875 231.078125 C 143.792969 229.445312 146.164062 228.417969 146.164062 228.417969 L 148.757812 237.445312 C 148.757812 237.445312 140.773438 242.808594 134.339844 242.832031 Z M 90.507812 137.816406 C 85.765625 146.886719 75.214844 168.433594 75.214844 168.433594 C 75.214844 168.433594 69.902344 176.085938 69.753906 179.296875 C 69.632812 182.015625 70.894531 183.5625 71.277344 184.386719 C 71.664062 185.207031 79.433594 193.207031 82.992188 190.375 C 83.761719 189.765625 85.195312 187.476562 85.304688 187.152344 C 86.257812 187.433594 88.308594 187.628906 89.644531 185.265625 C 91.566406 181.859375 87.65625 175.664062 88.53125 173.246094 C 89.410156 170.832031 101.535156 151.136719 105.449219 143.707031 C 98.484375 142.007812 90.507812 137.816406 90.507812 137.816406 Z M 90.507812 137.816406 " fill-opacity="1" fill-rule="nonzero"/><path fill="#eae8e5" d="M 113.210938 145.363281 C 97.96875 142.851562 88.265625 136.691406 86.878906 135.558594 C 99.984375 102.632812 110.210938 105.210938 114.09375 106.527344 C 125.9375 110.550781 114.21875 143.980469 113.210938 145.363281 Z M 151.519531 247.050781 C 151.511719 253.96875 139.550781 255.265625 139.550781 255.265625 C 139.550781 255.265625 137.097656 250.015625 134.257812 242.847656 C 139.828125 242.015625 148.757812 237.445312 148.757812 237.445312 C 148.757812 237.445312 149.976562 241.441406 151.519531 247.050781 Z M 84.527344 246.890625 C 79.019531 251.097656 70.703125 242.429688 70.703125 242.429688 C 70.703125 242.429688 73.378906 237.289062 77.347656 230.675781 C 81.402344 234.574219 90.476562 238.851562 90.476562 238.851562 C 90.476562 238.851562 88.039062 242.25 84.527344 246.890625 Z M 149.050781 138.691406 C 142.695312 119.222656 135.890625 108.351562 130.21875 106.277344 C 129.253906 106.863281 123.757812 106.871094 121.539062 106.421875 C 123.679688 108.921875 126.691406 114.195312 127.449219 122.449219 C 130.261719 122.320312 135.25 121.472656 135.253906 121.472656 C 135.253906 121.472656 136.042969 130.820312 137.105469 143.628906 C 144.394531 141.578125 148.085938 139.480469 149.050781 138.691406 Z M 149.050781 138.691406 " fill-opacity="1" fill-rule="nonzero"/><g mask="url(#aff3e9f464)"><g transform="matrix(1, 0, 0, 1, 74, 106)"><g clip-path="url(#bc40314cc1)"><g clip-path="url(#f57f1aee9c)"><path fill="#000000" d="M 40.976562 115.890625 C 40.773438 116.21875 40.574219 116.546875 40.371094 116.871094 C 40.160156 116.851562 39.960938 116.734375 39.859375 116.53125 C 39.382812 115.613281 28.152344 93.882812 25.503906 86.714844 C 23 79.929688 21.886719 74.917969 21.394531 71.675781 C 21.710938 70.4375 22.019531 69.199219 22.3125 67.96875 C 22.394531 69.925781 22.960938 76.113281 26.714844 86.269531 C 29.28125 93.226562 40.425781 114.824219 40.976562 115.890625 Z M 63.355469 40.894531 C 63.316406 40.382812 63.269531 39.847656 63.226562 39.34375 C 60.257812 37.761719 56.484375 35.699219 55.722656 35.144531 C 55.554688 33.957031 55.003906 27.253906 54.644531 22.667969 L 61.828125 22.300781 C 61.789062 21.855469 61.753906 21.425781 61.71875 21.019531 L 53.917969 21.421875 C 53.746094 21.429688 53.582031 21.507812 53.46875 21.636719 C 53.355469 21.769531 53.296875 21.9375 53.3125 22.109375 C 53.984375 30.792969 54.394531 35.367188 54.53125 35.707031 C 54.632812 35.960938 54.765625 36.351562 63.355469 40.894531 Z M 54.945312 0.632812 C 55.550781 0.523438 56.015625 0.402344 56.21875 0.277344 C 56.230469 0.28125 56.238281 0.285156 56.246094 0.285156 C 59.289062 5.359375 60.855469 13.328125 61.238281 15.472656 C 61.191406 15.480469 60.703125 15.5625 59.964844 15.679688 C 59.574219 13.535156 57.957031 5.410156 54.945312 0.632812 Z M 1.027344 128.621094 C 3.328125 130.648438 8.269531 134.621094 13.695312 136.65625 C 13.980469 136.273438 14.246094 135.910156 14.492188 135.578125 C 9.027344 133.617188 3.878906 129.421875 1.6875 127.480469 C 1.460938 127.871094 1.242188 128.25 1.027344 128.621094 Z M 75.878906 135.238281 C 75.746094 134.78125 75.621094 134.355469 75.507812 133.96875 C 71.007812 136.539062 64.445312 138.601562 61.328125 139.503906 C 61.496094 139.914062 61.660156 140.3125 61.820312 140.703125 C 64.976562 139.792969 71.296875 137.792969 75.878906 135.238281 Z M 75.878906 135.238281 " fill-opacity="1" fill-rule="nonzero"/></g></g></g></g><path fill="#c95c3f" d="M 156.917969 190.363281 C 156.214844 189.058594 154.175781 185.199219 153.359375 182.757812 C 152.691406 182.839844 152.496094 183.136719 152.421875 183.242188 C 151.835938 184.136719 152.53125 186.128906 152.820312 186.757812 C 152.96875 187.078125 152.828125 187.460938 152.503906 187.609375 C 152.183594 187.757812 151.800781 187.617188 151.648438 187.296875 C 151.53125 187.035156 150.667969 185.09375 150.972656 183.5 C 151.035156 183.15625 151.15625 182.832031 151.34375 182.539062 C 151.652344 182.070312 152.277344 181.53125 153.492188 181.464844 C 153.796875 181.082031 154.402344 180.453125 155.210938 180.296875 C 155.566406 180.230469 155.921875 180.273438 156.261719 180.40625 C 156.625 179.902344 157.167969 179.4375 157.777344 179.023438 C 155.667969 178.40625 154.984375 176.867188 154.949219 176.785156 C 154.898438 176.664062 154.886719 176.539062 154.910156 176.417969 C 154.945312 176.214844 155.085938 176.03125 155.289062 175.945312 C 155.617188 175.808594 155.992188 175.957031 156.132812 176.28125 C 156.167969 176.363281 156.9375 177.964844 159.597656 177.992188 C 160.511719 177.550781 161.324219 177.246094 161.652344 177.128906 C 161.984375 177.011719 162.355469 177.183594 162.472656 177.519531 C 162.59375 177.851562 162.417969 178.21875 162.085938 178.339844 C 160.140625 179.03125 157.308594 180.492188 157.101562 181.5625 C 157.089844 181.652344 157.039062 181.875 157.417969 182.214844 C 159.457031 184.027344 165.34375 181.863281 167.4375 180.875 C 167.46875 180.859375 167.503906 180.859375 167.535156 180.851562 C 167.707031 181.117188 167.625 181.097656 167.359375 181.292969 C 167.496094 181.492188 167.636719 181.792969 167.773438 182.136719 C 167.199219 182.394531 165.851562 182.976562 164.238281 183.457031 L 166.285156 187.878906 C 165.933594 188.097656 165.550781 188.296875 165.144531 188.484375 L 162.976562 183.796875 C 161.898438 184.046875 160.769531 184.214844 159.71875 184.195312 L 162.207031 189.515625 C 161.773438 189.628906 161.347656 189.726562 160.925781 189.816406 L 158.210938 184.007812 C 157.582031 183.847656 157.019531 183.582031 156.5625 183.175781 C 155.9375 182.617188 155.789062 182.046875 155.804688 181.601562 C 155.65625 181.539062 155.539062 181.542969 155.453125 181.558594 C 155.101562 181.625 154.753906 181.964844 154.539062 182.21875 C 155.417969 184.96875 158.261719 190.140625 158.292969 190.195312 C 158.300781 190.214844 158.300781 190.234375 158.308594 190.253906 C 157.730469 190.320312 157.253906 190.355469 156.917969 190.363281 Z M 88.160156 183.585938 C 87.851562 183.40625 87.457031 183.507812 87.277344 183.8125 L 85.367188 187.039062 C 85.34375 187.074219 85.339844 187.117188 85.324219 187.15625 C 85.671875 187.257812 86.160156 187.34375 86.703125 187.304688 L 88.386719 184.464844 C 88.566406 184.160156 88.464844 183.765625 88.160156 183.585938 Z M 88.160156 183.585938 " fill-opacity="1" fill-rule="nonzero"/><g clip-path="url(#922b1f4430)"><path fill="#000000" d="M 151.238281 246.910156 C 148.179688 245.464844 147.839844 248.972656 147.867188 250.847656 C 147.875 251.5 147.460938 252.082031 146.839844 252.28125 L 140.699219 254.226562 C 139.925781 254.472656 139.496094 255.296875 139.738281 256.070312 C 140.132812 257.328125 140.734375 259.140625 141.261719 260.253906 C 141.554688 260.867188 142.226562 261.214844 142.894531 261.074219 C 147.679688 260.050781 159.734375 254.964844 163.726562 252.527344 C 164.621094 251.980469 164.679688 250.714844 163.84375 250.082031 C 160.605469 247.644531 153.390625 247.144531 151.824219 247.066406 C 151.621094 247.054688 151.425781 246.996094 151.238281 246.910156 Z M 84.46875 246.582031 C 83.75 243.28125 80.753906 245.148438 79.28125 246.3125 C 78.765625 246.71875 78.050781 246.746094 77.515625 246.375 L 72.226562 242.703125 C 71.558594 242.242188 70.644531 242.402344 70.175781 243.066406 C 69.417969 244.144531 68.34375 245.726562 67.78125 246.820312 C 67.46875 247.425781 67.601562 248.167969 68.125 248.609375 C 71.851562 251.773438 83.242188 258.207031 87.613281 259.878906 C 88.589844 260.257812 89.632812 259.53125 89.625 258.484375 C 89.589844 254.4375 85.589844 248.429688 84.699219 247.140625 C 84.585938 246.972656 84.511719 246.777344 84.46875 246.582031 Z M 84.46875 246.582031 " fill-opacity="1" fill-rule="nonzero"/></g></svg>