<svg xmlns="http://www.w3.org/2000/svg" xmlns:xlink="http://www.w3.org/1999/xlink" width="350" zoomAndPan="magnify" viewBox="0 0 262.5 262.500001" height="350" preserveAspectRatio="xMidYMid meet" version="1.0"><defs><filter x="0%" y="0%" width="100%" height="100%" id="9836252af3"><feColorMatrix values="0 0 0 0 1 0 0 0 0 1 0 0 0 0 1 0 0 0 1 0" color-interpolation-filters="sRGB"/></filter><clipPath id="08c7323ffb"><path d="M 52 104.074219 L 164 104.074219 L 164 250 L 52 250 Z M 52 104.074219 " clip-rule="nonzero"/></clipPath><clipPath id="b1b132636a"><path d="M 45.804688 214 L 178 214 L 178 255.574219 L 45.804688 255.574219 Z M 45.804688 214 " clip-rule="nonzero"/></clipPath><clipPath id="1a6d61484c"><path d="M 73 104.074219 L 161 104.074219 L 161 233 L 73 233 Z M 73 104.074219 " clip-rule="nonzero"/></clipPath><mask id="508c236173"><g filter="url(#9836252af3)"><rect x="-26.25" width="315" fill="#000000" y="-26.25" height="315.000001" fill-opacity="0.2"/></g></mask><clipPath id="e7878d70ab"><path d="M 0.0429688 0.480469 L 99.929688 0.480469 L 99.929688 114.742188 L 0.0429688 114.742188 Z M 0.0429688 0.480469 " clip-rule="nonzero"/></clipPath><clipPath id="1399d6260f"><rect x="0" width="100" y="0" height="115"/></clipPath></defs><path fill="#ff9f6c" d="M 69.945312 153.75 C 66.539062 157.828125 65.605469 173.214844 65.605469 175.933594 C 65.605469 178.648438 71.308594 182.960938 70.628906 187.039062 C 70.15625 189.867188 68.464844 190.359375 67.421875 190.507812 C 67.136719 190.546875 66.980469 190.558594 66.621094 190.585938 C 66.679688 191.847656 66.527344 193.5625 65.792969 194.296875 C 64.714844 195.371094 61.082031 195.191406 59.71875 193.832031 C 58.355469 192.472656 58.355469 192.472656 56.992188 192.472656 C 55.628906 192.472656 53.582031 191.113281 52.902344 190.433594 C 52.21875 189.753906 50.855469 191.113281 48.808594 188.398438 C 46.765625 185.679688 50.171875 175.488281 50.171875 175.488281 C 50.171875 175.488281 50.171875 159.863281 52.902344 151.035156 C 55.628906 142.203125 66.988281 132.136719 66.988281 132.136719 L 76.875 146.320312 C 76.875 146.320312 73.355469 149.675781 69.945312 153.75 Z M 153.285156 136.765625 L 149.039062 145.597656 C 149.039062 145.597656 159.515625 156.421875 167.863281 152.394531 C 176.210938 148.371094 191.46875 136.296875 191.46875 136.296875 C 191.46875 136.296875 200.179688 131.652344 201.871094 128.703125 C 203.304688 126.203125 202.867188 124.140625 202.902344 123.179688 C 202.9375 122.222656 199.492188 110.953125 194.765625 111.902344 C 193.746094 112.109375 191.941406 113.046875 191.308594 113.671875 C 191.046875 113.425781 191.058594 113.335938 190.800781 113.585938 C 190.039062 112.867188 188.425781 111.925781 186.023438 113.507812 C 182.566406 115.789062 183.25 123.503906 181.25 125.355469 C 179.253906 127.203125 169.324219 135.671875 164.007812 135.960938 C 162.972656 135.78125 160.898438 133.265625 159.304688 132.46875 C 157.878906 131.757812 154.011719 135.347656 153.285156 136.765625 Z M 156.128906 220.652344 L 159.804688 229.867188 C 159.804688 229.867188 156.550781 237.445312 145.175781 237.035156 L 139.917969 227.480469 M 79.972656 224.121094 L 70.171875 225.84375 C 70.171875 225.84375 70.175781 225.84375 70.175781 225.84375 C 70.175781 225.84375 61.433594 219.566406 66.078125 210.121094 L 76.535156 206.917969 " fill-opacity="1" fill-rule="nonzero"/><g clip-path="url(#08c7323ffb)"><path fill="#eae8e5" d="M 132.332031 105.859375 C 139.152344 106.539062 156.878906 125.558594 163.695312 131.671875 C 155.140625 145.316406 142.734375 151.03125 142.734375 151.03125 C 142.734375 151.03125 130.28125 133.058594 130.28125 138.492188 C 101.644531 143.925781 87.386719 170.597656 84.660156 169.238281 C 84.660156 165.164062 84.835938 144.25 84.835938 144.25 C 84.835938 144.25 82.015625 146.089844 79.152344 147.976562 C 68.242188 141.183594 63.808594 123.179688 63.808594 123.179688 C 63.808594 123.179688 66.539062 121.820312 79.152344 114.6875 C 96.660156 104.789062 105.058594 104.5 105.058594 104.5 C 117.332031 112.652344 128.242188 108.574219 132.332031 105.859375 Z M 163.71875 239.6875 C 164.433594 246.96875 151.96875 249.578125 151.96875 249.578125 C 151.96875 249.578125 148.832031 244.308594 145.089844 237.058594 C 150.875 235.605469 159.804688 229.867188 159.804688 229.867188 C 159.804688 229.867188 161.503906 233.945312 163.71875 239.6875 Z M 59.730469 227.683594 C 52.425781 226.90625 52.382812 214.21875 52.382812 214.21875 C 52.382812 214.21875 58.191406 212.222656 66.074219 210.035156 C 66.335938 215.96875 70.175781 225.84375 70.175781 225.84375 C 70.175781 225.84375 65.820312 226.679688 59.730469 227.683594 Z M 59.730469 227.683594 " fill-opacity="1" fill-rule="nonzero"/></g><path fill="#c95c3f" d="M 202.832031 122.703125 C 201.605469 123.691406 197.988281 126.566406 195.601562 127.890625 C 195.816406 128.570312 196.164062 128.714844 196.292969 128.769531 C 197.339844 129.199219 199.28125 128.085938 199.878906 127.664062 C 200.183594 127.445312 200.609375 127.515625 200.828125 127.824219 C 201.046875 128.128906 200.976562 128.550781 200.671875 128.769531 C 200.425781 128.945312 198.570312 130.222656 196.84375 130.222656 C 196.476562 130.222656 196.113281 130.164062 195.773438 130.023438 C 195.222656 129.796875 194.535156 129.253906 194.226562 128.007812 C 193.769531 127.769531 192.992188 127.265625 192.671875 126.460938 C 192.53125 126.101562 192.503906 125.726562 192.578125 125.347656 C 191.980469 125.074219 191.386719 124.601562 190.835938 124.050781 C 190.605469 126.355469 189.140625 127.371094 189.0625 127.421875 C 188.945312 127.5 188.8125 127.539062 188.683594 127.539062 C 188.464844 127.539062 188.246094 127.429688 188.117188 127.234375 C 187.90625 126.925781 187.992188 126.503906 188.300781 126.296875 C 188.378906 126.242188 189.898438 125.128906 189.398438 122.367188 C 188.757812 121.503906 188.28125 120.726562 188.09375 120.410156 C 187.90625 120.085938 188.011719 119.667969 188.339844 119.480469 C 188.660156 119.289062 189.078125 119.398438 189.269531 119.722656 C 190.378906 121.597656 192.457031 124.246094 193.617188 124.25 C 193.710938 124.246094 193.957031 124.253906 194.234375 123.792969 C 195.71875 121.324219 192.300781 115.648438 190.859375 113.671875 C 190.835938 113.640625 190.832031 113.605469 190.816406 113.574219 C 191.054688 113.34375 191.050781 113.433594 191.308594 113.671875 C 191.492188 113.492188 191.777344 113.285156 192.109375 113.078125 C 192.492188 113.617188 193.363281 114.902344 194.183594 116.480469 L 198.386719 113.488281 C 198.6875 113.808594 198.972656 114.167969 199.246094 114.546875 L 194.785156 117.722656 C 195.261719 118.789062 195.660156 119.925781 195.84375 121.019531 L 200.898438 117.390625 C 201.105469 117.816406 201.292969 118.238281 201.46875 118.65625 L 195.945312 122.621094 C 195.90625 123.300781 195.738281 123.933594 195.402344 124.492188 C 194.945312 125.25 194.382812 125.515625 193.910156 125.585938 C 193.878906 125.753906 193.90625 125.875 193.9375 125.957031 C 194.078125 126.308594 194.496094 126.605469 194.804688 126.773438 C 197.5 125.324219 202.332031 121.355469 202.382812 121.3125 C 202.402344 121.300781 202.421875 121.296875 202.441406 121.285156 C 202.625 121.871094 202.757812 122.359375 202.832031 122.703125 Z M 67.207031 184.445312 C 66.832031 184.445312 66.527344 184.75 66.527344 185.125 C 66.527344 186.1875 66.59375 189.242188 66.625 190.585938 C 66.980469 190.558594 67.140625 190.546875 67.421875 190.507812 C 67.59375 190.480469 67.785156 190.445312 67.984375 190.394531 C 67.953125 188.984375 67.890625 186.121094 67.890625 185.125 C 67.890625 184.75 67.585938 184.445312 67.207031 184.445312 Z M 67.207031 184.445312 " fill-opacity="1" fill-rule="nonzero"/><g clip-path="url(#b1b132636a)"><path fill="#000000" d="M 163.410156 239.566406 C 160.03125 238.367188 160.042969 242.09375 160.265625 244.0625 C 160.34375 244.75 159.96875 245.40625 159.332031 245.679688 L 153.066406 248.367188 C 152.277344 248.707031 151.910156 249.617188 152.25 250.40625 C 152.792969 251.6875 153.621094 253.53125 154.292969 254.648438 C 154.664062 255.265625 155.40625 255.5625 156.097656 255.339844 C 161.03125 253.769531 173.199219 247.160156 177.152344 244.179688 C 178.039062 243.511719 177.96875 242.171875 177.019531 241.597656 C 173.355469 239.367188 165.703125 239.59375 164.042969 239.671875 C 163.828125 239.679688 163.613281 239.640625 163.410156 239.566406 Z M 59.910156 227.402344 C 61.773438 224.351562 58.109375 223.609375 56.125 223.429688 C 55.433594 223.367188 54.863281 222.867188 54.726562 222.191406 L 53.347656 215.535156 C 53.175781 214.695312 52.355469 214.15625 51.511719 214.324219 C 50.140625 214.597656 48.160156 215.03125 46.925781 215.460938 C 46.246094 215.703125 45.804688 216.367188 45.882812 217.082031 C 46.429688 222.214844 50.46875 235.425781 52.601562 239.882812 C 53.078125 240.882812 54.410156 241.085938 55.167969 240.277344 C 58.097656 237.148438 59.421875 229.636719 59.679688 228 C 59.714844 227.789062 59.800781 227.585938 59.910156 227.402344 Z M 59.910156 227.402344 " fill-opacity="1" fill-rule="nonzero"/></g><g clip-path="url(#1a6d61484c)"><path fill="#9f2a22" d="M 107.953125 104.113281 C 107.953125 104.113281 106.980469 123.515625 108.671875 125.464844 C 110.359375 127.414062 128.59375 126.664062 129.75 125.597656 C 130.90625 124.535156 131.066406 105.664062 130.890625 104.6875 C 131.925781 104.421875 136.507812 106.148438 137.886719 107.433594 C 138.019531 111.15625 141.796875 142.257812 139.796875 167.113281 C 139 177.007812 136.597656 183.238281 136.597656 183.238281 C 136.597656 183.238281 150.378906 196.664062 151.804688 199.144531 C 153.226562 201.625 160.429688 222.582031 160.429688 222.582031 C 160.429688 222.582031 147.269531 230.023438 136.417969 232.152344 C 134.640625 228.605469 126.992188 217.621094 126.992188 217.621094 L 115.609375 211.0625 C 115.609375 211.0625 107.960938 222.757812 102.625 225.417969 C 97.289062 228.074219 81.011719 231.972656 81.011719 231.972656 C 81.011719 231.972656 72.832031 212.125 73.1875 206.277344 C 81.367188 201.316406 83.238281 200.785156 84.304688 199.367188 C 85.371094 197.949219 90.351562 190.683594 90.351562 190.683594 C 90.351562 190.683594 80.570312 182.53125 82.703125 167.644531 C 84.835938 152.757812 84.835938 144.25 84.835938 144.25 C 84.835938 144.25 94.441406 145.667969 96.933594 139.113281 C 99.421875 132.554688 99.734375 108.410156 99.378906 105.574219 C 103.070312 104.199219 107.953125 104.113281 107.953125 104.113281 Z M 107.953125 104.113281 C 107.953125 104.113281 106.980469 123.515625 108.671875 125.464844 C 110.359375 127.414062 128.59375 126.664062 129.75 125.597656 C 130.90625 124.535156 131.066406 105.664062 130.890625 104.6875 C 131.925781 104.421875 136.507812 106.148438 137.886719 107.433594 C 138.019531 111.15625 141.796875 142.257812 139.796875 167.113281 C 139 177.007812 136.597656 183.238281 136.597656 183.238281 C 136.597656 183.238281 150.378906 196.664062 151.804688 199.144531 C 153.226562 201.625 160.429688 222.582031 160.429688 222.582031 C 160.429688 222.582031 147.269531 230.023438 136.417969 232.152344 C 134.640625 228.605469 126.992188 217.621094 126.992188 217.621094 L 115.609375 211.0625 C 115.609375 211.0625 107.960938 222.757812 102.625 225.417969 C 97.289062 228.074219 81.011719 231.972656 81.011719 231.972656 C 81.011719 231.972656 72.832031 212.125 73.1875 206.277344 C 81.367188 201.316406 83.238281 200.785156 84.304688 199.367188 C 85.371094 197.949219 90.351562 190.683594 90.351562 190.683594 C 90.351562 190.683594 80.570312 182.53125 82.703125 167.644531 C 84.835938 152.757812 84.835938 144.25 84.835938 144.25 C 84.835938 144.25 94.441406 145.667969 96.933594 139.113281 C 99.421875 132.554688 99.734375 108.410156 99.378906 105.574219 C 103.070312 104.199219 107.953125 104.113281 107.953125 104.113281 Z M 107.953125 104.113281 " fill-opacity="1" fill-rule="nonzero"/></g><g mask="url(#508c236173)"><g transform="matrix(1, 0, 0, 1, 62, 126)"><g clip-path="url(#1399d6260f)"><g clip-path="url(#e7878d70ab)"><path fill="#000000" d="M 69.875 7.339844 C 69.75 7.210938 69.574219 7.140625 69.394531 7.136719 C 69.195312 7.136719 49.347656 7.003906 46.445312 7.003906 C 46.074219 7.003906 45.769531 7.300781 45.761719 7.671875 C 45.753906 8.242188 45.503906 21.660156 46.261719 22.921875 C 46.691406 23.636719 56.679688 30.027344 57.828125 30.027344 C 58.863281 30.027344 68.425781 24.398438 69.183594 23.035156 C 69.882812 21.785156 70.039062 11.074219 70.070312 7.824219 C 70.074219 7.644531 70.003906 7.46875 69.875 7.339844 Z M 67.996094 22.371094 C 67.375 23.347656 59.261719 28.21875 57.835938 28.65625 C 56.589844 28.210938 48.371094 23.125 47.433594 22.210938 C 47.179688 21.328125 46.992188 15.59375 47.113281 8.367188 C 51.078125 8.378906 65.390625 8.46875 68.699219 8.492188 C 68.625 14.832031 68.34375 21.601562 67.996094 22.371094 Z M 75.035156 55.714844 C 73.476562 54.101562 69.550781 50.046875 64.609375 44.964844 C 64.347656 44.695312 63.917969 44.6875 63.644531 44.949219 C 63.375 45.210938 63.367188 45.640625 63.628906 45.910156 C 69.328125 51.769531 73.679688 56.269531 74.601562 57.222656 C 74.617188 57.175781 74.78125 56.652344 75.035156 55.714844 Z M 53.609375 85.0625 L 53.699219 85.113281 C 53.691406 85.109375 53.683594 85.097656 53.675781 85.089844 C 40.277344 76.9375 29.335938 65.804688 28.308594 64.746094 C 28.207031 64.894531 27.921875 65.308594 27.523438 65.890625 C 29.367188 67.765625 39.972656 78.320312 52.851562 86.183594 C 53.332031 85.484375 53.609375 85.0625 53.609375 85.0625 Z M 0.433594 85.074219 C 0.902344 88.730469 2.039062 95.53125 4.375 100.542969 C 4.882812 100.449219 5.347656 100.367188 5.761719 100.292969 C 3.386719 95.382812 2.226562 88.292969 1.761719 84.6875 C 1.308594 84.816406 0.867188 84.945312 0.433594 85.074219 Z M 84.960938 114.617188 C 91.066406 112.214844 96.773438 108.757812 99.175781 107.226562 C 98.984375 106.753906 98.8125 106.328125 98.65625 105.945312 C 96.429688 107.375 90.570312 110.96875 84.316406 113.40625 C 84.535156 113.820312 84.75 114.222656 84.960938 114.617188 Z M 25.207031 18.378906 L 32.273438 13.90625 C 32.59375 13.707031 32.6875 13.285156 32.484375 12.96875 C 32.28125 12.652344 31.863281 12.558594 31.542969 12.761719 L 22.859375 18.253906 C 22.992188 18.273438 23.914062 18.390625 25.207031 18.378906 Z M 77.792969 5.839844 L 80.882812 1.640625 C 81.105469 1.335938 81.039062 0.914062 80.734375 0.691406 C 80.429688 0.46875 80.003906 0.535156 79.78125 0.835938 L 77.664062 3.714844 C 77.707031 4.414062 77.75 5.121094 77.792969 5.839844 Z M 77.792969 5.839844 " fill-opacity="1" fill-rule="nonzero"/></g></g></g></g></svg>