<svg xmlns="http://www.w3.org/2000/svg" xmlns:xlink="http://www.w3.org/1999/xlink" width="350" zoomAndPan="magnify" viewBox="0 0 262.5 262.500001" height="350" preserveAspectRatio="xMidYMid meet" version="1.0"><defs><filter x="0%" y="0%" width="100%" height="100%" id="3f82983e56"><feColorMatrix values="0 0 0 0 1 0 0 0 0 1 0 0 0 0 1 0 0 0 1 0" color-interpolation-filters="sRGB"/></filter><mask id="3e3d93be31"><g filter="url(#3f82983e56)"><rect x="-26.25" width="315" fill="#000000" y="-26.25" height="315.000001" fill-opacity="0.2"/></g></mask><clipPath id="4c31f3a8a3"><path d="M 1 0.0546875 L 46 0.0546875 L 46 91 L 1 91 Z M 1 0.0546875 " clip-rule="nonzero"/></clipPath><clipPath id="736c74730e"><rect x="0" width="47" y="0" height="92"/></clipPath><clipPath id="bd39e60957"><path d="M 65.585938 106.066406 L 163 106.066406 L 163 258.316406 L 65.585938 258.316406 Z M 65.585938 106.066406 " clip-rule="nonzero"/></clipPath></defs><path fill="#7d2c58" d="M 138.269531 144.015625 L 140.691406 172.921875 C 140.691406 172.921875 126.710938 178.246094 94.855469 171.742188 C 95.75 164.390625 98.757812 151.550781 99.648438 144.726562 C 94.78125 143.792969 91.585938 141.558594 90.742188 139.65625 C 88.863281 138.671875 87.046875 137.496094 86.597656 137.128906 C 96.03125 113.375 103.917969 108.675781 108.890625 108.351562 C 110.082031 108.117188 112.496094 107.832031 116.066406 108.324219 C 120.324219 108.914062 121.148438 109.027344 121.308594 109.050781 C 123.769531 109.277344 127.738281 109.214844 128.535156 108.730469 C 134.019531 110.742188 140.601562 121.285156 146.75 140.167969 C 145.964844 140.808594 143.296875 142.355469 138.269531 144.015625 Z M 138.269531 144.015625 L 140.691406 172.921875 C 140.691406 172.921875 139.578125 173.3125 137.671875 173.722656 C 136.847656 177.171875 104.542969 181.378906 96.386719 172.042969 C 95.933594 171.957031 95.316406 171.839844 94.855469 171.742188 C 95.75 164.390625 98.757812 151.550781 99.648438 144.726562 C 94.78125 143.792969 91.585938 141.558594 90.742188 139.65625 C 88.863281 138.671875 87.046875 137.496094 86.597656 137.128906 C 96.03125 113.375 103.917969 108.675781 108.890625 108.351562 C 110.082031 108.117188 112.496094 107.832031 116.066406 108.324219 C 120.324219 108.914062 121.148438 109.027344 121.308594 109.050781 C 123.769531 109.277344 127.738281 109.214844 128.535156 108.730469 C 134.019531 110.742188 140.601562 121.285156 146.75 140.167969 C 145.964844 140.808594 143.296875 142.355469 138.269531 144.015625 Z M 138.269531 144.015625 " fill-opacity="1" fill-rule="nonzero"/><path fill="#eae8e5" d="M 85.753906 204.449219 C 90.078125 190.296875 96.296875 173.261719 96.386719 172.042969 C 118.867188 176.441406 132.152344 174.886719 137.671875 173.722656 C 137.761719 174.8125 142.453125 197.273438 144.101562 206.5625 C 143.601562 206.792969 142.34375 207.242188 140.953125 207.671875 C 139.285156 209.898438 127.542969 214.691406 122.898438 211.253906 C 121.382812 211.40625 119.257812 211.59375 117.652344 211.679688 C 115.457031 209 113.871094 206.480469 113.871094 206.480469 L 113.140625 211.355469 C 113.140625 211.355469 110.925781 211.308594 107.9375 211.019531 C 105.800781 212.011719 91.011719 210.140625 88.746094 206.136719 C 87.8125 205.664062 86.613281 205.007812 85.753906 204.449219 Z M 148.046875 233.171875 C 148.046875 233.171875 139.285156 232.566406 133.53125 239.238281 C 137.148438 245.929688 140.730469 252.714844 140.730469 252.714844 C 140.730469 252.714844 151.53125 251.015625 151.539062 244.304688 C 150.042969 238.867188 148.046875 233.171875 148.046875 233.171875 Z M 88.410156 238.84375 C 88.410156 238.84375 83.878906 232.203125 74.714844 231.105469 C 71.648438 238.0625 68.484375 245.054688 68.484375 245.054688 C 68.484375 245.054688 76.449219 252.539062 81.757812 248.433594 C 85.136719 243.914062 88.410156 238.84375 88.410156 238.84375 Z M 88.410156 238.84375 " fill-opacity="1" fill-rule="nonzero"/><g mask="url(#3e3d93be31)"><g transform="matrix(1, 0, 0, 1, 94, 119)"><g clip-path="url(#736c74730e)"><g clip-path="url(#4c31f3a8a3)"><path fill="#000000" d="M 19.863281 87.542969 L 19.585938 89.390625 C 19.507812 89.332031 19.371094 89.113281 19.300781 88.988281 C 18.746094 88.039062 17.625 86.480469 16.203125 84.507812 C 11.410156 77.859375 2.941406 66.09375 1.371094 56.402344 C 1.910156 54.777344 2.265625 53.648438 2.363281 53.199219 C 2.207031 62.949219 11.960938 76.488281 17.214844 83.78125 C 18.308594 85.300781 19.226562 86.578125 19.863281 87.542969 Z M 37.773438 90.914062 C 38.199219 90.832031 38.621094 90.75 39.03125 90.664062 C 34.933594 81.875 31.789062 74.039062 29.527344 67.929688 C 31.035156 62.25 31.664062 57.667969 31.871094 55.945312 C 31.460938 55.953125 31.039062 55.960938 30.613281 55.964844 C 30.417969 57.566406 29.898438 61.234375 28.769531 65.855469 C 27.0625 61.125 25.957031 57.652344 25.417969 55.886719 C 24.984375 55.867188 24.542969 55.847656 24.09375 55.824219 C 25.179688 59.417969 29.554688 73.234375 37.773438 90.914062 Z M 41.960938 3.011719 C 41.621094 3.0625 41.390625 3.382812 41.441406 3.722656 C 42.925781 13.144531 44.289062 25.359375 44.304688 25.480469 C 44.304688 25.488281 44.308594 25.492188 44.308594 25.496094 L 44.269531 25.015625 C 44.683594 24.878906 45.074219 24.742188 45.457031 24.605469 C 45.140625 21.828125 43.953125 11.652344 42.671875 3.527344 C 42.621094 3.1875 42.300781 2.957031 41.960938 3.011719 Z M 24.261719 0.402344 C 23.917969 0.402344 23.636719 0.679688 23.636719 1.027344 C 23.636719 10.820312 16.929688 26.011719 15.582031 28.453125 C 14.707031 28.230469 12.453125 27.425781 10.460938 26.65625 C 10.410156 26.636719 10.359375 26.636719 10.308594 26.628906 C 10.46875 26.683594 10.632812 26.734375 10.789062 26.785156 C 10.609375 27.125 10.410156 27.5 10.199219 27.890625 C 11.800781 28.507812 15.152344 29.761719 15.890625 29.761719 C 16.082031 29.761719 16.261719 29.675781 16.378906 29.523438 C 17.4375 28.175781 24.882812 11.542969 24.882812 1.027344 C 24.882812 0.679688 24.605469 0.402344 24.261719 0.402344 Z M 24.261719 0.402344 " fill-opacity="1" fill-rule="nonzero"/></g></g></g></g><path fill="#ff9f6c" d="M 148.046875 233.171875 C 148.046875 233.171875 138.929688 238.402344 133.53125 239.238281 C 133.53125 239.238281 132.480469 237.398438 128.335938 230.855469 C 120.191406 218 122.421875 212.203125 122.898438 211.253906 C 124.101562 211.132812 127.25 210.792969 132.523438 209.695312 C 137.402344 208.679688 140.953125 207.671875 140.953125 207.671875 Z M 88.746094 206.136719 C 86.40625 207.371094 82.054688 211.035156 78.152344 221.859375 C 75.527344 229.144531 74.714844 231.105469 74.714844 231.105469 C 78.683594 234.851562 88.410156 238.84375 88.410156 238.84375 L 104.203125 217.609375 C 105.867188 215.367188 107.910156 213.191406 107.9375 211.019531 C 102.898438 210.515625 95.113281 209.261719 88.746094 206.136719 Z M 90.742188 139.65625 C 86.15625 148.453125 75.945312 169.347656 75.945312 169.347656 C 75.945312 169.347656 70.804688 176.769531 70.664062 179.882812 C 70.542969 182.519531 71.765625 184.019531 72.136719 184.816406 C 72.511719 185.617188 80.027344 193.375 83.472656 190.628906 C 84.21875 190.035156 85.605469 187.816406 85.710938 187.5 C 86.632812 187.773438 88.617188 187.964844 89.910156 185.671875 C 91.769531 182.371094 87.984375 176.359375 88.832031 174.015625 C 89.679688 171.675781 101.003906 152.988281 104.789062 145.785156 C 98.878906 143.953125 90.742188 139.65625 90.742188 139.65625 Z M 138.269531 144.015625 L 140.542969 171.144531 C 142.980469 176.300781 143.488281 177 143.488281 177 C 143.488281 177 146.1875 185.613281 148.558594 187.636719 C 150.566406 189.351562 152.5 189.308594 153.359375 189.503906 C 154.21875 189.699219 164.957031 188.535156 164.90625 184.132812 C 164.894531 183.179688 164.355469 181.398438 163.902344 180.726562 C 164.167969 180.53125 164.25 180.558594 164.066406 180.28125 C 164.84375 179.722656 165.964844 178.4375 164.949219 176.007812 C 163.484375 172.511719 156.414062 171.808594 155.089844 169.699219 C 153.761719 167.589844 146.988281 149.644531 143.867188 141.820312 Z M 138.269531 144.015625 " fill-opacity="1" fill-rule="nonzero"/><path fill="#c95c3f" d="M 153.800781 189.523438 C 153.117188 188.253906 151.144531 184.515625 150.355469 182.148438 C 149.707031 182.226562 149.519531 182.511719 149.449219 182.617188 C 148.882812 183.484375 149.554688 185.414062 149.835938 186.023438 C 149.976562 186.335938 149.839844 186.707031 149.527344 186.851562 C 149.21875 186.996094 148.847656 186.859375 148.703125 186.546875 C 148.585938 186.296875 147.75 184.414062 148.046875 182.863281 C 148.109375 182.53125 148.222656 182.214844 148.40625 181.933594 C 148.707031 181.480469 149.308594 180.957031 150.484375 180.894531 C 150.777344 180.523438 151.363281 179.910156 152.148438 179.761719 C 152.492188 179.695312 152.835938 179.738281 153.164062 179.867188 C 153.515625 179.378906 154.039062 178.925781 154.632812 178.523438 C 152.589844 177.925781 151.925781 176.433594 151.894531 176.355469 C 151.84375 176.238281 151.832031 176.113281 151.855469 175.996094 C 151.894531 175.800781 152.023438 175.625 152.222656 175.539062 C 152.539062 175.40625 152.902344 175.550781 153.039062 175.863281 C 153.074219 175.945312 153.820312 177.5 156.390625 177.523438 C 157.277344 177.09375 158.0625 176.800781 158.378906 176.6875 C 158.703125 176.570312 159.058594 176.742188 159.175781 177.066406 C 159.289062 177.386719 159.121094 177.746094 158.796875 177.859375 C 156.917969 178.535156 154.175781 179.949219 153.976562 180.988281 C 153.964844 181.074219 153.914062 181.292969 154.285156 181.621094 C 156.253906 183.375 161.949219 181.277344 163.980469 180.320312 C 164.011719 180.304688 164.042969 180.304688 164.074219 180.296875 C 164.238281 180.554688 164.160156 180.535156 163.902344 180.726562 C 164.035156 180.921875 164.171875 181.210938 164.300781 181.542969 C 163.75 181.796875 162.441406 182.359375 160.882812 182.824219 L 162.863281 187.109375 C 162.523438 187.324219 162.152344 187.519531 161.761719 187.699219 L 159.660156 183.152344 C 158.617188 183.398438 157.523438 183.558594 156.507812 183.539062 L 158.914062 188.699219 C 158.5 188.808594 158.085938 188.90625 157.679688 188.992188 L 155.050781 183.359375 C 154.445312 183.203125 153.898438 182.945312 153.457031 182.550781 C 152.847656 182.011719 152.707031 181.457031 152.722656 181.023438 C 152.578125 180.964844 152.464844 180.96875 152.382812 180.984375 C 152.042969 181.046875 151.703125 181.375 151.5 181.621094 C 152.347656 184.292969 155.101562 189.308594 155.128906 189.359375 C 155.140625 189.378906 155.140625 189.398438 155.148438 189.414062 C 154.585938 189.480469 154.125 189.515625 153.800781 189.523438 Z M 88.449219 184.039062 C 88.15625 183.867188 87.773438 183.964844 87.597656 184.257812 C 87.597656 184.257812 85.722656 187.464844 85.707031 187.503906 C 86.042969 187.601562 86.515625 187.691406 87.042969 187.652344 L 88.671875 184.894531 C 88.84375 184.597656 88.746094 184.214844 88.449219 184.039062 Z M 88.449219 184.039062 " fill-opacity="1" fill-rule="nonzero"/><g clip-path="url(#bd39e60957)"><path fill="#000000" d="M 149.539062 242.789062 C 146.382812 241.90625 146.636719 245.316406 146.96875 247.105469 C 147.082031 247.726562 146.785156 248.351562 146.222656 248.640625 L 140.683594 251.503906 C 139.984375 251.867188 139.710938 252.722656 140.070312 253.421875 C 140.652344 254.558594 141.523438 256.191406 142.210938 257.171875 C 142.589844 257.710938 143.285156 257.933594 143.898438 257.691406 C 148.292969 255.933594 158.957031 249.101562 162.367188 246.117188 C 163.132812 245.449219 162.980469 244.230469 162.078125 243.765625 C 158.59375 241.964844 151.632812 242.664062 150.125 242.839844 C 149.925781 242.863281 149.730469 242.839844 149.539062 242.789062 Z M 122.929688 110.582031 C 119.449219 110.582031 113.917969 110.308594 107.828125 109.285156 C 106.980469 109.140625 106.410156 108.335938 106.550781 107.488281 C 106.695312 106.640625 107.496094 106.070312 108.34375 106.210938 C 120.226562 108.210938 129.832031 106.933594 129.90625 106.925781 C 130.761719 106.800781 131.546875 107.394531 131.667969 108.242188 C 131.792969 109.09375 131.203125 109.882812 130.351562 110.007812 C 130.191406 110.03125 126.546875 110.582031 122.929688 110.582031 Z M 81.730469 245.921875 C 80.488281 242.890625 77.953125 245.179688 76.742188 246.539062 C 76.320312 247.011719 75.644531 247.15625 75.070312 246.890625 L 69.410156 244.273438 C 68.699219 243.945312 67.855469 244.253906 67.519531 244.964844 C 66.976562 246.121094 66.222656 247.8125 65.871094 248.953125 C 65.675781 249.585938 65.925781 250.269531 66.496094 250.605469 C 70.582031 253 82.515625 257.230469 86.964844 258.097656 C 87.960938 258.289062 88.832031 257.421875 88.648438 256.425781 C 87.933594 252.566406 83.109375 247.496094 82.042969 246.417969 C 81.90625 246.277344 81.804688 246.105469 81.730469 245.921875 Z M 81.730469 245.921875 " fill-opacity="1" fill-rule="nonzero"/></g></svg>