<svg xmlns="http://www.w3.org/2000/svg" xmlns:xlink="http://www.w3.org/1999/xlink" width="350" zoomAndPan="magnify" viewBox="0 0 262.5 262.500001" height="350" preserveAspectRatio="xMidYMid meet" version="1.0"><defs><filter x="0%" y="0%" width="100%" height="100%" id="f0eb764dfa"><feColorMatrix values="0 0 0 0 1 0 0 0 0 1 0 0 0 0 1 0 0 0 1 0" color-interpolation-filters="sRGB"/></filter><clipPath id="6afaa34c5e"><path d="M 79 107 L 159 107 L 159 244.863281 L 79 244.863281 Z M 79 107 " clip-rule="nonzero"/></clipPath><mask id="08314f35c1"><g filter="url(#f0eb764dfa)"><rect x="-26.25" width="315" fill="#000000" y="-26.25" height="315.000001" fill-opacity="0.2"/></g></mask><clipPath id="6103cd10fb"><path d="M 1 0.382812 L 62.234375 0.382812 L 62.234375 49 L 1 49 Z M 1 0.382812 " clip-rule="nonzero"/></clipPath><clipPath id="3cf152804c"><rect x="0" width="63" y="0" height="50"/></clipPath></defs><path fill="#f13838" d="M 170.058594 142.316406 C 168.671875 144.40625 165.890625 145.984375 163.183594 147.484375 C 156.953125 151.539062 148.128906 153.726562 148.128906 153.726562 L 147.746094 153.71875 L 147.746094 175.503906 L 119.460938 181.125 L 119.460938 181.4375 L 118.667969 181.28125 L 117.878906 181.4375 L 117.878906 181.125 L 89.59375 175.503906 L 89.59375 153.75 L 89.480469 153.75 C 89.480469 153.75 70.195312 147.964844 67.523438 142.332031 C 86.808594 115.484375 100.085938 110.390625 105.984375 109.570312 C 106.019531 109.585938 106.058594 109.597656 106.121094 109.632812 C 119.84375 116.164062 131.414062 109.632812 131.496094 109.59375 C 137.273438 109.742188 150.792969 115.503906 170.058594 142.316406 Z M 170.058594 142.316406 C 168.671875 144.40625 165.890625 145.984375 163.183594 147.484375 C 161.90625 148.316406 160.183594 148.964844 158.785156 149.636719 C 153.617188 153.097656 148.128906 153.726562 148.128906 153.726562 L 147.746094 175.503906 L 119.460938 181.125 L 119.460938 181.4375 L 118.667969 181.28125 L 117.878906 181.4375 L 117.878906 181.125 L 86.257812 179.625 C 86.257812 179.625 87.601562 153.1875 84.933594 152.242188 C 79.058594 150.15625 69.359375 146.207031 67.523438 142.332031 C 86.808594 115.484375 100.085938 110.390625 105.984375 109.570312 C 106.019531 109.585938 106.058594 109.597656 106.121094 109.632812 C 119.84375 116.164062 131.414062 109.632812 131.496094 109.59375 C 137.273438 109.742188 150.792969 115.503906 170.058594 142.316406 Z M 170.058594 142.316406 " fill-opacity="1" fill-rule="nonzero"/><path fill="#eae8e5" d="M 89.78125 220.253906 C 89.78125 220.253906 100.617188 219.976562 108.808594 219.933594 C 108.832031 229.03125 108.386719 237.011719 108.386719 237.011719 C 108.386719 237.011719 94.792969 239.644531 91.757812 232.066406 C 90.675781 225.632812 89.78125 220.253906 89.78125 220.253906 Z M 128.773438 219.933594 C 128.75 229.03125 129.195312 237.492188 129.195312 237.492188 C 129.195312 237.492188 142.789062 239.644531 145.820312 232.066406 C 146.902344 225.632812 147.800781 220.253906 147.800781 220.253906 C 147.800781 220.253906 136.964844 219.976562 128.773438 219.933594 Z M 145.238281 172.425781 C 145.238281 172.425781 138.035156 167.558594 127.964844 174.714844 C 121.140625 179.589844 115.875 179.421875 109.050781 174.542969 C 100.445312 167.386719 92.34375 172.425781 92.34375 172.425781 L 107.960938 199.730469 L 129.621094 199.730469 Z M 145.238281 172.425781 " fill-opacity="1" fill-rule="nonzero"/><g clip-path="url(#6afaa34c5e)"><path fill="#000000" d="M 92.003906 231.785156 C 94.722656 228.871094 96.625 232.566406 97.414062 234.636719 C 97.691406 235.355469 98.398438 235.8125 99.167969 235.757812 L 106.734375 235.21875 C 107.6875 235.152344 108.515625 235.867188 108.589844 236.820312 C 108.707031 238.371094 108.839844 240.617188 108.746094 242.070312 C 108.695312 242.871094 108.113281 243.542969 107.320312 243.679688 C 101.640625 244.644531 86.234375 244.316406 80.796875 243.382812 C 79.582031 243.175781 78.964844 241.8125 79.605469 240.757812 C 82.082031 236.675781 89.753906 232.984375 91.433594 232.210938 C 91.652344 232.113281 91.839844 231.960938 92.003906 231.785156 Z M 146.148438 232.210938 C 147.828125 232.984375 155.5 236.675781 157.976562 240.757812 C 158.617188 241.8125 158 243.175781 156.78125 243.382812 C 151.347656 244.316406 135.941406 244.644531 130.257812 243.679688 C 129.464844 243.542969 128.886719 242.871094 128.835938 242.070312 C 128.742188 240.617188 128.875 238.371094 128.992188 236.820312 C 129.066406 235.867188 129.894531 235.152344 130.847656 235.21875 L 138.414062 235.757812 C 139.183594 235.816406 139.890625 235.355469 140.167969 234.636719 C 140.957031 232.566406 142.859375 228.871094 145.578125 231.785156 C 145.738281 231.960938 145.929688 232.113281 146.148438 232.210938 Z M 119.066406 113.113281 C 111.136719 113.113281 105.398438 110.34375 105.042969 110.167969 C 104.289062 109.796875 103.984375 108.886719 104.355469 108.136719 C 104.726562 107.386719 105.632812 107.078125 106.382812 107.449219 C 106.503906 107.507812 118.546875 113.269531 131.339844 107.429688 C 132.105469 107.082031 133.003906 107.417969 133.351562 108.179688 C 133.699219 108.941406 133.363281 109.839844 132.601562 110.1875 C 127.796875 112.378906 123.140625 113.113281 119.066406 113.113281 Z M 119.066406 113.113281 " fill-opacity="1" fill-rule="nonzero"/></g><path fill="#ff9f6c" d="M 109.199219 207.804688 L 108.808594 219.933594 C 102.351562 221.453125 89.78125 220.253906 89.78125 220.253906 C 89.167969 216.558594 88.566406 212.882812 88.230469 210.707031 C 87.5 205.96875 85.707031 196.75 85.734375 188.464844 C 82.015625 192.207031 74.082031 195.894531 67.140625 196.664062 C 58.242188 197.652344 64.570312 193.601562 64.570312 193.601562 C 64.570312 193.601562 54.21875 195.804688 53.691406 193.898438 C 52.902344 191.027344 64.964844 186.085938 71.394531 183.613281 C 74.675781 181.789062 77.820312 153.976562 78.292969 149.636719 C 83.875 152.070312 89.480469 153.75 89.480469 153.75 L 89.59375 153.792969 L 89.59375 174.171875 C 90.367188 173.367188 91.269531 172.726562 92.34375 172.300781 C 103.214844 167.988281 109.003906 179.789062 109.199219 207.804688 Z M 165.679688 183.613281 C 162.398438 181.789062 159.253906 153.976562 158.785156 149.636719 C 153.199219 152.070312 147.484375 153.796875 147.484375 153.796875 L 147.484375 173.695312 C 146.824219 173.117188 146.085938 172.636719 145.238281 172.300781 C 134.367188 167.988281 128.578125 179.789062 128.382812 207.804688 L 128.773438 219.933594 C 135.230469 221.453125 147.800781 220.253906 147.800781 220.253906 C 148.414062 216.558594 149.015625 212.886719 149.351562 210.707031 C 150.066406 206.0625 151.804688 197.109375 151.84375 188.945312 C 155.738281 192.519531 163.289062 195.925781 169.933594 196.664062 C 178.832031 197.652344 172.503906 193.601562 172.503906 193.601562 C 172.503906 193.601562 182.855469 195.804688 183.382812 193.898438 C 184.175781 191.027344 172.109375 186.085938 165.679688 183.613281 Z M 165.679688 183.613281 " fill-opacity="1" fill-rule="nonzero"/><g mask="url(#08314f35c1)"><g transform="matrix(1, 0, 0, 1, 87, 134)"><g clip-path="url(#3cf152804c)"><g clip-path="url(#6103cd10fb)"><path fill="#000000" d="M 35.722656 48.492188 C 35.960938 48.492188 36.191406 48.382812 36.339844 48.175781 C 36.398438 48.097656 42.035156 40.277344 47.054688 37.625 C 47.085938 37.609375 47.105469 37.582031 47.132812 37.5625 C 45.246094 38.152344 43.175781 39.144531 40.964844 40.714844 C 40.710938 40.894531 40.460938 41.058594 40.210938 41.226562 C 37.375 44.148438 35.25 47.089844 35.109375 47.292969 C 34.863281 47.632812 34.941406 48.105469 35.28125 48.351562 C 35.417969 48.445312 35.570312 48.492188 35.722656 48.492188 Z M 16.847656 37.523438 C 16.890625 37.558594 16.925781 37.601562 16.972656 37.625 C 21.996094 40.277344 27.632812 48.097656 27.691406 48.175781 C 27.839844 48.382812 28.070312 48.492188 28.308594 48.492188 C 28.460938 48.492188 28.613281 48.445312 28.75 48.351562 C 29.089844 48.105469 29.167969 47.632812 28.921875 47.292969 C 28.796875 47.117188 27.152344 44.835938 24.839844 42.308594 C 23.933594 41.808594 23.007812 41.226562 22.050781 40.542969 C 20.273438 39.0625 18.515625 38.113281 16.847656 37.523438 Z M 20.988281 29.753906 C 20.664062 29.753906 20.367188 29.546875 20.265625 29.21875 C 20.140625 28.820312 20.367188 28.394531 20.765625 28.269531 C 37.253906 23.191406 44.378906 9.796875 44.449219 9.660156 C 44.640625 9.289062 45.097656 9.148438 45.46875 9.339844 C 45.839844 9.53125 45.988281 9.988281 45.792969 10.359375 C 45.496094 10.933594 38.332031 24.445312 21.210938 29.722656 C 21.136719 29.742188 21.0625 29.753906 20.988281 29.753906 Z M 62.007812 19.304688 L 62.148438 1.648438 C 62.152344 1.230469 61.816406 0.890625 61.394531 0.886719 C 61.394531 0.886719 61.390625 0.886719 61.390625 0.886719 C 60.972656 0.886719 60.636719 1.222656 60.632812 1.636719 L 60.484375 19.796875 C 60.96875 19.640625 61.429688 19.496094 62.007812 19.304688 Z M 2.589844 19.792969 C 2.589844 19.894531 2.742188 1.558594 2.742188 1.558594 C 2.746094 1.140625 2.410156 0.800781 1.992188 0.796875 C 1.988281 0.796875 1.988281 0.796875 1.984375 0.796875 C 1.570312 0.796875 1.230469 1.132812 1.226562 1.546875 L 1.085938 19.300781 C 1.652344 19.488281 2.160156 19.65625 2.589844 19.792969 Z M 2.589844 19.792969 " fill-opacity="1" fill-rule="nonzero"/></g></g></g></g><path fill="#c95c3f" d="M 63.507812 194.1875 C 63.277344 194.1875 63.046875 194.082031 62.898438 193.878906 C 62.648438 193.542969 62.722656 193.070312 63.058594 192.820312 C 63.222656 192.699219 67.128906 189.839844 70.472656 188.773438 C 70.871094 188.644531 71.296875 188.867188 71.425781 189.265625 C 71.550781 189.664062 71.332031 190.089844 70.933594 190.21875 C 67.828125 191.207031 63.996094 194.011719 63.957031 194.039062 C 63.824219 194.140625 63.664062 194.1875 63.507812 194.1875 Z M 89.59375 174.171875 C 89.617188 173.441406 89.628906 172.351562 89.589844 172.160156 C 88.03125 173.5 83.933594 178.085938 84.207031 189.273438 C 84.210938 189.433594 84.273438 189.574219 84.359375 189.691406 C 84.855469 189.292969 85.308594 188.890625 85.714844 188.484375 C 85.660156 179.875 88.042969 175.867188 89.59375 174.171875 Z M 172.523438 193.570312 C 172.484375 193.542969 168.652344 190.738281 165.546875 189.75 C 165.148438 189.621094 164.929688 189.195312 165.054688 188.796875 C 165.183594 188.398438 165.609375 188.175781 166.007812 188.304688 C 169.351562 189.367188 173.257812 192.230469 173.421875 192.351562 C 173.757812 192.597656 173.832031 193.074219 173.582031 193.410156 C 173.433594 193.613281 173.203125 193.71875 172.972656 193.71875 C 172.816406 193.71875 172.65625 193.671875 172.523438 193.570312 Z M 151.898438 188.980469 C 152.304688 189.382812 152.789062 189.742188 153.285156 190.144531 C 153.371094 190.023438 153.402344 189.929688 153.40625 189.769531 C 153.679688 178.582031 149.042969 173.027344 147.484375 171.691406 C 147.445312 171.882812 147.457031 172.972656 147.480469 173.703125 C 149.03125 175.398438 151.953125 180.371094 151.898438 188.980469 Z M 151.898438 188.980469 " fill-opacity="1" fill-rule="nonzero"/></svg>